SplineFontDB: 3.0
FontName: KAN-KaveriItalic
FullName: KAN Kaveri Italic
FamilyName: KAN Kaveri
Weight: Book
Copyright: Copyright (c) 2009-2015, NLCI (http://www.nlci.in/fonts/)
Version: 1.0 Wed May 17 15:42:18 1995
ItalicAngle: 12
UnderlinePosition: -290
UnderlineWidth: 20
Ascent: 800
Descent: 200
InvalidEm: 0
LayerCount: 2
Layer: 0 1 "Back" 1
Layer: 1 1 "Fore" 0
XUID: [1021 297 2115494286 1251845]
FSType: 0
OS2Version: 0
OS2_WeightWidthSlopeOnly: 0
OS2_UseTypoMetrics: 1
CreationTime: 1250825687
ModificationTime: 1491624308
PfmFamily: 81
TTFWeight: 400
TTFWidth: 5
LineGap: 0
VLineGap: 0
Panose: 5 0 0 0 0 0 0 0 0 0
OS2TypoAscent: -72
OS2TypoAOffset: 1
OS2TypoDescent: -196
OS2TypoDOffset: 1
OS2TypoLinegap: 0
OS2WinAscent: -236
OS2WinAOffset: 1
OS2WinDescent: -103
OS2WinDOffset: 1
HheadAscent: -236
HheadAOffset: 1
HheadDescent: 103
HheadDOffset: 1
OS2SubXSize: 700
OS2SubYSize: 650
OS2SubXOff: 0
OS2SubYOff: 143
OS2SupXSize: 700
OS2SupYSize: 650
OS2SupXOff: 0
OS2SupYOff: 453
OS2StrikeYSize: 50
OS2StrikeYPos: 259
OS2Vendor: 'Alts'
OS2UnicodeRanges: 00000000.00000000.00000000.00000000
Lookup: 262 0 0 "blwm" { "blwm-2sub"  } []
MarkAttachClasses: 1
DEI: 91125
TtTable: prep
NPUSHB
 1
 1
SCANTYPE
PUSHW_1
 511
SCANCTRL
EndTTInstrs
ShortTable: maxp 16
  1
  0
  319
  202
  5
  175
  6
  2
  8
  64
  10
  0
  3
  557
  4
  2
EndShort
LangName: 1033 "" "" "Italic" "NLCI:KAN Kaveri Italic" "" "1.0 Wed May 17 15:42:18 1995"
Encoding: Original
Compacted: 1
UnicodeInterp: none
NameList: Adobe Glyph List
DisplaySize: -48
AntiAlias: 1
FitToEm: 1
WinInfo: 0 37 14
BeginPrivate: 0
EndPrivate
AnchorClass2: "Sub" "blwm-2sub" "Nukta"""  "s"""  "V""" 
BeginChars: 572 571

StartChar: .notdef
Encoding: 0 -1 0
Width: 500
Flags: W
LayerCount: 2
Fore
SplineSet
31 0 m 1,0,-1
 31 604 l 1,1,-1
 469 604 l 1,2,-1
 469 0 l 1,3,-1
 31 0 l 1,0,-1
438 31 m 1,4,-1
 438 573 l 1,5,-1
 62 573 l 1,6,-1
 62 31 l 1,7,-1
 438 31 l 1,4,-1
EndSplineSet
EndChar

StartChar: exclam
Encoding: 4 33 4
Width: 346
VWidth: 500
Flags: W
LayerCount: 2
Fore
SplineSet
304 647 m 0,0,1
 275 534 275 534 250.5 437.5 c 0,2,3
 240 396.5 240 396.5 229.5 355.25 c 0,4,5
 219 314 219 314 210 278 c 0,6,7
 201 242 201 242 194 214.25 c 0,8,9
 187 186.5 187 186.5 183.5 173 c 0,10,-1
 119 173 l 0,11,-1
 171 615.5 l 0,12,13
 173.5 635 173.5 635 178.75 650.5 c 0,14,15
 184 666 184 666 193.5 677 c 0,16,17
 203 688 203 688 217.5 693.75 c 0,18,19
 232 699.5 232 699.5 253 699.5 c 0,20,21
 304 699.5 304 699.5 304 647 c 0,0,1
200.5 50 m 0,22,23
 200.5 25.5 200.5 25.5 182.25 8.25 c 0,24,25
 164 -9 164 -9 133 -9 c 0,26,27
 122 -9 122 -9 110.25 -5.25 c 0,28,29
 98.5 -1.5 98.5 -1.5 89 6 c 0,30,31
 79.5 13.5 79.5 13.5 73.5 24.5 c 0,32,33
 67.5 35.5 67.5 35.5 67.5 50 c 0,34,35
 67.5 63.5 67.5 63.5 72.5 74.75 c 0,36,37
 77.5 86 77.5 86 86.5 94.25 c 0,38,39
 95.5 102.5 95.5 102.5 107.5 107 c 0,40,41
 119.5 111.5 119.5 111.5 133 111.5 c 0,42,43
 146.5 111.5 146.5 111.5 158.75 107 c 0,44,45
 171 102.5 171 102.5 180.25 94.5 c 0,46,47
 189.5 86.5 189.5 86.5 195 75.25 c 0,48,49
 200.5 64 200.5 64 200.5 50 c 0,22,23
EndSplineSet
EndChar

StartChar: quotedbl
Encoding: 5 34 5
Width: 339
VWidth: 500
Flags: W
LayerCount: 2
Fore
SplineSet
385 692 m 0,0,1
 385 686.5 385 686.5 379.25 667.25 c 0,2,3
 373.5 648 373.5 648 364.75 621.25 c 0,4,5
 356 594.5 356 594.5 345.75 564.25 c 0,6,7
 335.5 534 335.5 534 325.75 507 c 0,8,9
 316 480 316 480 308.75 459.5 c 0,10,11
 301.5 439 301.5 439 299 432 c 0,12,-1
 266 432 l 0,13,-1
 278.5 660.5 l 0,14,15
 279.5 676 279.5 676 283.25 688.75 c 0,16,17
 287 701.5 287 701.5 294.25 711 c 0,18,19
 301.5 720.5 301.5 720.5 313 725.75 c 0,20,21
 324.5 731 324.5 731 342 731 c 0,22,23
 360.5 731 360.5 731 372.75 721 c 0,24,25
 385 711 385 711 385 692 c 0,0,1
220 692 m 0,26,27
 220 686.5 220 686.5 214.5 667.25 c 0,28,29
 209 648 209 648 200.25 621.25 c 0,30,31
 191.5 594.5 191.5 594.5 181.25 564.25 c 0,32,33
 171 534 171 534 161.75 507 c 0,34,35
 152.5 480 152.5 480 145 459.5 c 0,36,37
 137.5 439 137.5 439 135 432 c 0,38,-1
 102.5 432 l 0,39,-1
 115.5 660.5 l 0,40,41
 116.5 676 116.5 676 120 688.75 c 0,42,43
 123.5 701.5 123.5 701.5 130.5 711 c 0,44,45
 137.5 720.5 137.5 720.5 149 725.75 c 0,46,47
 160.5 731 160.5 731 178 731 c 0,48,49
 195.5 731 195.5 731 207.75 721 c 0,50,51
 220 711 220 711 220 692 c 0,26,27
EndSplineSet
EndChar

StartChar: numbersign
Encoding: 6 35 6
Width: 761
VWidth: 500
Flags: W
LayerCount: 2
Fore
SplineSet
552 431 m 0,0,-1
 503 284.5 l 0,1,-1
 667.5 284.5 l 0,2,-1
 667.5 233.5 l 0,3,-1
 485.5 233.5 l 0,4,-1
 398.5 -23.5 l 0,5,-1
 347 -7 l 0,6,-1
 428 233.5 l 0,7,-1
 279.5 233.5 l 0,8,-1
 192.5 -23.5 l 0,9,-1
 141.5 -6 l 0,10,-1
 223 233.5 l 0,11,-1
 78 233.5 l 0,12,-1
 78 284.5 l 0,13,-1
 239.5 284.5 l 0,14,-1
 290 431 l 0,15,-1
 125 431 l 0,16,-1
 125 483.5 l 0,17,-1
 307 483.5 l 0,18,-1
 389 725 l 0,19,-1
 441.5 708.5 l 0,20,-1
 363.5 483.5 l 0,21,-1
 513 483.5 l 0,22,-1
 594 725 l 0,23,-1
 647 708.5 l 0,24,-1
 569.5 483.5 l 0,25,-1
 712.5 483.5 l 0,26,-1
 712.5 431 l 0,27,-1
 552 431 l 0,0,-1
346 431 m 0,28,-1
 297 284.5 l 0,29,-1
 445.5 284.5 l 0,30,-1
 494.5 431 l 0,31,-1
 346 431 l 0,28,-1
EndSplineSet
EndChar

StartChar: dollar
Encoding: 7 36 7
Width: 569
VWidth: 500
Flags: W
LayerCount: 2
Fore
SplineSet
500.5 505 m 0,0,-1
 440.5 505 l 0,1,-1
 445.5 605 l 0,2,3
 445.5 608.5 445.5 608.5 441.5 613.75 c 0,4,5
 437.5 619 437.5 619 434 620.5 c 0,6,7
 433 621 433 621 427.75 623.5 c 0,8,9
 422.5 626 422.5 626 414.5 628.75 c 0,10,11
 406.5 631.5 406.5 631.5 395.75 634.25 c 0,12,13
 385 637 385 637 372.5 638 c 0,14,-1
 324.5 384 l 0,15,16
 358.5 373 358.5 373 388.5 357 c 0,17,18
 418.5 341 418.5 341 440.75 320 c 0,19,20
 463 299 463 299 475.75 272.25 c 0,21,22
 488.5 245.5 488.5 245.5 488.5 213 c 0,23,24
 488.5 173.5 488.5 173.5 475.75 142.75 c 0,25,26
 463 112 463 112 442.25 88.75 c 0,27,28
 421.5 65.5 421.5 65.5 395.5 49.5 c 0,29,30
 369.5 33.5 369.5 33.5 343 23 c 0,31,32
 316.5 12.5 316.5 12.5 292.25 7.25 c 0,33,34
 268 2 268 2 251 1 c 0,35,-1
 231.5 -104.5 l 0,36,-1
 171 -104.5 l 0,37,-1
 190.5 0 l 0,38,39
 163.5 1.5 163.5 1.5 140 5 c 0,40,41
 116.5 8.5 116.5 8.5 95.5 14 c 0,42,43
 74.5 19.5 74.5 19.5 54.5 27.25 c 0,44,45
 34.5 35 34.5 35 14.5 45 c 0,46,-1
 47 206 l 0,47,-1
 115.5 206 l 0,48,-1
 106.5 88 l 0,49,50
 106.5 84 106.5 84 108.75 82 c 0,51,52
 111 80 111 80 113.5 79 c 0,53,54
 115.5 78 115.5 78 123.75 74.25 c 0,55,56
 132 70.5 132 70.5 144 66 c 0,57,58
 156 61.5 156 61.5 170.75 57.5 c 0,59,60
 185.5 53.5 185.5 53.5 201.5 52 c 0,61,-1
 252 313.5 l 0,62,63
 219.5 327 219.5 327 192.25 344 c 0,64,65
 165 361 165 361 145 381.75 c 0,66,67
 125 402.5 125 402.5 113.75 427.5 c 0,68,69
 102.5 452.5 102.5 452.5 102.5 482.5 c 0,70,71
 102.5 526 102.5 526 120.75 561.5 c 0,72,73
 139 597 139 597 169.5 622.75 c 0,74,75
 200 648.5 200 648.5 240 664.25 c 0,76,77
 280 680 280 680 323.5 684 c 0,78,-1
 338 761 l 0,79,-1
 396.5 761 l 0,80,-1
 384 687 l 0,81,82
 409 686 409 686 433 682 c 0,83,84
 457 678 457 678 477.25 673.25 c 0,85,86
 497.5 668.5 497.5 668.5 512.5 664 c 0,87,88
 527.5 659.5 527.5 659.5 533.5 657.5 c 0,89,-1
 500.5 505 l 0,0,-1
313.5 634 m 0,90,91
 289 626.5 289 626.5 269 614.75 c 0,92,93
 249 603 249 603 234.75 587.25 c 0,94,95
 220.5 571.5 220.5 571.5 212.75 552 c 0,96,97
 205 532.5 205 532.5 205 510 c 0,98,99
 205 475.5 205 475.5 222 451.5 c 0,100,101
 239 427.5 239 427.5 270.5 411.5 c 0,102,-1
 313.5 634 l 0,90,91
381 185.5 m 0,103,104
 381 218.5 381 218.5 363.5 244.25 c 0,105,106
 346 270 346 270 308 287.5 c 0,107,-1
 263 56.5 l 0,108,109
 320.5 70.5 320.5 70.5 350.75 104 c 0,110,111
 381 137.5 381 137.5 381 185.5 c 0,103,104
EndSplineSet
EndChar

StartChar: percent
Encoding: 8 37 8
Width: 880
VWidth: 500
Flags: W
LayerCount: 2
Fore
SplineSet
840.5 271.5 m 0,0,1
 840.5 241.5 840.5 241.5 835 208.5 c 0,2,3
 829.5 175.5 829.5 175.5 818 143.5 c 0,4,5
 806.5 111.5 806.5 111.5 789.5 82.5 c 0,6,7
 772.5 53.5 772.5 53.5 749.5 31.5 c 0,8,9
 726.5 9.5 726.5 9.5 697.25 -3.5 c 0,10,11
 668 -16.5 668 -16.5 633 -16.5 c 0,12,13
 600.5 -16.5 600.5 -16.5 577.5 -5.25 c 0,14,15
 554.5 6 554.5 6 540 25.5 c 0,16,17
 525.5 45 525.5 45 518.75 71.25 c 0,18,19
 512 97.5 512 97.5 512 127 c 0,20,21
 512 157 512 157 517.5 190 c 0,22,23
 523 223 523 223 534.5 254.75 c 0,24,25
 546 286.5 546 286.5 563 315.25 c 0,26,27
 580 344 580 344 603.25 365.75 c 0,28,29
 626.5 387.5 626.5 387.5 655.5 400.5 c 0,30,31
 684.5 413.5 684.5 413.5 720 413.5 c 0,32,33
 752.5 413.5 752.5 413.5 775.5 402.25 c 0,34,35
 798.5 391 798.5 391 813 371.75 c 0,36,37
 827.5 352.5 827.5 352.5 834 326.75 c 0,38,39
 840.5 301 840.5 301 840.5 271.5 c 0,0,1
200.5 0 m 0,40,-1
 136 0 l 0,41,-1
 709.5 687 l 0,42,-1
 773 687 l 0,43,-1
 200.5 0 l 0,40,-1
398.5 561 m 0,44,45
 398.5 531 398.5 531 393 498.25 c 0,46,47
 387.5 465.5 387.5 465.5 376 433.5 c 0,48,49
 364.5 401.5 364.5 401.5 347.5 372.5 c 0,50,51
 330.5 343.5 330.5 343.5 307.25 321.5 c 0,52,53
 284 299.5 284 299.5 255 286.5 c 0,54,55
 226 273.5 226 273.5 190.5 273.5 c 0,56,57
 158 273.5 158 273.5 134.75 284.75 c 0,58,59
 111.5 296 111.5 296 96.75 315.5 c 0,60,61
 82 335 82 335 75.25 361.25 c 0,62,63
 68.5 387.5 68.5 387.5 68.5 417 c 0,64,65
 68.5 447 68.5 447 74.25 479.75 c 0,66,67
 80 512.5 80 512.5 91.25 544.25 c 0,68,69
 102.5 576 102.5 576 119.75 605 c 0,70,71
 137 634 137 634 160.25 655.75 c 0,72,73
 183.5 677.5 183.5 677.5 212.75 690.5 c 0,74,75
 242 703.5 242 703.5 277.5 703.5 c 0,76,77
 310 703.5 310 703.5 333 692.25 c 0,78,79
 356 681 356 681 370.5 661.75 c 0,80,81
 385 642.5 385 642.5 391.75 616.5 c 0,82,83
 398.5 590.5 398.5 590.5 398.5 561 c 0,44,45
766 291 m 0,84,85
 766 304.5 766 304.5 764 319.25 c 0,86,87
 762 334 762 334 756.25 346.25 c 0,88,89
 750.5 358.5 750.5 358.5 739.75 366.75 c 0,90,91
 729 375 729 375 711.5 375 c 0,92,93
 688.5 375 688.5 375 670.25 360.25 c 0,94,95
 652 345.5 652 345.5 638 321.75 c 0,96,97
 624 298 624 298 614 268.5 c 0,98,99
 604 239 604 239 597.75 209.5 c 0,100,101
 591.5 180 591.5 180 588.5 153.75 c 0,102,103
 585.5 127.5 585.5 127.5 585.5 110.5 c 0,104,105
 585.5 96.5 585.5 96.5 587.5 81 c 0,106,107
 589.5 65.5 589.5 65.5 595.5 52.25 c 0,108,109
 601.5 39 601.5 39 612.5 30.25 c 0,110,111
 623.5 21.5 623.5 21.5 641 21.5 c 0,112,113
 663.5 21.5 663.5 21.5 681.75 36.75 c 0,114,115
 700 52 700 52 713.75 76.25 c 0,116,117
 727.5 100.5 727.5 100.5 737.5 130.75 c 0,118,119
 747.5 161 747.5 161 753.75 191 c 0,120,121
 760 221 760 221 763 247.5 c 0,122,123
 766 274 766 274 766 291 c 0,84,85
322.5 580.5 m 0,124,125
 322.5 594 322.5 594 320.75 608.75 c 0,126,127
 319 623.5 319 623.5 313.25 636 c 0,128,129
 307.5 648.5 307.5 648.5 297 656.5 c 0,130,131
 286.5 664.5 286.5 664.5 269.5 664.5 c 0,132,133
 246 664.5 246 664.5 227.5 649.75 c 0,134,135
 209 635 209 635 195 611.25 c 0,136,137
 181 587.5 181 587.5 171 558 c 0,138,139
 161 528.5 161 528.5 154.75 499.25 c 0,140,141
 148.5 470 148.5 470 145.5 443.75 c 0,142,143
 142.5 417.5 142.5 417.5 142.5 400.5 c 0,144,145
 142.5 386.5 142.5 386.5 144.75 371 c 0,146,147
 147 355.5 147 355.5 153 342.5 c 0,148,149
 159 329.5 159 329.5 170 321 c 0,150,151
 181 312.5 181 312.5 198.5 312.5 c 0,152,153
 221.5 312.5 221.5 312.5 239.5 327.75 c 0,154,155
 257.5 343 257.5 343 271.25 367 c 0,156,157
 285 391 285 391 294.75 421 c 0,158,159
 304.5 451 304.5 451 310.75 481 c 0,160,161
 317 511 317 511 319.75 537.25 c 0,162,163
 322.5 563.5 322.5 563.5 322.5 580.5 c 0,124,125
EndSplineSet
EndChar

StartChar: ampersand
Encoding: 9 38 9
Width: 721
VWidth: 500
Flags: W
LayerCount: 2
Fore
SplineSet
615.5 315.5 m 0,0,1
 594 270 594 270 560.75 222 c 0,2,3
 527.5 174 527.5 174 488.5 132 c 0,4,5
 506 108 506 108 523 91.75 c 0,6,7
 540 75.5 540 75.5 559 65.5 c 0,8,9
 578 55.5 578 55.5 601 51 c 0,10,11
 624 46.5 624 46.5 653.5 46 c 0,12,-1
 653.5 1 l 0,13,14
 628.5 0 628.5 0 610.75 -1 c 0,15,16
 593 -2 593 -2 578.5 -3 c 0,17,18
 562.5 -4 562.5 -4 547.25 -3.5 c 0,19,20
 532 -3 532 -3 518 0 c 0,21,22
 505.5 2 505.5 2 493.75 6.75 c 0,23,24
 482 11.5 482 11.5 470.25 19.5 c 0,25,26
 458.5 27.5 458.5 27.5 446 39.5 c 0,27,28
 433.5 51.5 433.5 51.5 420 68.5 c 0,29,30
 397.5 51.5 397.5 51.5 373 37 c 0,31,32
 348.5 22.5 348.5 22.5 321 11.75 c 0,33,34
 293.5 1 293.5 1 262.5 -5.25 c 0,35,36
 231.5 -11.5 231.5 -11.5 195.5 -11.5 c 0,37,38
 157 -11.5 157 -11.5 123.75 0 c 0,39,40
 90.5 11.5 90.5 11.5 65.75 33.5 c 0,41,42
 41 55.5 41 55.5 26.75 87 c 0,43,44
 12.5 118.5 12.5 118.5 12.5 158.5 c 0,45,46
 12.5 196.5 12.5 196.5 26.25 228.25 c 0,47,48
 40 260 40 260 64 286.75 c 0,49,50
 88 313.5 88 313.5 120 335.5 c 0,51,52
 152 357.5 152 357.5 188.5 376 c 0,53,54
 177 392 177 392 166.75 408 c 0,55,56
 156.5 424 156.5 424 149 440.25 c 0,57,58
 141.5 456.5 141.5 456.5 137.25 473.5 c 0,59,60
 133 490.5 133 490.5 133 509 c 0,61,62
 133 550.5 133 550.5 150.5 585.5 c 0,63,64
 168 620.5 168 620.5 198.5 646 c 0,65,66
 229 671.5 229 671.5 270.75 686 c 0,67,68
 312.5 700.5 312.5 700.5 361.5 700.5 c 0,69,70
 403.5 700.5 403.5 700.5 433 689 c 0,71,72
 462.5 677.5 462.5 677.5 481.5 658.25 c 0,73,74
 500.5 639 500.5 639 509.25 614.75 c 0,75,76
 518 590.5 518 590.5 518 565 c 0,77,78
 518 528 518 528 502.75 498.5 c 0,79,80
 487.5 469 487.5 469 460 445 c 0,81,82
 432.5 421 432.5 421 394.25 402 c 0,83,84
 356 383 356 383 310.5 367.5 c 0,85,-1
 454.5 177 l 0,86,87
 481 206.5 481 206.5 501 240 c 0,88,89
 521 273.5 521 273.5 533.5 300 c 0,90,91
 534 301 534 301 532.5 303.5 c 0,92,93
 531 306 531 306 529.25 308.5 c 0,94,95
 527.5 311 527.5 311 525.75 312.75 c 0,96,97
 524 314.5 524 314.5 523.5 314.5 c 0,98,-1
 471 323.5 l 0,99,-1
 471 370.5 l 0,100,-1
 689 370.5 l 0,101,-1
 689 323.5 l 0,102,-1
 615.5 315.5 l 0,0,1
418 556 m 0,103,104
 418 574 418 574 413 591 c 0,105,106
 408 608 408 608 398.25 621 c 0,107,108
 388.5 634 388.5 634 374 642 c 0,109,110
 359.5 650 359.5 650 341 650 c 0,111,112
 322.5 650 322.5 650 302.25 643 c 0,113,114
 282 636 282 636 265 622 c 0,115,116
 248 608 248 608 236.75 586.75 c 0,117,118
 225.5 565.5 225.5 565.5 225.5 536.5 c 0,119,120
 225.5 518 225.5 518 230.5 499.75 c 0,121,122
 235.5 481.5 235.5 481.5 243.5 464.25 c 0,123,124
 251.5 447 251.5 447 261.75 431.25 c 0,125,126
 272 415.5 272 415.5 282.5 402.5 c 0,127,128
 312.5 414.5 312.5 414.5 337.5 429 c 0,129,130
 362.5 443.5 362.5 443.5 380.25 462 c 0,131,132
 398 480.5 398 480.5 408 503.5 c 0,133,134
 418 526.5 418 526.5 418 556 c 0,103,104
216 336 m 0,135,136
 172 307.5 172 307.5 146.5 271.5 c 0,137,138
 121 235.5 121 235.5 121 188.5 c 0,139,140
 121 157.5 121 157.5 131.5 132.5 c 0,141,142
 142 107.5 142 107.5 159.5 90 c 0,143,144
 177 72.5 177 72.5 200 62.75 c 0,145,146
 223 53 223 53 248 53 c 0,147,148
 266 53 266 53 282.25 56.25 c 0,149,150
 298.5 59.5 298.5 59.5 315 66.5 c 0,151,152
 331.5 73.5 331.5 73.5 348.75 84.25 c 0,153,154
 366 95 366 95 386 109.5 c 0,155,-1
 216 336 l 0,135,136
EndSplineSet
EndChar

StartChar: quotesingle
Encoding: 10 39 10
Width: 174
VWidth: 500
Flags: W
LayerCount: 2
Fore
SplineSet
225.5 692 m 0,0,1
 225.5 686.5 225.5 686.5 219.5 667.25 c 0,2,3
 213.5 648 213.5 648 204.5 621.25 c 0,4,5
 195.5 594.5 195.5 594.5 184.75 564.25 c 0,6,7
 174 534 174 534 164 507 c 0,8,9
 154 480 154 480 146.25 459.5 c 0,10,11
 138.5 439 138.5 439 136 432 c 0,12,-1
 102.5 432 l 0,13,-1
 115.5 660.5 l 0,14,15
 117 676 117 676 120.75 688.75 c 0,16,17
 124.5 701.5 124.5 701.5 132 711 c 0,18,19
 139.5 720.5 139.5 720.5 151.5 725.75 c 0,20,21
 163.5 731 163.5 731 181 731 c 0,22,23
 200.5 731 200.5 731 213 721 c 0,24,25
 225.5 711 225.5 711 225.5 692 c 0,0,1
EndSplineSet
EndChar

StartChar: parenleft
Encoding: 11 40 11
Width: 429
VWidth: 500
Flags: W
LayerCount: 2
Fore
SplineSet
469 688 m 0,0,1
 426.5 682.5 426.5 682.5 391.25 661.5 c 0,2,3
 356 640.5 356 640.5 327.25 608.75 c 0,4,5
 298.5 577 298.5 577 275.75 536.75 c 0,6,7
 253 496.5 253 496.5 236 452.25 c 0,8,9
 219 408 219 408 207 362 c 0,10,11
 195 316 195 316 187.5 272.5 c 0,12,13
 180 229 180 229 176.5 190.5 c 0,14,15
 173 152 173 152 173 123 c 0,16,17
 173 66 173 66 184.25 26.75 c 0,18,19
 195.5 -12.5 195.5 -12.5 215.25 -38.5 c 0,20,21
 235 -64.5 235 -64.5 261.5 -78.75 c 0,22,23
 288 -93 288 -93 318.5 -99.5 c 0,24,-1
 309 -146.5 l 0,25,26
 257 -143.5 257 -143.5 213.75 -121.25 c 0,27,28
 170.5 -99 170.5 -99 139 -61.25 c 0,29,30
 107.5 -23.5 107.5 -23.5 90 28.25 c 0,31,32
 72.5 80 72.5 80 72.5 142.5 c 0,33,34
 72.5 203.5 72.5 203.5 83.5 269.5 c 0,35,36
 94.5 335.5 94.5 335.5 116.5 399.25 c 0,37,38
 138.5 463 138.5 463 172 521.25 c 0,39,40
 205.5 579.5 205.5 579.5 250.5 625 c 0,41,42
 295.5 670.5 295.5 670.5 352.5 699.75 c 0,43,44
 409.5 729 409.5 729 478 735 c 0,45,-1
 469 688 l 0,0,1
EndSplineSet
EndChar

StartChar: parenright
Encoding: 12 41 12
Width: 428
VWidth: 500
Flags: W
LayerCount: 2
Fore
SplineSet
355.5 454.5 m 0,0,1
 355.5 369.5 355.5 369.5 341.25 294 c 0,2,3
 327 218.5 327 218.5 301.25 154 c 0,4,5
 275.5 89.5 275.5 89.5 238.75 36.75 c 0,6,7
 202 -16 202 -16 157.25 -54.5 c 0,8,9
 112.5 -93 112.5 -93 60.25 -116.75 c 0,10,11
 8 -140.5 8 -140.5 -49 -147.5 c 0,12,-1
 -40 -98.5 l 0,13,14
 4.5 -92.5 4.5 -92.5 40.75 -70.25 c 0,15,16
 77 -48 77 -48 106.25 -14.5 c 0,17,18
 135.5 19 135.5 19 157.75 61.25 c 0,19,20
 180 103.5 180 103.5 196.5 149.25 c 0,21,22
 213 195 213 195 224.25 241.75 c 0,23,24
 235.5 288.5 235.5 288.5 242.25 331.25 c 0,25,26
 249 374 249 374 252 410.25 c 0,27,28
 255 446.5 255 446.5 255 471 c 0,29,30
 255 486.5 255 486.5 253 507 c 0,31,32
 251 527.5 251 527.5 245.75 550 c 0,33,34
 240.5 572.5 240.5 572.5 230.5 595 c 0,35,36
 220.5 617.5 220.5 617.5 204.5 636.5 c 0,37,38
 188.5 655.5 188.5 655.5 165.25 669.25 c 0,39,40
 142 683 142 683 110.5 688 c 0,41,-1
 120 735 l 0,42,43
 174.5 729 174.5 729 213.25 709.5 c 0,44,45
 252 690 252 690 278.25 663.5 c 0,46,47
 304.5 637 304.5 637 319.75 606 c 0,48,49
 335 575 335 575 343 546 c 0,50,51
 351 517 351 517 353.25 492.5 c 0,52,53
 355.5 468 355.5 468 355.5 454.5 c 0,0,1
EndSplineSet
EndChar

StartChar: asterisk
Encoding: 13 42 13
Width: 512
VWidth: 500
Flags: W
LayerCount: 2
Fore
SplineSet
476 525.5 m 0,0,-1
 344 518 l 0,1,-1
 340 532.5 l 0,2,-1
 449.5 605 l 0,3,-1
 522 583.5 l 0,4,-1
 476 525.5 l 0,0,-1
327.5 542.5 m 0,5,-1
 314.5 542.5 l 0,6,-1
 278.5 670.5 l 0,7,-1
 320.5 733 l 0,8,-1
 363.5 670.5 l 0,9,-1
 327.5 542.5 l 0,5,-1
374 371.5 m 0,10,-1
 326.5 494.5 l 0,11,-1
 340 504 l 0,12,-1
 443.5 421 l 0,13,-1
 445.5 345 l 0,14,-1
 374 371.5 l 0,10,-1
299 518 m 0,15,-1
 166 525.5 l 0,16,-1
 120 583.5 l 0,17,-1
 191.5 605 l 0,18,-1
 302 532.5 l 0,19,-1
 299 518 l 0,15,-1
268.5 371.5 m 0,20,-1
 196.5 345 l 0,21,-1
 198.5 421 l 0,22,-1
 302 504 l 0,23,-1
 315.5 494.5 l 0,24,-1
 268.5 371.5 l 0,20,-1
EndSplineSet
EndChar

StartChar: plus
Encoding: 14 43 14
Width: 1024
VWidth: 500
Flags: W
LayerCount: 2
Fore
SplineSet
543.5 275.5 m 0,0,-1
 543.5 0 l 0,1,-1
 480.5 0 l 0,2,-1
 480.5 275.5 l 0,3,-1
 205 275.5 l 0,4,-1
 205 339 l 0,5,-1
 480.5 339 l 0,6,-1
 480.5 614.5 l 0,7,-1
 543.5 614.5 l 0,8,-1
 543.5 339 l 0,9,-1
 819 339 l 0,10,-1
 819 275.5 l 0,11,-1
 543.5 275.5 l 0,0,-1
EndSplineSet
EndChar

StartChar: comma
Encoding: 15 44 15
Width: 286
VWidth: 500
Flags: W
LayerCount: 2
Fore
SplineSet
163 48 m 0,0,1
 163 4.5 163 4.5 144.5 -34 c 0,2,3
 126 -72.5 126 -72.5 95.25 -102.5 c 0,4,5
 64.5 -132.5 64.5 -132.5 25 -151.5 c 0,6,7
 -14.5 -170.5 -14.5 -170.5 -56.5 -174 c 0,8,-1
 -49 -137 l 0,9,10
 -17.5 -130.5 -17.5 -130.5 6.25 -118.75 c 0,11,12
 30 -107 30 -107 47.25 -89.75 c 0,13,14
 64.5 -72.5 64.5 -72.5 75.5 -48.5 c 0,15,16
 86.5 -24.5 86.5 -24.5 92 7 c 0,17,-1
 27.5 7 l 0,18,19
 22 14 22 14 19.75 22.75 c 0,20,21
 17.5 31.5 17.5 31.5 17.5 40 c 0,22,23
 17.5 55.5 17.5 55.5 24 70.75 c 0,24,25
 30.5 86 30.5 86 41.25 98 c 0,26,27
 52 110 52 110 66.25 117.5 c 0,28,29
 80.5 125 80.5 125 96.5 125 c 0,30,31
 114.5 125 114.5 125 127.25 119.25 c 0,32,33
 140 113.5 140 113.5 147.75 103 c 0,34,35
 155.5 92.5 155.5 92.5 159.25 78.5 c 0,36,37
 163 64.5 163 64.5 163 48 c 0,0,1
EndSplineSet
EndChar

StartChar: hyphen
Encoding: 16 45 16
Width: 326
VWidth: 500
Flags: W
LayerCount: 2
Fore
SplineSet
276.5 212 m 0,0,-1
 30.5 212 l 0,1,-1
 44 281.5 l 0,2,-1
 290 281.5 l 0,3,-1
 276.5 212 l 0,0,-1
EndSplineSet
EndChar

StartChar: period
Encoding: 17 46 17
Width: 286
VWidth: 500
Flags: W
LayerCount: 2
Fore
SplineSet
155.5 56.5 m 0,0,1
 155.5 42 155.5 42 150 29.5 c 0,2,3
 144.5 17 144.5 17 135 7.75 c 0,4,5
 125.5 -1.5 125.5 -1.5 112.75 -7 c 0,6,7
 100 -12.5 100 -12.5 86 -12.5 c 0,8,9
 71.5 -12.5 71.5 -12.5 59.25 -7 c 0,10,11
 47 -1.5 47 -1.5 38 7.75 c 0,12,13
 29 17 29 17 23.75 29.5 c 0,14,15
 18.5 42 18.5 42 18.5 56.5 c 0,16,17
 18.5 70.5 18.5 70.5 23.75 83 c 0,18,19
 29 95.5 29 95.5 38 104.75 c 0,20,21
 47 114 47 114 59.25 119.5 c 0,22,23
 71.5 125 71.5 125 86 125 c 0,24,25
 100 125 100 125 112.75 119.5 c 0,26,27
 125.5 114 125.5 114 135 104.75 c 0,28,29
 144.5 95.5 144.5 95.5 150 83 c 0,30,31
 155.5 70.5 155.5 70.5 155.5 56.5 c 0,0,1
EndSplineSet
EndChar

StartChar: slash
Encoding: 18 47 18
Width: 502
VWidth: 500
Flags: W
LayerCount: 2
Fore
SplineSet
65.5 -95 m 0,0,-1
 0 -95 l 0,1,-1
 436 687 l 0,2,-1
 502 687 l 0,3,-1
 65.5 -95 l 0,0,-1
EndSplineSet
EndChar

StartChar: zero
Encoding: 19 48 19
Width: 754
VWidth: 500
Flags: W
LayerCount: 2
Fore
SplineSet
678 151 m 0,0,-1
 759 534 l 0,1,2
 763 555 763 555 752 573 c 0,3,4
 737 588 737 588 718 588 c 0,5,-1
 616 588 l 0,6,7
 590 588 590 588 568.5 570.5 c 0,8,9
 547 553 547 553 543 534 c 0,10,-1
 461 147 l 0,11,12
 457 126 457 126 473.5 111.5 c 0,13,14
 490 97 490 97 512 97 c 0,15,-1
 614 97 l 0,16,17
 635 97 635 97 655 114.5 c 0,18,19
 675 132 675 132 678 151 c 0,0,-1
779 117 m 0,20,21
 774 87 774 87 751 59 c 0,22,23
 739 47 739 47 725 36 c 0,24,25
 711 25 711 25 696 18 c 0,26,27
 663 2 663 2 628 2 c 0,28,-1
 452 2 l 0,29,30
 398 2 398 2 369 44 c 0,31,32
 347 70 347 70 347 107 c 0,33,34
 347 121 347 121 351 137 c 0,35,-1
 442 568 l 0,36,37
 451 615 451 615 501 648.5 c 0,38,39
 551 682 551 682 609 682 c 0,40,-1
 764 682 l 0,41,42
 822 682 822 682 852 642 c 0,43,44
 873 614 873 614 873 577 c 0,45,46
 873 562 873 562 869 543 c 0,47,-1
 779 117 l 0,20,21
EndSplineSet
EndChar

StartChar: one
Encoding: 20 49 20
Width: 754
VWidth: 500
Flags: W
LayerCount: 2
Fore
SplineSet
754 0 m 0,0,-1
 399 0 l 0,1,-1
 418 95 l 0,2,-1
 541 95 l 0,3,-1
 636 541 l 0,4,5
 638 555 638 555 638 559 c 0,6,7
 638 563 638 563 638 567 c 0,8,9
 636 572 636 572 636 573 c 0,10,11
 632 585 632 585 620 585 c 0,12,-1
 524 585 l 0,13,-1
 544 680 l 0,14,-1
 661 680 l 0,15,16
 707 680 707 680 735 647 c 0,17,18
 753 624 753 624 753 592 c 0,19,20
 753 584 753 584 751 568 c 0,21,-1
 651 95 l 0,22,-1
 774 95 l 0,23,-1
 754 0 l 0,0,-1
EndSplineSet
EndChar

StartChar: two
Encoding: 21 50 21
Width: 754
VWidth: 500
Flags: W
LayerCount: 2
Fore
SplineSet
754 0 m 0,0,-1
 305 0 l 0,1,-1
 356 246 l 0,2,3
 370 302 370 302 419 332 c 0,4,5
 470 368 470 368 530 368 c 0,6,-1
 681 368 l 0,7,8
 697 368 697 368 712 386 c 0,9,10
 727 404 727 404 734 430 c 0,11,-1
 759 551 l 0,12,13
 763 565 763 565 755.5 574.5 c 0,14,15
 748 584 748 584 734 584 c 0,16,-1
 583 584 l 0,17,18
 576 584 576 584 566.5 581.5 c 0,19,20
 557 579 557 579 544.5 573.5 c 0,21,22
 532 568 532 568 528 552 c 0,23,-1
 510 463 l 0,24,-1
 403 463 l 0,25,-1
 428 586 l 0,26,27
 439 629 439 629 478 654.5 c 0,28,29
 517 680 517 680 570 680 c 0,30,-1
 774 680 l 0,31,32
 825 680 825 680 854 647 c 0,33,34
 873 624 873 624 873 592 c 0,35,36
 873 584 873 584 871 568 c 0,37,-1
 841 424 l 0,38,39
 832 381 832 381 810 351 c 0,40,41
 796 332 796 332 783 319 c 0,42,43
 770 306 770 306 751 295 c 0,44,45
 719 276 719 276 683 276 c 0,46,-1
 520 276 l 0,47,48
 498 276 498 276 487.5 272 c 0,49,50
 477 268 477 268 473.5 264 c 0,51,52
 470 260 470 260 469 259 c 0,53,-1
 434 100 l 0,54,-1
 775 100 l 0,55,-1
 754 0 l 0,0,-1
EndSplineSet
EndChar

StartChar: three
Encoding: 22 51 22
Width: 754
VWidth: 500
Flags: W
LayerCount: 2
Fore
SplineSet
778 109 m 0,0,1
 769 65 769 65 728.5 33 c 0,2,3
 688 1 688 1 641 1 c 0,4,-1
 437 1 l 0,5,6
 386 1 386 1 351 29 c 0,7,8
 326 50 326 50 326 82 c 0,9,10
 326 91 326 91 327 95 c 0,11,-1
 348 191 l 0,12,-1
 455 191 l 0,13,-1
 444 137 l 0,14,15
 440 121 440 121 451.5 108.5 c 0,16,17
 463 96 463 96 482 96 c 0,18,-1
 612 96 l 0,19,20
 631 96 631 96 651 110.5 c 0,21,22
 671 125 671 125 675 146 c 0,23,-1
 700 260 l 0,24,25
 704 283 704 283 691.5 298 c 0,26,27
 679 313 679 313 658 313 c 0,28,-1
 616 313 l 0,29,-1
 635 408 l 0,30,-1
 670 408 l 0,31,32
 695 408 695 408 714.5 418.5 c 0,33,34
 734 429 734 429 738 443 c 0,35,-1
 757 539 l 0,36,37
 758 544 758 544 758 552 c 0,38,39
 758 564 758 564 751 573.5 c 0,40,41
 744 583 744 583 726 583 c 0,42,-1
 584 583 l 0,43,44
 566 583 566 583 548.5 572 c 0,45,46
 531 561 531 561 527 543 c 0,47,-1
 519 501 l 0,48,-1
 412 501 l 0,49,-1
 431 597 l 0,50,51
 439 632 439 632 478 655 c 0,52,53
 517 678 517 678 570 678 c 0,54,-1
 782 678 l 0,55,56
 828 678 828 678 856 645 c 0,57,58
 874 622 874 622 874 590 c 0,59,60
 874 582 874 582 872 566 c 0,61,-1
 851 463 l 0,62,63
 846 435 846 435 818 408 c 0,64,65
 790 381 790 381 747 363 c 0,66,67
 783 351 783 351 798 322 c 0,68,69
 805 308 805 308 807 300 c 0,70,71
 809 292 809 292 809 280 c 0,72,73
 809 273 809 273 807 257 c 0,74,-1
 778 109 l 0,0,1
EndSplineSet
EndChar

StartChar: four
Encoding: 23 52 23
Width: 754
VWidth: 500
Flags: W
LayerCount: 2
Fore
SplineSet
789 163 m 0,0,-1
 694 163 l 0,1,-1
 659 0 l 0,2,-1
 550 0 l 0,3,-1
 585 163 l 0,4,-1
 402 163 l 0,5,6
 360 163 360 163 334.5 187.5 c 0,7,8
 309 212 309 212 316 245 c 0,9,10
 323 271 323 271 330.5 289 c 0,11,12
 338 307 338 307 357 339 c 0,13,-1
 544 680 l 0,14,-1
 653 680 l 0,15,-1
 456 333 l 0,16,-1
 430 270 l 0,17,18
 430 265 430 265 431 262.5 c 0,19,20
 432 260 432 260 434 259 c 0,21,-1
 604 259 l 0,22,-1
 693 681 l 0,23,-1
 802 681 l 0,24,-1
 713 259 l 0,25,-1
 808 259 l 0,26,-1
 789 163 l 0,0,-1
EndSplineSet
EndChar

StartChar: five
Encoding: 24 53 24
Width: 754
VWidth: 500
Flags: W
LayerCount: 2
Fore
SplineSet
778 109 m 0,0,1
 769 65 769 65 733 33 c 0,2,3
 697 1 697 1 655 1 c 0,4,-1
 374 1 l 0,5,6
 334 1 334 1 314.5 25.5 c 0,7,8
 295 50 295 50 295 73 c 0,9,10
 295 78 295 78 297 89 c 0,11,-1
 320 203 l 0,12,-1
 429 203 l 0,13,-1
 414 131 l 0,14,15
 412 116 412 116 420 108.5 c 0,16,17
 428 101 428 101 433.5 98.5 c 0,18,19
 439 96 439 96 447 96 c 0,20,-1
 637 96 l 0,21,22
 648 96 648 96 662 110 c 0,23,24
 671 128 671 128 675 146 c 0,25,-1
 708 301 l 0,26,27
 712 327 712 327 668 327 c 0,28,-1
 345 327 l 0,29,-1
 420 682 l 0,30,-1
 884 682 l 0,31,-1
 863 587 l 0,32,-1
 508 587 l 0,33,-1
 473 424 l 0,34,-1
 719 424 l 0,35,36
 772 424 772 424 800 391 c 0,37,38
 821 366 821 366 821 334 c 0,39,40
 821 327 821 327 819 311 c 0,41,-1
 778 109 l 0,0,1
EndSplineSet
EndChar

StartChar: six
Encoding: 25 54 25
Width: 754
VWidth: 500
Flags: W
LayerCount: 2
Fore
SplineSet
678 148 m 0,0,-1
 707 283 l 0,1,2
 711 305 711 305 696 316.5 c 0,3,4
 681 328 681 328 658 328 c 0,5,-1
 472 328 l 0,6,-1
 436 159 l 0,7,8
 432 133 432 133 446 117 c 0,9,10
 465 98 465 98 484 98 c 0,11,-1
 607 98 l 0,12,13
 630 98 630 98 651.5 112 c 0,14,15
 673 126 673 126 678 148 c 0,0,-1
781 123 m 0,16,17
 770 73 770 73 728 37 c 0,18,19
 681 1 681 1 632 1 c 0,20,-1
 428 1 l 0,21,22
 374 1 374 1 339 33 c 0,23,24
 313 59 313 59 313 89 c 0,25,26
 313 94 313 94 315 108 c 0,27,-1
 411 567 l 0,28,29
 423 616 423 616 469 648.5 c 0,30,31
 515 681 515 681 572 681 c 0,32,-1
 873 681 l 0,33,-1
 852 586 l 0,34,-1
 574 586 l 0,35,36
 555 586 555 586 536 574 c 0,37,38
 520 559 520 559 516 541 c 0,39,-1
 491 424 l 0,40,-1
 709 424 l 0,41,42
 769 424 769 424 799 389 c 0,43,44
 822 359 822 359 822 327 c 0,45,46
 822 319 822 319 820 303 c 0,47,-1
 781 123 l 0,16,17
EndSplineSet
EndChar

StartChar: seven
Encoding: 26 55 26
Width: 754
VWidth: 500
Flags: W
LayerCount: 2
Fore
SplineSet
873 560 m 0,0,-1
 517 0 l 0,1,-1
 408 0 l 0,2,-1
 765 560 l 0,3,4
 766 572 766 572 760.5 579.5 c 0,5,6
 755 587 755 587 743 587 c 0,7,-1
 519 587 l 0,8,-1
 505 519 l 0,9,-1
 396 519 l 0,10,-1
 431 682 l 0,11,-1
 786 682 l 0,12,13
 835 682 835 682 858 646 c 0,14,15
 876 623 876 623 876 590 c 0,16,17
 876 571 876 571 873 560 c 0,0,-1
EndSplineSet
EndChar

StartChar: eight
Encoding: 27 56 27
Width: 754
VWidth: 500
Flags: W
LayerCount: 2
Fore
SplineSet
678 147 m 0,0,-1
 680 159 l 0,1,2
 681 164 681 164 681 175 c 0,3,4
 681 201 681 201 660 217 c 0,5,-1
 597 280 l 0,6,-1
 487 217 l 0,7,8
 457 192 457 192 453 177 c 0,9,-1
 445 137 l 0,10,11
 441 122 441 122 454 109 c 0,12,13
 467 96 467 96 489 96 c 0,14,-1
 613 96 l 0,15,16
 632 96 632 96 652 110.5 c 0,17,18
 672 125 672 125 678 147 c 0,0,-1
761 548 m 0,19,20
 762 553 762 553 762 564 c 0,21,22
 762 572 762 572 760 576 c 0,23,24
 752 587 752 587 738 587 c 0,25,-1
 579 587 l 0,26,27
 571 587 571 587 563 585 c 0,28,29
 555 583 555 583 550 582 c 0,30,31
 538 575 538 575 536 562 c 0,32,33
 534 549 534 549 534 542 c 0,34,35
 534 530 534 530 540 521 c 0,36,-1
 625 435 l 0,37,-1
 735 507 l 0,38,39
 757 519 757 519 761 548 c 0,19,20
774 89 m 0,40,41
 766 53 766 53 727 26.5 c 0,42,43
 688 0 688 0 641 0 c 0,44,-1
 437 0 l 0,45,46
 386 0 386 0 351 28 c 0,47,48
 326 49 326 49 326 81 c 0,49,50
 326 90 326 90 327 94 c 0,51,-1
 353 217 l 0,52,53
 357 236 357 236 403 271 c 0,54,-1
 540 362 l 0,55,-1
 455 448 l 0,56,57
 413 498 413 498 418 524 c 0,58,-1
 433 598 l 0,59,60
 441 633 441 633 480 656 c 0,61,62
 519 679 519 679 572 679 c 0,63,-1
 784 679 l 0,64,65
 834 679 834 679 859 656 c 0,66,67
 881 638 881 638 881 613 c 0,68,69
 881 604 881 604 880 600 c 0,70,-1
 859 498 l 0,71,72
 851 465 851 465 807 437 c 0,73,-1
 666 349 l 0,74,-1
 743 295 l 0,75,76
 804 237 804 237 796 201 c 0,77,-1
 774 89 l 0,40,41
EndSplineSet
EndChar

StartChar: nine
Encoding: 28 57 28
Width: 754
VWidth: 500
Flags: W
LayerCount: 2
Fore
SplineSet
716 354 m 0,0,-1
 755 540 l 0,1,2
 759 559 759 559 745 572 c 0,3,4
 731 585 731 585 705 585 c 0,5,-1
 574 585 l 0,6,7
 553 585 553 585 532 573 c 0,8,9
 514 559 514 559 510 540 c 0,10,-1
 481 403 l 0,11,12
 479 381 479 381 494 370 c 0,13,14
 509 355 509 355 534 355 c 0,15,-1
 716 354 l 0,0,-1
782 131 m 0,16,17
 770 77 770 77 719 38.5 c 0,18,19
 668 0 668 0 605 0 c 0,20,-1
 318 0 l 0,21,-1
 337 95 l 0,22,-1
 582 95 l 0,23,24
 615 95 615 95 643 111 c 0,25,26
 671 127 671 127 676 149 c 0,27,-1
 699 259 l 0,28,-1
 481 259 l 0,29,30
 426 259 426 259 391 291 c 0,31,32
 366 319 366 319 366 351 c 0,33,34
 366 362 366 362 367 367 c 0,35,-1
 411 579 l 0,36,37
 416 605 416 605 441 630 c 0,38,39
 464 651 464 651 501 666 c 0,40,41
 537 678 537 678 576 678 c 0,42,-1
 758 678 l 0,43,44
 794 678 794 678 821 662 c 0,45,46
 848 646 848 646 862 617 c 0,47,48
 870 601 870 601 870 582 c 0,49,50
 870 574 870 574 868 558 c 0,51,-1
 782 131 l 0,16,17
EndSplineSet
EndChar

StartChar: colon
Encoding: 29 58 29
Width: 286
VWidth: 500
Flags: W
LayerCount: 2
Fore
SplineSet
230.5 437 m 0,0,1
 230.5 423 230.5 423 225 410.5 c 0,2,3
 219.5 398 219.5 398 210 388.75 c 0,4,5
 200.5 379.5 200.5 379.5 187.75 374 c 0,6,7
 175 368.5 175 368.5 161 368.5 c 0,8,9
 146.5 368.5 146.5 368.5 134 374 c 0,10,11
 121.5 379.5 121.5 379.5 112.25 388.75 c 0,12,13
 103 398 103 398 97.5 410.5 c 0,14,15
 92 423 92 423 92 437 c 0,16,17
 92 451 92 451 97.5 463.75 c 0,18,19
 103 476.5 103 476.5 112.25 485.75 c 0,20,21
 121.5 495 121.5 495 134 500.5 c 0,22,23
 146.5 506 146.5 506 161 506 c 0,24,25
 175 506 175 506 187.75 500.5 c 0,26,27
 200.5 495 200.5 495 210 485.75 c 0,28,29
 219.5 476.5 219.5 476.5 225 463.75 c 0,30,31
 230.5 451 230.5 451 230.5 437 c 0,0,1
155.5 56.5 m 0,32,33
 155.5 42 155.5 42 150 29.5 c 0,34,35
 144.5 17 144.5 17 135 7.75 c 0,36,37
 125.5 -1.5 125.5 -1.5 112.75 -7 c 0,38,39
 100 -12.5 100 -12.5 86 -12.5 c 0,40,41
 71.5 -12.5 71.5 -12.5 59.25 -7 c 0,42,43
 47 -1.5 47 -1.5 37.5 7.75 c 0,44,45
 28 17 28 17 22.75 29.5 c 0,46,47
 17.5 42 17.5 42 17.5 56.5 c 0,48,49
 17.5 70.5 17.5 70.5 22.75 83 c 0,50,51
 28 95.5 28 95.5 37.5 104.75 c 0,52,53
 47 114 47 114 59.25 119.5 c 0,54,55
 71.5 125 71.5 125 86 125 c 0,56,57
 100 125 100 125 112.75 119.5 c 0,58,59
 125.5 114 125.5 114 135 104.75 c 0,60,61
 144.5 95.5 144.5 95.5 150 83 c 0,62,63
 155.5 70.5 155.5 70.5 155.5 56.5 c 0,32,33
EndSplineSet
EndChar

StartChar: semicolon
Encoding: 30 59 30
Width: 286
VWidth: 500
Flags: W
LayerCount: 2
Fore
SplineSet
230.5 437 m 0,0,1
 230.5 423 230.5 423 225 410.5 c 0,2,3
 219.5 398 219.5 398 210 388.75 c 0,4,5
 200.5 379.5 200.5 379.5 187.75 374 c 0,6,7
 175 368.5 175 368.5 161 368.5 c 0,8,9
 146.5 368.5 146.5 368.5 134 374 c 0,10,11
 121.5 379.5 121.5 379.5 112.25 388.75 c 0,12,13
 103 398 103 398 97.5 410.5 c 0,14,15
 92 423 92 423 92 437 c 0,16,17
 92 451 92 451 97.5 463.75 c 0,18,19
 103 476.5 103 476.5 112.25 485.75 c 0,20,21
 121.5 495 121.5 495 134 500.5 c 0,22,23
 146.5 506 146.5 506 161 506 c 0,24,25
 175 506 175 506 187.75 500.5 c 0,26,27
 200.5 495 200.5 495 210 485.75 c 0,28,29
 219.5 476.5 219.5 476.5 225 463.75 c 0,30,31
 230.5 451 230.5 451 230.5 437 c 0,0,1
163 49 m 0,32,33
 163 5.5 163 5.5 144.5 -33.5 c 0,34,35
 126 -72.5 126 -72.5 95.25 -102.5 c 0,36,37
 64.5 -132.5 64.5 -132.5 25 -151.5 c 0,38,39
 -14.5 -170.5 -14.5 -170.5 -56.5 -174 c 0,40,-1
 -49 -137 l 0,41,42
 -17.5 -130.5 -17.5 -130.5 6.25 -119 c 0,43,44
 30 -107.5 30 -107.5 47.25 -90.25 c 0,45,46
 64.5 -73 64.5 -73 75.5 -49 c 0,47,48
 86.5 -25 86.5 -25 92 7 c 0,49,-1
 27.5 7 l 0,50,51
 22 14 22 14 19.75 23.75 c 0,52,53
 17.5 33.5 17.5 33.5 17.5 42 c 0,54,55
 17.5 57 17.5 57 24 71.75 c 0,56,57
 30.5 86.5 30.5 86.5 41.5 98.5 c 0,58,59
 52.5 110.5 52.5 110.5 66.75 117.75 c 0,60,61
 81 125 81 125 96.5 125 c 0,62,63
 114 125 114 125 126.75 119.25 c 0,64,65
 139.5 113.5 139.5 113.5 147.5 103.25 c 0,66,67
 155.5 93 155.5 93 159.25 79 c 0,68,69
 163 65 163 65 163 49 c 0,32,33
EndSplineSet
EndChar

StartChar: less
Encoding: 31 60 31
Width: 1024
VWidth: 500
Flags: W
LayerCount: 2
Fore
SplineSet
205 275.5 m 0,0,-1
 205 339 l 0,1,-1
 819 574.5 l 0,2,-1
 819 511 l 0,3,-1
 270.5 307 l 0,4,-1
 819 103.5 l 0,5,-1
 819 40 l 0,6,-1
 205 275.5 l 0,0,-1
EndSplineSet
EndChar

StartChar: equal
Encoding: 32 61 32
Width: 1024
VWidth: 500
Flags: W
LayerCount: 2
Fore
SplineSet
205 368.5 m 0,0,-1
 205 432 l 0,1,-1
 819 432 l 0,2,-1
 819 368.5 l 0,3,-1
 205 368.5 l 0,0,-1
205 182.5 m 0,4,-1
 205 246 l 0,5,-1
 819 246 l 0,6,-1
 819 182.5 l 0,7,-1
 205 182.5 l 0,4,-1
EndSplineSet
EndChar

StartChar: greater
Encoding: 33 62 33
Width: 1024
VWidth: 500
Flags: W
LayerCount: 2
Fore
SplineSet
205 40 m 0,0,-1
 205 103.5 l 0,1,-1
 753.5 307 l 0,2,-1
 205 511 l 0,3,-1
 205 574.5 l 0,4,-1
 819 339 l 0,5,-1
 819 275.5 l 0,6,-1
 205 40 l 0,0,-1
EndSplineSet
EndChar

StartChar: question
Encoding: 34 63 34
Width: 497
VWidth: 500
Flags: W
LayerCount: 2
Fore
SplineSet
474 556 m 0,0,1
 474 504.5 474 504.5 453.25 463.75 c 0,2,3
 432.5 423 432.5 423 399.25 391.25 c 0,4,5
 366 359.5 366 359.5 324.25 335.75 c 0,6,7
 282.5 312 282.5 312 240.5 295 c 0,8,-1
 217 173 l 0,9,-1
 148.5 173 l 0,10,-1
 176 325.5 l 0,11,12
 211 336.5 211 336.5 244.5 356.25 c 0,13,14
 278 376 278 376 304.25 403.75 c 0,15,16
 330.5 431.5 330.5 431.5 346.5 467.25 c 0,17,18
 362.5 503 362.5 503 362.5 546 c 0,19,20
 362.5 598.5 362.5 598.5 334 625.5 c 0,21,22
 305.5 652.5 305.5 652.5 256 652.5 c 0,23,-1
 193.5 551 l 0,24,-1
 164 551 l 0,25,26
 137.5 551 137.5 551 122.5 562 c 0,27,28
 107.5 573 107.5 573 107.5 593 c 0,29,30
 107.5 608 107.5 608 116.25 627.25 c 0,31,32
 125 646.5 125 646.5 146 663.25 c 0,33,34
 167 680 167 680 201.25 691.75 c 0,35,36
 235.5 703.5 235.5 703.5 286.5 703.5 c 0,37,38
 332 703.5 332 703.5 367 693.25 c 0,39,40
 402 683 402 683 425.75 663.75 c 0,41,42
 449.5 644.5 449.5 644.5 461.75 617.25 c 0,43,44
 474 590 474 590 474 556 c 0,0,1
232.5 45 m 0,45,46
 232.5 33 232.5 33 228.25 22 c 0,47,48
 224 11 224 11 215.5 2.5 c 0,49,50
 207 -6 207 -6 194.75 -11.25 c 0,51,52
 182.5 -16.5 182.5 -16.5 167 -16.5 c 0,53,54
 151 -16.5 151 -16.5 138.25 -11.5 c 0,55,56
 125.5 -6.5 125.5 -6.5 116.75 2 c 0,57,58
 108 10.5 108 10.5 103.25 21.25 c 0,59,60
 98.5 32 98.5 32 98.5 44 c 0,61,62
 98.5 56 98.5 56 103.25 67.25 c 0,63,64
 108 78.5 108 78.5 116.75 87.25 c 0,65,66
 125.5 96 125.5 96 138.25 101.25 c 0,67,68
 151 106.5 151 106.5 167 106.5 c 0,69,70
 182.5 106.5 182.5 106.5 194.75 101.5 c 0,71,72
 207 96.5 207 96.5 215.5 87.75 c 0,73,74
 224 79 224 79 228.25 68 c 0,75,76
 232.5 57 232.5 57 232.5 45 c 0,45,46
EndSplineSet
EndChar

StartChar: at
Encoding: 35 64 35
Width: 958
VWidth: 500
Flags: W
LayerCount: 2
Fore
SplineSet
895 382 m 0,0,1
 895 330 895 330 883.5 285.75 c 0,2,3
 872 241.5 872 241.5 852.75 205.5 c 0,4,5
 833.5 169.5 833.5 169.5 808 141.75 c 0,6,7
 782.5 114 782.5 114 754.5 95.25 c 0,8,9
 726.5 76.5 726.5 76.5 698 67 c 0,10,11
 669.5 57.5 669.5 57.5 644 57.5 c 0,12,13
 601.5 57.5 601.5 57.5 582.75 78.75 c 0,14,15
 564 100 564 100 564 142.5 c 0,16,17
 524 102 524 102 488.5 80.25 c 0,18,19
 453 58.5 453 58.5 417 58.5 c 0,20,21
 389 58.5 389 58.5 365.5 70.25 c 0,22,23
 342 82 342 82 325 103.75 c 0,24,25
 308 125.5 308 125.5 298.5 156.25 c 0,26,27
 289 187 289 187 289 225.5 c 0,28,29
 289 284 289 284 310.5 335 c 0,30,31
 332 386 332 386 367.5 423.5 c 0,32,33
 403 461 403 461 448.5 482.5 c 0,34,35
 494 504 494 504 542.5 504 c 0,36,37
 553.5 504 553.5 504 566.5 502 c 0,38,39
 579.5 500 579.5 500 592.75 496.25 c 0,40,41
 606 492.5 606 492.5 619 487.25 c 0,42,43
 632 482 632 482 643 476 c 0,44,-1
 661.5 499.5 l 0,45,-1
 720 499.5 l 0,46,47
 719 496.5 719 496.5 715.5 481.75 c 0,48,49
 712 467 712 467 706.75 445.25 c 0,50,51
 701.5 423.5 701.5 423.5 695.25 396.25 c 0,52,53
 689 369 689 369 682.5 341.5 c 0,54,55
 667.5 276.5 667.5 276.5 649 195.5 c 0,56,57
 645 178 645 178 645 163.25 c 0,58,59
 645 148.5 645 148.5 649.5 138 c 0,60,61
 654 127.5 654 127.5 663.25 121.5 c 0,62,63
 672.5 115.5 672.5 115.5 687 115.5 c 0,64,65
 702 115.5 702 115.5 719.75 123.75 c 0,66,67
 737.5 132 737.5 132 755 148 c 0,68,69
 772.5 164 772.5 164 788.75 187 c 0,70,71
 805 210 805 210 817.5 239.5 c 0,72,73
 830 269 830 269 837.5 304.5 c 0,74,75
 845 340 845 340 845 381 c 0,76,77
 845 429 845 429 833.75 468.75 c 0,78,79
 822.5 508.5 822.5 508.5 802.5 539.75 c 0,80,81
 782.5 571 782.5 571 755.25 594 c 0,82,83
 728 617 728 617 696 632.25 c 0,84,85
 664 647.5 664 647.5 628.5 655 c 0,86,87
 593 662.5 593 662.5 557 662.5 c 0,88,89
 498.5 662.5 498.5 662.5 446.25 648.75 c 0,90,91
 394 635 394 635 349.75 609.75 c 0,92,93
 305.5 584.5 305.5 584.5 269.75 548.5 c 0,94,95
 234 512.5 234 512.5 209.25 468 c 0,96,97
 184.5 423.5 184.5 423.5 171 371.75 c 0,98,99
 157.5 320 157.5 320 157.5 263 c 0,100,101
 157.5 185 157.5 185 181.75 117.5 c 0,102,103
 206 50 206 50 252 0.5 c 0,104,105
 298 -49 298 -49 364.5 -77.25 c 0,106,107
 431 -105.5 431 -105.5 516 -105.5 c 0,108,109
 561 -105.5 561 -105.5 600.25 -98.5 c 0,110,111
 639.5 -91.5 639.5 -91.5 673.25 -80.5 c 0,112,113
 707 -69.5 707 -69.5 735.5 -56 c 0,114,115
 764 -42.5 764 -42.5 787.5 -29.5 c 0,116,-1
 802 -66.5 l 0,117,118
 767.5 -85 767.5 -85 731.25 -101.25 c 0,119,120
 695 -117.5 695 -117.5 656.75 -129.75 c 0,121,122
 618.5 -142 618.5 -142 577.25 -149.25 c 0,123,124
 536 -156.5 536 -156.5 491.5 -156.5 c 0,125,126
 436.5 -156.5 436.5 -156.5 385.25 -144 c 0,127,128
 334 -131.5 334 -131.5 288.75 -107.75 c 0,129,130
 243.5 -84 243.5 -84 206 -49.25 c 0,131,132
 168.5 -14.5 168.5 -14.5 141.75 30 c 0,133,134
 115 74.5 115 74.5 100 128.5 c 0,135,136
 85 182.5 85 182.5 85 244.5 c 0,137,138
 85 320.5 85 320.5 103.25 384.25 c 0,139,140
 121.5 448 121.5 448 153.5 499.5 c 0,141,142
 185.5 551 185.5 551 229.25 590 c 0,143,144
 273 629 273 629 324.25 655 c 0,145,146
 375.5 681 375.5 681 431.75 694.25 c 0,147,148
 488 707.5 488 707.5 545 707.5 c 0,149,150
 621 707.5 621 707.5 685.25 686.25 c 0,151,152
 749.5 665 749.5 665 796 623.75 c 0,153,154
 842.5 582.5 842.5 582.5 868.75 521.75 c 0,155,156
 895 461 895 461 895 382 c 0,0,1
608.5 402.5 m 0,157,158
 610 409 610 409 605.75 419 c 0,159,160
 601.5 429 601.5 429 593.25 438.25 c 0,161,162
 585 447.5 585 447.5 573.25 454.25 c 0,163,164
 561.5 461 561.5 461 548 461 c 0,165,166
 510 461 510 461 479.5 443.25 c 0,167,168
 449 425.5 449 425.5 427.5 394.75 c 0,169,170
 406 364 406 364 394.5 322.75 c 0,171,172
 383 281.5 383 281.5 383 234.5 c 0,173,174
 383 179 383 179 403.5 151.5 c 0,175,176
 424 124 424 124 463 124 c 0,177,178
 480 124 480 124 495.5 130.75 c 0,179,180
 511 137.5 511 137.5 524.25 147.5 c 0,181,182
 537.5 157.5 537.5 157.5 548.5 169 c 0,183,184
 559.5 180.5 559.5 180.5 567.5 190.5 c 0,185,-1
 608.5 402.5 l 0,157,158
EndSplineSet
EndChar

StartChar: A
Encoding: 36 65 36
Width: 689
VWidth: 500
Flags: W
LayerCount: 2
Fore
SplineSet
400.5 0 m 0,0,-1
 400.5 43 l 0,1,-1
 447.5 48 l 0,2,3
 470 51 470 51 467 67.5 c 0,4,-1
 436 263 l 0,5,-1
 204 263 l 0,6,-1
 99.5 67.5 l 0,7,8
 94 57.5 94 57.5 99.25 53.5 c 0,9,10
 104.5 49.5 104.5 49.5 119 48 c 0,11,-1
 166 43 l 0,12,-1
 166 0 l 0,13,-1
 -54.5 0 l 0,14,-1
 -54.5 43 l 0,15,-1
 3 49 l 0,16,-1
 381 703.5 l 0,17,-1
 463 703.5 l 0,18,-1
 573.5 67.5 l 0,19,20
 575 57.5 575 57.5 579 53.25 c 0,21,22
 583 49 583 49 594 48 c 0,23,-1
 641 43 l 0,24,-1
 641 0 l 0,25,-1
 400.5 0 l 0,0,-1
383 577.5 m 0,26,-1
 231.5 311.5 l 0,27,-1
 427 311.5 l 0,28,-1
 383 577.5 l 0,26,-1
EndSplineSet
EndChar

StartChar: B
Encoding: 37 66 37
Width: 621
VWidth: 500
Flags: W
LayerCount: 2
Fore
SplineSet
474 549 m 0,0,1
 474 597.5 474 597.5 437.25 620.25 c 0,2,3
 400.5 643 400.5 643 335 643 c 0,4,5
 319 643 319 643 305 642 c 0,6,7
 291 641 291 641 282.5 640 c 0,8,-1
 232.5 380 l 0,9,10
 238.5 379.5 238.5 379.5 245 379 c 0,11,-1
 258.5 378.5 l 0,12,13
 265.5 378.5 265.5 378.5 271.25 378.25 c 0,14,15
 277 378 277 378 280.5 378 c 0,16,17
 328.5 378 328.5 378 364.75 391.75 c 0,18,19
 401 405.5 401 405.5 425.25 428.75 c 0,20,21
 449.5 452 449.5 452 461.75 483.25 c 0,22,23
 474 514.5 474 514.5 474 549 c 0,0,1
455.5 219 m 0,24,25
 455.5 250.5 455.5 250.5 444.5 272.25 c 0,26,27
 433.5 294 433.5 294 413.25 307.5 c 0,28,29
 393 321 393 321 364 327 c 0,30,31
 335 333 335 333 299 333 c 0,32,33
 280 333 280 333 259.5 331.5 c 0,34,35
 239 330 239 330 222 327.5 c 0,36,-1
 168 49 l 0,37,38
 174 48.5 174 48.5 182.25 48 c 0,39,40
 190.5 47.5 190.5 47.5 199.25 47 c 0,41,42
 208 46.5 208 46.5 216.5 46.25 c 0,43,44
 225 46 225 46 231.5 46 c 0,45,46
 341.5 46 341.5 46 398.5 91.75 c 0,47,48
 455.5 137.5 455.5 137.5 455.5 219 c 0,24,25
588 556 m 0,49,50
 588 516.5 588 516.5 574.5 486 c 0,51,52
 561 455.5 561 455.5 537.75 432.75 c 0,53,54
 514.5 410 514.5 410 483.25 393.5 c 0,55,56
 452 377 452 377 417 365.5 c 0,57,58
 450.5 361 450.5 361 478 351.75 c 0,59,60
 505.5 342.5 505.5 342.5 525.5 326.5 c 0,61,62
 545.5 310.5 545.5 310.5 556.5 286.75 c 0,63,64
 567.5 263 567.5 263 567.5 229.5 c 0,65,66
 567.5 166.5 567.5 166.5 544.5 122.75 c 0,67,68
 521.5 79 521.5 79 480.75 51.75 c 0,69,70
 440 24.5 440 24.5 384.75 12.25 c 0,71,72
 329.5 0 329.5 0 265 0 c 0,73,-1
 -15.5 0 l 0,74,-1
 -15.5 43 l 0,75,-1
 49 48 l 0,76,77
 58.5 49 58.5 49 62.75 53.75 c 0,78,79
 67 58.5 67 58.5 68.5 67.5 c 0,80,-1
 175 618.5 l 0,81,82
 176.5 627 176.5 627 172.5 632.5 c 0,83,84
 168.5 638 168.5 638 154.5 639 c 0,85,-1
 97.5 644 l 0,86,-1
 97.5 687 l 0,87,-1
 385 687 l 0,88,89
 440.5 687 440.5 687 479.25 677.75 c 0,90,91
 518 668.5 518 668.5 542.25 651.25 c 0,92,93
 566.5 634 566.5 634 577.25 609.75 c 0,94,95
 588 585.5 588 585.5 588 556 c 0,49,50
EndSplineSet
EndChar

StartChar: C
Encoding: 38 67 38
Width: 645
VWidth: 500
Flags: W
LayerCount: 2
Fore
SplineSet
632 503 m 0,0,-1
 571.5 503 l 0,1,-1
 571.5 598 l 0,2,3
 571.5 606 571.5 606 565.75 614.5 c 0,4,5
 560 623 560 623 553 625.5 c 0,6,7
 551 626.5 551 626.5 544 630.75 c 0,8,9
 537 635 537 635 525.75 639.5 c 0,10,11
 514.5 644 514.5 644 499.5 647.75 c 0,12,13
 484.5 651.5 484.5 651.5 466 651.5 c 0,14,15
 426.5 651.5 426.5 651.5 388.5 639 c 0,16,17
 350.5 626.5 350.5 626.5 316.25 603 c 0,18,19
 282 579.5 282 579.5 253 545.5 c 0,20,21
 224 511.5 224 511.5 202.75 468.25 c 0,22,23
 181.5 425 181.5 425 169.5 373 c 0,24,25
 157.5 321 157.5 321 157.5 262 c 0,26,27
 157.5 204 157.5 204 174.25 161.5 c 0,28,29
 191 119 191 119 219.5 91 c 0,30,31
 248 63 248 63 286.25 49.5 c 0,32,33
 324.5 36 324.5 36 367.5 36 c 0,34,35
 384 36 384 36 397.5 38.25 c 0,36,37
 411 40.5 411 40.5 420.75 43.5 c 0,38,39
 430.5 46.5 430.5 46.5 436.5 49.25 c 0,40,41
 442.5 52 442.5 52 444.5 53 c 0,42,43
 450.5 54 450.5 54 457.75 60.25 c 0,44,45
 465 66.5 465 66.5 468 73.5 c 0,46,-1
 512 190.5 l 0,47,-1
 572.5 190.5 l 0,48,-1
 545 24.5 l 0,49,50
 539 22.5 539 22.5 519.25 16 c 0,51,52
 499.5 9.5 499.5 9.5 470.75 2.25 c 0,53,54
 442 -5 442 -5 406.5 -10.75 c 0,55,56
 371 -16.5 371 -16.5 334 -16.5 c 0,57,58
 283 -16.5 283 -16.5 242 -5 c 0,59,60
 201 6.5 201 6.5 169.5 26.5 c 0,61,62
 138 46.5 138 46.5 115 74 c 0,63,64
 92 101.5 92 101.5 77.5 133.75 c 0,65,66
 63 166 63 166 56 201.5 c 0,67,68
 49 237 49 237 49 273.5 c 0,69,70
 49 328 49 328 62.5 381 c 0,71,72
 76 434 76 434 101.5 481.75 c 0,73,74
 127 529.5 127 529.5 163.5 570.25 c 0,75,76
 200 611 200 611 245.75 640.5 c 0,77,78
 291.5 670 291.5 670 345.75 686.75 c 0,79,80
 400 703.5 400 703.5 461 703.5 c 0,81,82
 486 703.5 486 703.5 509 700.75 c 0,83,84
 532 698 532 698 555.5 692.75 c 0,85,86
 579 687.5 579 687.5 604.5 679.75 c 0,87,88
 630 672 630 672 659.5 662.5 c 0,89,-1
 632 503 l 0,0,-1
EndSplineSet
EndChar

StartChar: D
Encoding: 39 68 39
Width: 687
VWidth: 500
Flags: W
LayerCount: 2
Fore
SplineSet
668.5 425 m 0,0,1
 668.5 362 668.5 362 654 306 c 0,2,3
 639.5 250 639.5 250 612 202.75 c 0,4,5
 584.5 155.5 584.5 155.5 545.25 118 c 0,6,7
 506 80.5 506 80.5 456.75 54.25 c 0,8,9
 407.5 28 407.5 28 349.25 14 c 0,10,11
 291 0 291 0 225.5 0 c 0,12,-1
 -15.5 0 l 0,13,-1
 -15.5 43 l 0,14,-1
 48 48 l 0,15,16
 58 49 58 49 62 53.75 c 0,17,18
 66 58.5 66 58.5 68.5 67.5 c 0,19,-1
 175 618.5 l 0,20,21
 176.5 627 176.5 627 172.5 632.5 c 0,22,23
 168.5 638 168.5 638 154.5 639 c 0,24,-1
 97.5 644 l 0,25,-1
 97.5 687 l 0,26,-1
 342 687 l 0,27,28
 412 687 412 687 471.75 673.5 c 0,29,30
 531.5 660 531.5 660 575.25 629 c 0,31,32
 619 598 619 598 643.75 548 c 0,33,34
 668.5 498 668.5 498 668.5 425 c 0,0,1
558 434 m 0,35,36
 558 498 558 498 538.5 537 c 0,37,38
 519 576 519 576 486 597.5 c 0,39,40
 453 619 453 619 409.5 626.75 c 0,41,42
 366 634.5 366 634.5 318.5 636 c 0,43,-1
 281.5 636 l 0,44,-1
 169 53 l 0,45,-1
 243.5 53 l 0,46,47
 321 54 321 54 380 86.25 c 0,48,49
 439 118.5 439 118.5 478.5 171.5 c 0,50,51
 518 224.5 518 224.5 538 292.75 c 0,52,53
 558 361 558 361 558 434 c 0,35,36
EndSplineSet
EndChar

StartChar: E
Encoding: 40 69 40
Width: 571
VWidth: 500
Flags: W
LayerCount: 2
Fore
SplineSet
563 533.5 m 0,0,-1
 497.5 533.5 l 0,1,-1
 497.5 616.5 l 0,2,3
 497.5 627.5 497.5 627.5 493.5 631.75 c 0,4,5
 489.5 636 489.5 636 478 636 c 0,6,-1
 281.5 636 l 0,7,-1
 234.5 384 l 0,8,-1
 371.5 384 l 0,9,10
 382.5 384 382.5 384 388.25 388.25 c 0,11,12
 394 392.5 394 392.5 397.5 403.5 c 0,13,-1
 417 472 l 0,14,-1
 474 472 l 0,15,-1
 429 237.5 l 0,16,-1
 370.5 237.5 l 0,17,-1
 381 310.5 l 0,18,19
 384 331 384 331 361.5 331 c 0,20,-1
 223 331 l 0,21,-1
 170 51 l 0,22,-1
 410.5 51 l 0,23,24
 421.5 51 421.5 51 427.25 56.75 c 0,25,26
 433 62.5 433 62.5 436 71.5 c 0,27,-1
 468 170 l 0,28,-1
 530.5 170 l 0,29,-1
 496.5 0 l 0,30,-1
 -15.5 0 l 0,31,-1
 -15.5 43 l 0,32,-1
 44 48 l 0,33,34
 65.5 49.5 65.5 49.5 68.5 67.5 c 0,35,-1
 175 618.5 l 0,36,37
 176.5 627 176.5 627 172.5 632.5 c 0,38,39
 168.5 638 168.5 638 155.5 639 c 0,40,-1
 98.5 644 l 0,41,-1
 98.5 687 l 0,42,-1
 594 687 l 0,43,-1
 563 533.5 l 0,0,-1
EndSplineSet
EndChar

StartChar: F
Encoding: 41 70 41
Width: 526
VWidth: 500
Flags: W
LayerCount: 2
Fore
SplineSet
551 522 m 0,0,-1
 485.5 522 l 0,1,-1
 485.5 616.5 l 0,2,3
 485.5 627.5 485.5 627.5 481 631.75 c 0,4,5
 476.5 636 476.5 636 465 636 c 0,6,-1
 281.5 636 l 0,7,-1
 231.5 372.5 l 0,8,-1
 362.5 372.5 l 0,9,10
 373.5 372.5 373.5 372.5 379 377 c 0,11,12
 384.5 381.5 384.5 381.5 387 392 c 0,13,-1
 406.5 462 l 0,14,-1
 465 462 l 0,15,-1
 420 228.5 l 0,16,-1
 361.5 228.5 l 0,17,-1
 371.5 300 l 0,18,19
 373.5 310 373.5 310 367.75 315.25 c 0,20,21
 362 320.5 362 320.5 351 320.5 c 0,22,-1
 221 320.5 l 0,23,-1
 172 67.5 l 0,24,25
 170.5 60 170.5 60 174.5 54.5 c 0,26,27
 178.5 49 178.5 49 191.5 48 c 0,28,-1
 258 43 l 0,29,-1
 258 0 l 0,30,-1
 -15.5 0 l 0,31,-1
 -15.5 43 l 0,32,-1
 43 48 l 0,33,34
 64 49.5 64 49.5 68.5 67.5 c 0,35,-1
 175 618.5 l 0,36,37
 176.5 627 176.5 627 172.5 632.5 c 0,38,39
 168.5 638 168.5 638 154.5 639 c 0,40,-1
 97.5 644 l 0,41,-1
 97.5 687 l 0,42,-1
 582.5 687 l 0,43,-1
 551 522 l 0,0,-1
EndSplineSet
EndChar

StartChar: G
Encoding: 42 71 42
Width: 704
VWidth: 500
Flags: W
LayerCount: 2
Fore
SplineSet
633 283.5 m 0,0,1
 623 282.5 623 282.5 616.25 278.25 c 0,2,3
 609.5 274 609.5 274 607 264 c 0,4,-1
 561 23.5 l 0,5,6
 556 22 556 22 543.5 18.75 c 0,7,8
 531 15.5 531 15.5 513.5 11 c 0,9,10
 496 6.5 496 6.5 474.75 1.75 c 0,11,12
 453.5 -3 453.5 -3 430.5 -7.25 c 0,13,14
 407.5 -11.5 407.5 -11.5 384.25 -14 c 0,15,16
 361 -16.5 361 -16.5 340 -16.5 c 0,17,18
 281.5 -16.5 281.5 -16.5 237.25 -3 c 0,19,20
 193 10.5 193 10.5 160.75 33.25 c 0,21,22
 128.5 56 128.5 56 107 85.75 c 0,23,24
 85.5 115.5 85.5 115.5 72.5 148 c 0,25,26
 59.5 180.5 59.5 180.5 54.25 213 c 0,27,28
 49 245.5 49 245.5 49 274.5 c 0,29,30
 49 340 49 340 66.5 397.25 c 0,31,32
 84 454.5 84 454.5 114.75 502.25 c 0,33,34
 145.5 550 145.5 550 187.25 587.25 c 0,35,36
 229 624.5 229 624.5 278.25 650.5 c 0,37,38
 327.5 676.5 327.5 676.5 381.5 690 c 0,39,40
 435.5 703.5 435.5 703.5 490.5 703.5 c 0,41,42
 515.5 703.5 515.5 703.5 537.25 701.5 c 0,43,44
 559 699.5 559 699.5 581 695.25 c 0,45,46
 603 691 603 691 627.25 684.25 c 0,47,48
 651.5 677.5 651.5 677.5 681 668.5 c 0,49,-1
 649 504 l 0,50,-1
 579.5 504 l 0,51,-1
 582.5 598 l 0,52,53
 583.5 609.5 583.5 609.5 578 616.75 c 0,54,55
 572.5 624 572.5 624 563 626.5 c 0,56,57
 561 627 561 627 554.5 630.5 c 0,58,59
 548 634 548 634 537.25 638 c 0,60,61
 526.5 642 526.5 642 511.5 645 c 0,62,63
 496.5 648 496.5 648 478 648 c 0,64,65
 439.5 648 439.5 648 401.25 635.5 c 0,66,67
 363 623 363 623 327.75 599.5 c 0,68,69
 292.5 576 292.5 576 262.25 541.75 c 0,70,71
 232 507.5 232 507.5 209.75 464.25 c 0,72,73
 187.5 421 187.5 421 174.75 369 c 0,74,75
 162 317 162 317 162 258 c 0,76,77
 162 216.5 162 216.5 171.5 184.25 c 0,78,79
 181 152 181 152 197 127.5 c 0,80,81
 213 103 213 103 233.5 86 c 0,82,83
 254 69 254 69 276 58.25 c 0,84,85
 298 47.5 298 47.5 320 42.75 c 0,86,87
 342 38 342 38 360.5 38 c 0,88,89
 376 38 376 38 391.75 40 c 0,90,91
 407.5 42 407.5 42 421.5 45 c 0,92,93
 435.5 48 435.5 48 446.75 51 c 0,94,95
 458 54 458 54 464 55.5 c 0,96,-1
 504 264 l 0,97,98
 505.5 272.5 505.5 272.5 501.5 277.5 c 0,99,100
 497.5 282.5 497.5 282.5 483.5 283.5 c 0,101,-1
 427 289 l 0,102,-1
 427 332 l 0,103,-1
 691 332 l 0,104,-1
 691 289 l 0,105,-1
 633 283.5 l 0,0,1
EndSplineSet
EndChar

StartChar: H
Encoding: 43 72 43
Width: 742
VWidth: 500
Flags: W
LayerCount: 2
Fore
SplineSet
726 639 m 0,0,1
 716.5 638 716.5 638 710.25 633.25 c 0,2,3
 704 628.5 704 628.5 701.5 618.5 c 0,4,-1
 595 67.5 l 0,5,6
 593.5 60 593.5 60 597.5 54.5 c 0,7,8
 601.5 49 601.5 49 615.5 48 c 0,9,-1
 673 43 l 0,10,-1
 673 0 l 0,11,-1
 405.5 0 l 0,12,-1
 405.5 43 l 0,13,-1
 467 48 l 0,14,15
 476 49 476 49 483 53.75 c 0,16,17
 490 58.5 490 58.5 491.5 67.5 c 0,18,-1
 542.5 334 l 0,19,-1
 223 334 l 0,20,-1
 172 67.5 l 0,21,22
 170.5 60 170.5 60 174.5 54.5 c 0,23,24
 178.5 49 178.5 49 191.5 48 c 0,25,-1
 251 43 l 0,26,-1
 251 0 l 0,27,-1
 -15.5 0 l 0,28,-1
 -15.5 43 l 0,29,-1
 43 48 l 0,30,31
 64 49.5 64 49.5 68.5 67.5 c 0,32,-1
 175 618.5 l 0,33,34
 176.5 627 176.5 627 172.5 632.5 c 0,35,36
 168.5 638 168.5 638 154.5 639 c 0,37,-1
 97.5 644 l 0,38,-1
 97.5 687 l 0,39,-1
 363.5 687 l 0,40,-1
 363.5 644 l 0,41,-1
 303 639 l 0,42,43
 294 638 294 638 287 633.25 c 0,44,45
 280 628.5 280 628.5 278.5 618.5 c 0,46,-1
 233.5 385 l 0,47,-1
 553 385 l 0,48,-1
 598 618.5 l 0,49,50
 599.5 627 599.5 627 595.5 632.5 c 0,51,52
 591.5 638 591.5 638 577.5 639 c 0,53,-1
 519 644 l 0,54,-1
 519 687 l 0,55,-1
 785.5 687 l 0,56,-1
 785.5 644 l 0,57,-1
 726 639 l 0,0,1
EndSplineSet
EndChar

StartChar: I
Encoding: 44 73 44
Width: 321
VWidth: 500
Flags: W
LayerCount: 2
Fore
SplineSet
299 639 m 0,0,1
 289 638 289 638 285 633.25 c 0,2,3
 281 628.5 281 628.5 278.5 618.5 c 0,4,-1
 172 67.5 l 0,5,6
 170.5 60 170.5 60 174.5 54.5 c 0,7,8
 178.5 49 178.5 49 192.5 48 c 0,9,-1
 252 43 l 0,10,-1
 252 0 l 0,11,-1
 -15.5 0 l 0,12,-1
 -15.5 43 l 0,13,-1
 49 48 l 0,14,15
 58.5 49 58.5 49 62.75 53.75 c 0,16,17
 67 58.5 67 58.5 68.5 67.5 c 0,18,-1
 175 618.5 l 0,19,20
 176.5 627 176.5 627 172.5 632.5 c 0,21,22
 168.5 638 168.5 638 155.5 639 c 0,23,-1
 98.5 644 l 0,24,-1
 98.5 687 l 0,25,-1
 364.5 687 l 0,26,-1
 364.5 644 l 0,27,-1
 299 639 l 0,0,1
EndSplineSet
EndChar

StartChar: J
Encoding: 45 74 45
Width: 479
VWidth: 500
Flags: W
LayerCount: 2
Fore
SplineSet
461 639 m 0,0,1
 440 637.5 440 637.5 435 618.5 c 0,2,-1
 369.5 262 l 0,3,4
 358 198.5 358 198.5 341.5 147 c 0,5,6
 325 95.5 325 95.5 296.5 59.25 c 0,7,8
 268 23 268 23 224.25 3.25 c 0,9,10
 180.5 -16.5 180.5 -16.5 114.5 -16.5 c 0,11,12
 84.5 -16.5 84.5 -16.5 61 -12.5 c 0,13,14
 37.5 -8.5 37.5 -8.5 20.75 -3.25 c 0,15,16
 4 2 4 2 -6.25 7.25 c 0,17,18
 -16.5 12.5 -16.5 12.5 -20.5 14.5 c 0,19,-1
 13.5 189.5 l 0,20,-1
 81 189.5 l 0,21,-1
 81 64.5 l 0,22,23
 81 51.5 81 51.5 93.5 44.25 c 0,24,25
 106 37 106 37 122 37 c 0,26,27
 154.5 37 154.5 37 177.5 51.5 c 0,28,29
 200.5 66 200.5 66 216.5 93.5 c 0,30,31
 232.5 121 232.5 121 243.75 161.25 c 0,32,33
 255 201.5 255 201.5 264 253 c 0,34,-1
 332 618.5 l 0,35,36
 333.5 627 333.5 627 329.5 632.5 c 0,37,38
 325.5 638 325.5 638 312.5 639 c 0,39,-1
 253 644 l 0,40,-1
 253 687 l 0,41,-1
 519 687 l 0,42,-1
 519 644 l 0,43,-1
 461 639 l 0,0,1
EndSplineSet
EndChar

StartChar: K
Encoding: 46 75 46
Width: 671
VWidth: 500
Flags: W
LayerCount: 2
Fore
SplineSet
622.5 636 m 0,0,-1
 354.5 377 l 0,1,-1
 496.5 101.5 l 0,2,3
 506 82.5 506 82.5 514.75 70.75 c 0,4,5
 523.5 59 523.5 59 533 52.25 c 0,6,7
 542.5 45.5 542.5 45.5 553.25 43.25 c 0,8,9
 564 41 564 41 577.5 41 c 0,10,11
 587 41 587 41 597.5 41.5 c 0,12,13
 608 42 608 42 620.5 43 c 0,14,-1
 620.5 0 l 0,15,16
 596.5 -7 596.5 -7 570.5 -11.75 c 0,17,18
 544.5 -16.5 544.5 -16.5 524.5 -16.5 c 0,19,20
 502 -16.5 502 -16.5 485.25 -13 c 0,21,22
 468.5 -9.5 468.5 -9.5 454.5 -0.75 c 0,23,24
 440.5 8 440.5 8 429 22.5 c 0,25,26
 417.5 37 417.5 37 405.5 59.5 c 0,27,-1
 279.5 302 l 0,28,-1
 217 302 l 0,29,-1
 171 67.5 l 0,30,31
 169.5 60 169.5 60 174 54.5 c 0,32,33
 178.5 49 178.5 49 191.5 48 c 0,34,-1
 251 43 l 0,35,-1
 251 0 l 0,36,-1
 -16.5 0 l 0,37,-1
 -16.5 43 l 0,38,-1
 43 48 l 0,39,40
 64.5 49.5 64.5 49.5 67.5 67.5 c 0,41,-1
 175 618.5 l 0,42,43
 176.5 627 176.5 627 172.5 632.5 c 0,44,45
 168.5 638 168.5 638 155.5 639 c 0,46,-1
 98.5 644 l 0,47,-1
 98.5 687 l 0,48,-1
 364.5 687 l 0,49,-1
 364.5 644 l 0,50,-1
 304 639 l 0,51,52
 294 638 294 638 287.5 633.25 c 0,53,54
 281 628.5 281 628.5 278.5 618.5 c 0,55,-1
 226.5 350 l 0,56,-1
 243.5 350 l 0,57,-1
 516 618.5 l 0,58,59
 522.5 624.5 522.5 624.5 521.25 631.25 c 0,60,61
 520 638 520 638 509 639 c 0,62,-1
 443.5 644 l 0,63,-1
 443.5 687 l 0,64,-1
 708.5 687 l 0,65,-1
 708.5 644 l 0,66,-1
 622.5 636 l 0,0,-1
EndSplineSet
EndChar

StartChar: L
Encoding: 47 76 47
Width: 530
VWidth: 500
Flags: W
LayerCount: 2
Fore
SplineSet
457.5 0 m 0,0,-1
 -15.5 0 l 0,1,-1
 -15.5 43 l 0,2,-1
 44 48 l 0,3,4
 65.5 49.5 65.5 49.5 68.5 67.5 c 0,5,-1
 175 618.5 l 0,6,7
 176.5 627 176.5 627 172.5 632.5 c 0,8,9
 168.5 638 168.5 638 155.5 639 c 0,10,-1
 98.5 644 l 0,11,-1
 98.5 687 l 0,12,-1
 364.5 687 l 0,13,-1
 364.5 644 l 0,14,-1
 304 639 l 0,15,16
 292.5 638 292.5 638 286.25 632 c 0,17,18
 280 626 280 626 278.5 618.5 c 0,19,-1
 170 51 l 0,20,-1
 371.5 51 l 0,21,22
 381.5 51 381.5 51 387.75 56.75 c 0,23,24
 394 62.5 394 62.5 397.5 71.5 c 0,25,-1
 434 189.5 l 0,26,-1
 494.5 189.5 l 0,27,-1
 457.5 0 l 0,0,-1
EndSplineSet
EndChar

StartChar: M
Encoding: 48 77 48
Width: 882
VWidth: 500
Flags: W
LayerCount: 2
Fore
SplineSet
866.5 639 m 0,0,1
 845.5 637.5 845.5 637.5 840.5 618.5 c 0,2,-1
 735 67.5 l 0,3,4
 733.5 60 733.5 60 737.75 54.5 c 0,5,6
 742 49 742 49 755.5 48 c 0,7,-1
 813 43 l 0,8,-1
 813 0 l 0,9,-1
 547 0 l 0,10,-1
 547 43 l 0,11,-1
 607 48 l 0,12,13
 616.5 49 616.5 49 623.5 53.75 c 0,14,15
 630.5 58.5 630.5 58.5 632 67.5 c 0,16,-1
 731 587 l 0,17,-1
 402.5 0 l 0,18,-1
 341 0 l 0,19,-1
 238.5 581.5 l 0,20,-1
 143.5 67.5 l 0,21,22
 142 60 142 60 146 54.5 c 0,23,24
 150 49 150 49 163 48 c 0,25,-1
 220 43 l 0,26,-1
 220 0 l 0,27,-1
 -14.5 0 l 0,28,-1
 -14.5 43 l 0,29,-1
 44 48 l 0,30,31
 65 49.5 65 49.5 69.5 67.5 c 0,32,-1
 175 618.5 l 0,33,34
 176.5 627 176.5 627 172.5 632.5 c 0,35,36
 168.5 638 168.5 638 154.5 639 c 0,37,-1
 97.5 644 l 0,38,-1
 97.5 687 l 0,39,-1
 326.5 687 l 0,40,-1
 326.5 658.5 l 0,41,-1
 414.5 163 l 0,42,-1
 688 653.5 l 0,43,-1
 688 687 l 0,44,-1
 924.5 687 l 0,45,-1
 924.5 644 l 0,46,-1
 866.5 639 l 0,0,1
EndSplineSet
EndChar

StartChar: N
Encoding: 49 78 49
Width: 728
VWidth: 500
Flags: W
LayerCount: 2
Fore
SplineSet
715 639 m 0,0,1
 705 638 705 638 698.25 633.25 c 0,2,3
 691.5 628.5 691.5 628.5 689 618.5 c 0,4,-1
 568.5 0 l 0,5,-1
 494.5 0 l 0,6,-1
 236.5 543.5 l 0,7,-1
 145.5 67.5 l 0,8,9
 144 60 144 60 148 54.5 c 0,10,11
 152 49 152 49 166 48 c 0,12,-1
 223 43 l 0,13,-1
 223 0 l 0,14,-1
 -14.5 0 l 0,15,-1
 -14.5 43 l 0,16,-1
 44 48 l 0,17,18
 65 49.5 65 49.5 69.5 67.5 c 0,19,-1
 175 618.5 l 0,20,21
 176.5 627 176.5 627 172.5 632.5 c 0,22,23
 168.5 638 168.5 638 155.5 639 c 0,24,-1
 98.5 644 l 0,25,-1
 98.5 687 l 0,26,-1
 296 687 l 0,27,-1
 296 660.5 l 0,28,-1
 526.5 172 l 0,29,-1
 613.5 618.5 l 0,30,31
 615 627 615 627 611 632.5 c 0,32,33
 607 638 607 638 594 639 c 0,34,-1
 535.5 644 l 0,35,-1
 535.5 687 l 0,36,-1
 773 687 l 0,37,-1
 773 644 l 0,38,-1
 715 639 l 0,0,1
EndSplineSet
EndChar

StartChar: O
Encoding: 50 79 50
Width: 727
VWidth: 500
Flags: W
LayerCount: 2
Fore
SplineSet
707.5 427 m 0,0,1
 707.5 373 707.5 373 696 319.25 c 0,2,3
 684.5 265.5 684.5 265.5 662.5 216 c 0,4,5
 640.5 166.5 640.5 166.5 608 124.25 c 0,6,7
 575.5 82 575.5 82 533.25 50.5 c 0,8,9
 491 19 491 19 439.25 1.25 c 0,10,11
 387.5 -16.5 387.5 -16.5 327.5 -16.5 c 0,12,13
 266 -16.5 266 -16.5 215 3.75 c 0,14,15
 164 24 164 24 127 61.5 c 0,16,17
 90 99 90 99 69.5 151.5 c 0,18,19
 49 204 49 204 49 268.5 c 0,20,21
 49 323.5 49 323.5 61.5 377 c 0,22,23
 74 430.5 74 430.5 97.75 479 c 0,24,25
 121.5 527.5 121.5 527.5 155.25 568.5 c 0,26,27
 189 609.5 189 609.5 231.25 639.5 c 0,28,29
 273.5 669.5 273.5 669.5 323.75 686.5 c 0,30,31
 374 703.5 374 703.5 430 703.5 c 0,32,33
 493.5 703.5 493.5 703.5 545 681.75 c 0,34,35
 596.5 660 596.5 660 632.5 622.5 c 0,36,37
 668.5 585 668.5 585 688 534.5 c 0,38,39
 707.5 484 707.5 484 707.5 427 c 0,0,1
591 427 m 0,40,41
 591 478 591 478 578.25 519.5 c 0,42,43
 565.5 561 565.5 561 542.75 590.75 c 0,44,45
 520 620.5 520 620.5 488.75 636.5 c 0,46,47
 457.5 652.5 457.5 652.5 421 652.5 c 0,48,49
 383.5 652.5 383.5 652.5 350 636 c 0,50,51
 316.5 619.5 316.5 619.5 288 591 c 0,52,53
 259.5 562.5 259.5 562.5 236.75 524.25 c 0,54,55
 214 486 214 486 198 442.5 c 0,56,57
 182 399 182 399 173.5 352.25 c 0,58,59
 165 305.5 165 305.5 165 260 c 0,60,61
 165 208 165 208 178.25 166.75 c 0,62,63
 191.5 125.5 191.5 125.5 214.25 96.75 c 0,64,65
 237 68 237 68 268 52.5 c 0,66,67
 299 37 299 37 335 37 c 0,68,69
 372.5 37 372.5 37 406 53.75 c 0,70,71
 439.5 70.5 439.5 70.5 468 99.5 c 0,72,73
 496.5 128.5 496.5 128.5 519.25 166.75 c 0,74,75
 542 205 542 205 558 248.5 c 0,76,77
 574 292 574 292 582.5 337.75 c 0,78,79
 591 383.5 591 383.5 591 427 c 0,40,41
EndSplineSet
EndChar

StartChar: P
Encoding: 51 80 51
Width: 579
VWidth: 500
Flags: W
LayerCount: 2
Fore
SplineSet
584.5 523.5 m 0,0,1
 584.5 461.5 584.5 461.5 561 412 c 0,2,3
 537.5 362.5 537.5 362.5 495.75 327.75 c 0,4,5
 454 293 454 293 396.75 274.5 c 0,6,7
 339.5 256 339.5 256 272.5 256 c 0,8,9
 264.5 256 264.5 256 253.5 256.25 c 0,10,11
 242.5 256.5 242.5 256.5 232.5 257 c 0,12,13
 220.5 257.5 220.5 257.5 208 258 c 0,14,-1
 170 67.5 l 0,15,16
 168.5 60 168.5 60 172.5 54.5 c 0,17,18
 176.5 49 176.5 49 190.5 48 c 0,19,-1
 249 43 l 0,20,-1
 249 0 l 0,21,-1
 -17.5 0 l 0,22,-1
 -17.5 43 l 0,23,-1
 42 48 l 0,24,25
 62 49.5 62 49.5 66.5 67.5 c 0,26,-1
 174 618.5 l 0,27,28
 175.5 627 175.5 627 171.5 632.5 c 0,29,30
 167.5 638 167.5 638 153.5 639 c 0,31,-1
 96.5 644 l 0,32,-1
 96.5 687 l 0,33,-1
 351 687 l 0,34,35
 414 687 414 687 458.25 674.75 c 0,36,37
 502.5 662.5 502.5 662.5 530.75 640.75 c 0,38,39
 559 619 559 619 571.75 589 c 0,40,41
 584.5 559 584.5 559 584.5 523.5 c 0,0,1
478 506 m 0,42,43
 478 535.5 478 535.5 469.75 560 c 0,44,45
 461.5 584.5 461.5 584.5 442.75 602 c 0,46,47
 424 619.5 424 619.5 393.75 629.25 c 0,48,49
 363.5 639 363.5 639 319.5 639 c 0,50,51
 310 639 310 639 299.25 638.5 c 0,52,53
 288.5 638 288.5 638 280.5 637 c 0,54,-1
 217 311.5 l 0,55,56
 239.5 309.5 239.5 309.5 262.25 310.25 c 0,57,58
 285 311 285 311 307 314.75 c 0,59,60
 329 318.5 329 318.5 349.5 325.75 c 0,61,62
 370 333 370 333 388 344 c 0,63,64
 407.5 355.5 407.5 355.5 424 371 c 0,65,66
 440.5 386.5 440.5 386.5 452.5 406.5 c 0,67,68
 464.5 426.5 464.5 426.5 471.25 451.25 c 0,69,70
 478 476 478 476 478 506 c 0,42,43
EndSplineSet
EndChar

StartChar: Q
Encoding: 52 81 52
Width: 727
VWidth: 500
Flags: W
LayerCount: 2
Fore
SplineSet
739.5 -113.5 m 0,0,1
 733.5 -116.5 733.5 -116.5 716 -125 c 0,2,3
 698.5 -133.5 698.5 -133.5 674 -142 c 0,4,5
 649.5 -150.5 649.5 -150.5 621.5 -157.25 c 0,6,7
 593.5 -164 593.5 -164 566.5 -164 c 0,8,9
 527 -164 527 -164 497.5 -152.5 c 0,10,11
 468 -141 468 -141 445.75 -120.5 c 0,12,13
 423.5 -100 423.5 -100 406.75 -72.5 c 0,14,15
 390 -45 390 -45 376 -12.5 c 0,16,17
 364.5 -13.5 364.5 -13.5 350.75 -15 c 0,18,19
 337 -16.5 337 -16.5 324.5 -16.5 c 0,20,21
 268 -16.5 268 -16.5 217.5 2.25 c 0,22,23
 167 21 167 21 129.25 57 c 0,24,25
 91.5 93 91.5 93 69.25 145.5 c 0,26,27
 47 198 47 198 47 265 c 0,28,29
 47 318 47 318 59.75 371 c 0,30,31
 72.5 424 72.5 424 96.25 472.75 c 0,32,33
 120 521.5 120 521.5 154 563.75 c 0,34,35
 188 606 188 606 230.5 637 c 0,36,37
 273 668 273 668 323.75 685.75 c 0,38,39
 374.5 703.5 374.5 703.5 431 703.5 c 0,40,41
 493.5 703.5 493.5 703.5 544.5 682.5 c 0,42,43
 595.5 661.5 595.5 661.5 631.5 624.5 c 0,44,45
 667.5 587.5 667.5 587.5 687 537 c 0,46,47
 706.5 486.5 706.5 486.5 706.5 428 c 0,48,49
 706.5 400.5 706.5 400.5 703 367 c 0,50,51
 699.5 333.5 699.5 333.5 690.5 297.25 c 0,52,53
 681.5 261 681.5 261 665.5 223.5 c 0,54,55
 649.5 186 649.5 186 624.5 149.75 c 0,56,57
 599.5 113.5 599.5 113.5 564.5 80.5 c 0,58,59
 529.5 47.5 529.5 47.5 482.5 20.5 c 0,60,61
 498 -8 498 -8 512 -31 c 0,62,63
 526 -54 526 -54 542 -70.5 c 0,64,65
 558 -87 558 -87 577 -95.75 c 0,66,67
 596 -104.5 596 -104.5 621.5 -104.5 c 0,68,69
 636.5 -104.5 636.5 -104.5 652.25 -101.25 c 0,70,71
 668 -98 668 -98 683.5 -93 c 0,72,73
 699 -88 699 -88 713.25 -82 c 0,74,75
 727.5 -76 727.5 -76 739.5 -70.5 c 0,76,-1
 739.5 -113.5 l 0,0,1
591 428 m 0,77,78
 591 476.5 591 476.5 579 517.5 c 0,79,80
 567 558.5 567 558.5 545.25 588.25 c 0,81,82
 523.5 618 523.5 618 493.25 634.75 c 0,83,84
 463 651.5 463 651.5 426 651.5 c 0,85,86
 388 651.5 388 651.5 353.5 635.75 c 0,87,88
 319 620 319 620 289.75 592.5 c 0,89,90
 260.5 565 260.5 565 236.75 527.5 c 0,91,92
 213 490 213 490 196.5 446.5 c 0,93,94
 180 403 180 403 171 355.5 c 0,95,96
 162 308 162 308 162 260 c 0,97,98
 162 212 162 212 174 171.25 c 0,99,100
 186 130.5 186 130.5 208.25 101 c 0,101,102
 230.5 71.5 230.5 71.5 262.25 54.75 c 0,103,104
 294 38 294 38 334 38 c 0,105,106
 370.5 38 370.5 38 403.75 54.5 c 0,107,108
 437 71 437 71 465.75 99.5 c 0,109,110
 494.5 128 494.5 128 517.5 166.25 c 0,111,112
 540.5 204.5 540.5 204.5 557 247.75 c 0,113,114
 573.5 291 573.5 291 582.25 337.25 c 0,115,116
 591 383.5 591 383.5 591 428 c 0,77,78
EndSplineSet
EndChar

StartChar: R
Encoding: 53 82 53
Width: 656
VWidth: 500
Flags: W
LayerCount: 2
Fore
SplineSet
630 0 m 0,0,1
 609 -9.5 609 -9.5 590.75 -13 c 0,2,3
 572.5 -16.5 572.5 -16.5 555 -16.5 c 0,4,5
 508.5 -16.5 508.5 -16.5 480.25 -1.5 c 0,6,7
 452 13.5 452 13.5 435.75 37.5 c 0,8,9
 419.5 61.5 419.5 61.5 411.75 90.75 c 0,10,11
 404 120 404 120 398.5 148.5 c 0,12,13
 392.5 177 392.5 177 385.25 204.75 c 0,14,15
 378 232.5 378 232.5 364.75 254.25 c 0,16,17
 351.5 276 351.5 276 329.5 289.5 c 0,18,19
 307.5 303 307.5 303 271.5 303 c 0,20,21
 264.5 303 264.5 303 255.5 302.75 c 0,22,23
 246.5 302.5 246.5 302.5 238 302.5 c 0,24,25
 228.5 302 228.5 302 218 302 c 0,26,-1
 174 67.5 l 0,27,28
 172.5 60 172.5 60 176.5 54.5 c 0,29,30
 180.5 49 180.5 49 193.5 48 c 0,31,-1
 253 43 l 0,32,-1
 253 0 l 0,33,-1
 -13.5 0 l 0,34,-1
 -13.5 43 l 0,35,-1
 45 48 l 0,36,37
 66 49.5 66 49.5 70.5 67.5 c 0,38,-1
 175 618.5 l 0,39,40
 176.5 627 176.5 627 172.5 632.5 c 0,41,42
 168.5 638 168.5 638 155.5 639 c 0,43,-1
 98.5 644 l 0,44,-1
 98.5 687 l 0,45,-1
 372.5 687 l 0,46,47
 415 687 415 687 455.25 680 c 0,48,49
 495.5 673 495.5 673 526.5 655.5 c 0,50,51
 557.5 638 557.5 638 576.25 608.75 c 0,52,53
 595 579.5 595 579.5 595 535.5 c 0,54,55
 595 494 595 494 578.5 460.5 c 0,56,57
 562 427 562 427 533.5 400.75 c 0,58,59
 505 374.5 505 374.5 467 355.5 c 0,60,61
 429 336.5 429 336.5 386 324.5 c 0,62,63
 417.5 311 417.5 311 436.25 294.25 c 0,64,65
 455 277.5 455 277.5 466.5 257 c 0,66,67
 478 236.5 478 236.5 484.5 211.5 c 0,68,69
 491 186.5 491 186.5 498.5 157.5 c 0,70,71
 506 129 506 129 515 107.25 c 0,72,73
 524 85.5 524 85.5 538.75 71 c 0,74,75
 553.5 56.5 553.5 56.5 575.25 49.25 c 0,76,77
 597 42 597 42 630 42 c 0,78,-1
 630 0 l 0,0,1
479 521 m 0,79,80
 479 558.5 479 558.5 462.75 581.5 c 0,81,82
 446.5 604.5 446.5 604.5 421 617 c 0,83,84
 395.5 629.5 395.5 629.5 364.5 633.25 c 0,85,86
 333.5 637 333.5 637 304 636 c 0,87,88
 300 636 300 636 293 635.5 c 0,89,90
 286 635 286 635 281.5 635 c 0,91,-1
 229.5 355.5 l 0,92,-1
 252 355.5 l 0,93,94
 293.5 355.5 293.5 355.5 334 363 c 0,95,96
 374.5 370.5 374.5 370.5 406.75 389.5 c 0,97,98
 439 408.5 439 408.5 459 440.25 c 0,99,100
 479 472 479 472 479 521 c 0,79,80
EndSplineSet
EndChar

StartChar: S
Encoding: 54 83 54
Width: 533
VWidth: 500
Flags: W
LayerCount: 2
Fore
SplineSet
492.5 510 m 0,0,-1
 432 510 l 0,1,-1
 436 613.5 l 0,2,3
 436 618.5 436 618.5 428.5 625.25 c 0,4,5
 421 632 421 632 408.25 638.25 c 0,6,7
 395.5 644.5 395.5 644.5 379 649 c 0,8,9
 362.5 653.5 362.5 653.5 344 653.5 c 0,10,11
 314.5 653.5 314.5 653.5 286.75 643 c 0,12,13
 259 632.5 259 632.5 237.5 613.75 c 0,14,15
 216 595 216 595 203.25 569.25 c 0,16,17
 190.5 543.5 190.5 543.5 190.5 513 c 0,18,19
 190.5 485.5 190.5 485.5 205.5 464.75 c 0,20,21
 220.5 444 220.5 444 242.5 428 c 0,22,23
 264.5 412 264.5 412 289.5 400 c 0,24,25
 314.5 388 314.5 388 335 378 c 0,26,27
 362 364 362 364 387.75 348.5 c 0,28,29
 413.5 333 413.5 333 433.5 313.5 c 0,30,31
 453.5 294 453.5 294 465.75 268.75 c 0,32,33
 478 243.5 478 243.5 478 210 c 0,34,35
 478 173 478 173 462.75 133 c 0,36,37
 447.5 93 447.5 93 413.5 59.75 c 0,38,39
 379.5 26.5 379.5 26.5 325.25 5 c 0,40,41
 271 -16.5 271 -16.5 192.5 -16.5 c 0,42,43
 153 -16.5 153 -16.5 119.25 -9.25 c 0,44,45
 85.5 -2 85.5 -2 59.75 7.25 c 0,46,47
 34 16.5 34 16.5 17.25 25.25 c 0,48,49
 0.5 34 0.5 34 -5 37 c 0,50,-1
 29.5 201.5 l 0,51,-1
 99.5 201.5 l 0,52,-1
 88 84 l 0,53,54
 87.5 78 87.5 78 95 72 c 0,55,56
 102.5 66 102.5 66 114.5 60.75 c 0,57,58
 126.5 55.5 126.5 55.5 141 51.25 c 0,59,60
 155.5 47 155.5 47 168.75 43.75 c 0,61,62
 182 40.5 182 40.5 192.25 38.75 c 0,63,64
 202.5 37 202.5 37 206 37 c 0,65,66
 239 37 239 37 269 47.25 c 0,67,68
 299 57.5 299 57.5 321.75 76.75 c 0,69,70
 344.5 96 344.5 96 358 123.75 c 0,71,72
 371.5 151.5 371.5 151.5 371.5 186.5 c 0,73,74
 371.5 212.5 371.5 212.5 356.25 232.75 c 0,75,76
 341 253 341 253 318.75 269 c 0,77,78
 296.5 285 296.5 285 271.5 297.25 c 0,79,80
 246.5 309.5 246.5 309.5 227.5 319.5 c 0,81,82
 200.5 333.5 200.5 333.5 175 348.75 c 0,83,84
 149.5 364 149.5 364 129.75 382.75 c 0,85,86
 110 401.5 110 401.5 98 425 c 0,87,88
 86 448.5 86 448.5 86 479 c 0,89,90
 86 530 86 530 106 571.5 c 0,91,92
 126 613 126 613 161.75 642.25 c 0,93,94
 197.5 671.5 197.5 671.5 246.25 687.5 c 0,95,96
 295 703.5 295 703.5 352.5 703.5 c 0,97,98
 387 703.5 387 703.5 416.5 698.75 c 0,99,100
 446 694 446 694 468.5 687.5 c 0,101,102
 491 681 491 681 505.75 675 c 0,103,104
 520.5 669 520.5 669 525.5 666.5 c 0,105,-1
 492.5 510 l 0,0,-1
EndSplineSet
EndChar

StartChar: T
Encoding: 55 84 55
Width: 600
VWidth: 500
Flags: W
LayerCount: 2
Fore
SplineSet
633 530.5 m 0,0,-1
 568.5 530.5 l 0,1,-1
 572.5 620.5 l 0,2,3
 574 641 574 641 553 641 c 0,4,-1
 421 641 l 0,5,-1
 314.5 67.5 l 0,6,7
 313 60 313 60 317 54.5 c 0,8,9
 321 49 321 49 335 48 c 0,10,-1
 393 43 l 0,11,-1
 393 0 l 0,12,-1
 127 0 l 0,13,-1
 127 43 l 0,14,-1
 186.5 48 l 0,15,16
 195.5 49 195.5 49 202.5 53.75 c 0,17,18
 209.5 58.5 209.5 58.5 211 67.5 c 0,19,-1
 317.5 641 l 0,20,-1
 189.5 641 l 0,21,22
 170 641 170 641 164 620.5 c 0,23,-1
 132 530.5 l 0,24,-1
 67.5 530.5 l 0,25,-1
 97.5 687 l 0,26,-1
 664.5 687 l 0,27,-1
 633 530.5 l 0,0,-1
EndSplineSet
EndChar

StartChar: U
Encoding: 56 85 56
Width: 724
VWidth: 500
Flags: W
LayerCount: 2
Fore
SplineSet
707.5 639 m 0,0,1
 698.5 638 698.5 638 691.5 633.25 c 0,2,3
 684.5 628.5 684.5 628.5 683 618.5 c 0,4,-1
 604 219 l 0,5,6
 593.5 163.5 593.5 163.5 570.5 119.75 c 0,7,8
 547.5 76 547.5 76 511.75 45.75 c 0,9,10
 476 15.5 476 15.5 427.75 -0.5 c 0,11,12
 379.5 -16.5 379.5 -16.5 318.5 -16.5 c 0,13,14
 271 -16.5 271 -16.5 230.25 -6.75 c 0,15,16
 189.5 3 189.5 3 159 24.5 c 0,17,18
 128.5 46 128.5 46 111.25 80 c 0,19,20
 94 114 94 114 94 163 c 0,21,22
 94 178.5 94 178.5 97.25 206.5 c 0,23,24
 100.5 234.5 100.5 234.5 107.5 270.5 c 0,25,-1
 179 618.5 l 0,26,27
 180.5 627 180.5 627 176.5 632.5 c 0,28,29
 172.5 638 172.5 638 158.5 639 c 0,30,-1
 101.5 644 l 0,31,-1
 101.5 687 l 0,32,-1
 367.5 687 l 0,33,-1
 367.5 644 l 0,34,-1
 307 639 l 0,35,36
 298 638 298 638 291 633.25 c 0,37,38
 284 628.5 284 628.5 282.5 618.5 c 0,39,-1
 212 270.5 l 0,40,41
 206 240.5 206 240.5 203.25 216.75 c 0,42,43
 200.5 193 200.5 193 200.5 179 c 0,44,45
 200.5 146.5 200.5 146.5 210.75 122.5 c 0,46,47
 221 98.5 221 98.5 239.75 82.25 c 0,48,49
 258.5 66 258.5 66 285.25 58 c 0,50,51
 312 50 312 50 345 50 c 0,52,53
 395 50 395 50 428.75 66.75 c 0,54,55
 462.5 83.5 462.5 83.5 485 111.5 c 0,56,57
 507.5 139.5 507.5 139.5 520.5 176.75 c 0,58,59
 533.5 214 533.5 214 541.5 255 c 0,60,-1
 613.5 618.5 l 0,61,62
 615 627 615 627 611 632.5 c 0,63,64
 607 638 607 638 593 639 c 0,65,-1
 535.5 644 l 0,66,-1
 535.5 687 l 0,67,-1
 767 687 l 0,68,-1
 767 644 l 0,69,-1
 707.5 639 l 0,0,1
EndSplineSet
EndChar

StartChar: V
Encoding: 57 86 57
Width: 658
VWidth: 500
Flags: W
LayerCount: 2
Fore
SplineSet
679 638 m 0,0,-1
 325.5 -16.5 l 0,1,-1
 248 -16.5 l 0,2,-1
 148.5 621.5 l 0,3,4
 147 631.5 147 631.5 140.5 636.25 c 0,5,6
 134 641 134 641 124 642 c 0,7,-1
 85 644 l 0,8,-1
 85 687 l 0,9,-1
 317.5 687 l 0,10,-1
 317.5 644 l 0,11,-1
 273.5 642 l 0,12,13
 262 641 262 641 256.75 636.75 c 0,14,15
 251.5 632.5 251.5 632.5 253 621.5 c 0,16,-1
 329.5 126 l 0,17,-1
 590 621.5 l 0,18,19
 594 629.5 594 629.5 591.5 635.25 c 0,20,21
 589 641 589 641 574.5 642 c 0,22,-1
 524.5 644 l 0,23,-1
 524.5 687 l 0,24,-1
 733 687 l 0,25,-1
 733 644 l 0,26,-1
 679 638 l 0,0,-1
EndSplineSet
EndChar

StartChar: W
Encoding: 58 87 58
Width: 949
VWidth: 500
Flags: W
LayerCount: 2
Fore
SplineSet
963.5 638 m 0,0,-1
 656.5 -16.5 l 0,1,-1
 591 -16.5 l 0,2,-1
 531.5 530.5 l 0,3,-1
 275.5 -16.5 l 0,4,-1
 204 -16.5 l 0,5,-1
 152.5 621.5 l 0,6,7
 151.5 631.5 151.5 631.5 146.25 636.25 c 0,8,9
 141 641 141 641 128 642 c 0,10,-1
 85 644 l 0,11,-1
 85 687 l 0,12,-1
 321.5 687 l 0,13,-1
 321.5 644 l 0,14,-1
 276.5 642 l 0,15,16
 265 641 265 641 260.5 636 c 0,17,18
 256 631 256 631 256 621.5 c 0,19,-1
 292 177 l 0,20,-1
 532.5 687 l 0,21,-1
 615.5 687 l 0,22,-1
 667.5 170 l 0,23,-1
 875.5 621.5 l 0,24,25
 884.5 640.5 884.5 640.5 856 642 c 0,26,-1
 810 644 l 0,27,-1
 810 687 l 0,28,-1
 1024 687 l 0,29,-1
 1024 644 l 0,30,-1
 963.5 638 l 0,0,-1
EndSplineSet
EndChar

StartChar: X
Encoding: 59 88 59
Width: 648
VWidth: 500
Flags: W
LayerCount: 2
Fore
SplineSet
633 640 m 0,0,1
 625 639 625 639 618.25 633.75 c 0,2,3
 611.5 628.5 611.5 628.5 608.5 624.5 c 0,4,-1
 383 368.5 l 0,5,-1
 517 62.5 l 0,6,7
 522 53 522 53 527 50.5 c 0,8,9
 532 48 532 48 537.5 47 c 0,10,-1
 593 43 l 0,11,-1
 593 0 l 0,12,-1
 328.5 0 l 0,13,-1
 328.5 43 l 0,14,-1
 394 47 l 0,15,16
 402.5 48 402.5 48 407.5 54 c 0,17,18
 412.5 60 412.5 60 408.5 67.5 c 0,19,-1
 316.5 282.5 l 0,20,-1
 123 67.5 l 0,21,22
 116.5 61.5 116.5 61.5 117.75 54.75 c 0,23,24
 119 48 119 48 132 47 c 0,25,-1
 193.5 43 l 0,26,-1
 193.5 0 l 0,27,-1
 -45 0 l 0,28,-1
 -45 43 l 0,29,-1
 4 47 l 0,30,31
 12.5 48 12.5 48 19 53.25 c 0,32,33
 25.5 58.5 25.5 58.5 28.5 62.5 c 0,34,-1
 283.5 348 l 0,35,-1
 161 624.5 l 0,36,37
 157 634 157 634 152 636.5 c 0,38,39
 147 639 147 639 141.5 640 c 0,40,-1
 85 644 l 0,41,-1
 85 687 l 0,42,-1
 351 687 l 0,43,-1
 351 644 l 0,44,-1
 284.5 640 l 0,45,46
 276 639 276 639 271 633.25 c 0,47,48
 266 627.5 266 627.5 269.5 619.5 c 0,49,-1
 353.5 428 l 0,50,-1
 521 619.5 l 0,51,52
 526.5 625.5 526.5 625.5 525.75 632.25 c 0,53,54
 525 639 525 639 512 640 c 0,55,-1
 463 644 l 0,56,-1
 463 687 l 0,57,-1
 694.5 687 l 0,58,-1
 694.5 644 l 0,59,-1
 633 640 l 0,0,1
EndSplineSet
EndChar

StartChar: Y
Encoding: 60 89 60
Width: 654
VWidth: 500
Flags: W
LayerCount: 2
Fore
SplineSet
670.5 640 m 0,0,1
 663 639 663 639 655.5 633.75 c 0,2,3
 648 628.5 648 628.5 644 624.5 c 0,4,-1
 384 287.5 l 0,5,-1
 341 67.5 l 0,6,7
 338.5 60 338.5 60 343 54.5 c 0,8,9
 347.5 49 347.5 49 360.5 48 c 0,10,-1
 418 43 l 0,11,-1
 418 0 l 0,12,-1
 151.5 0 l 0,13,-1
 151.5 43 l 0,14,-1
 211 48 l 0,15,16
 220 49 220 49 226.5 53.75 c 0,17,18
 233 58.5 233 58.5 235.5 67.5 c 0,19,-1
 277.5 278.5 l 0,20,-1
 163 624.5 l 0,21,22
 159.5 634.5 159.5 634.5 154.25 636.75 c 0,23,24
 149 639 149 639 143.5 640 c 0,25,-1
 86 644 l 0,26,-1
 86 687 l 0,27,-1
 351 687 l 0,28,-1
 351 644 l 0,29,-1
 285.5 640 l 0,30,31
 277 639 277 639 272.75 633.5 c 0,32,33
 268.5 628 268.5 628 271.5 619.5 c 0,34,-1
 355.5 353.5 l 0,35,-1
 553 619.5 l 0,36,37
 555 623 555 623 556.5 626.5 c 0,38,39
 558 630 558 630 557.5 632.75 c 0,40,41
 557 635.5 557 635.5 554.25 637.5 c 0,42,43
 551.5 639.5 551.5 639.5 545 640 c 0,44,-1
 481.5 644 l 0,45,-1
 481.5 687 l 0,46,-1
 728 687 l 0,47,-1
 728 644 l 0,48,-1
 670.5 640 l 0,0,1
EndSplineSet
EndChar

StartChar: Z
Encoding: 61 90 61
Width: 576
VWidth: 500
Flags: W
LayerCount: 2
Fore
SplineSet
600 641 m 0,0,-1
 118 54.5 l 0,1,-1
 396.5 54.5 l 0,2,3
 416.5 54.5 416.5 54.5 422 75 c 0,4,-1
 452.5 189.5 l 0,5,-1
 522 189.5 l 0,6,-1
 486.5 0 l 0,7,-1
 -20.5 0 l 0,8,-1
 -11.5 45 l 0,9,-1
 469 634 l 0,10,-1
 229.5 634 l 0,11,12
 218.5 634 218.5 634 213.25 629.25 c 0,13,14
 208 624.5 208 624.5 205 614.5 c 0,15,-1
 177 524.5 l 0,16,-1
 106.5 524.5 l 0,17,-1
 139.5 687 l 0,18,-1
 609.5 687 l 0,19,-1
 600 641 l 0,0,-1
EndSplineSet
EndChar

StartChar: bracketleft
Encoding: 62 91 62
Width: 431
VWidth: 500
Flags: W
LayerCount: 2
Fore
SplineSet
315.5 677 m 0,0,-1
 163 -87 l 0,1,-1
 319.5 -87 l 0,2,-1
 319.5 -135 l 0,3,-1
 55.5 -135 l 0,4,-1
 227.5 725 l 0,5,-1
 482.5 725 l 0,6,-1
 482.5 677 l 0,7,-1
 315.5 677 l 0,0,-1
EndSplineSet
EndChar

StartChar: backslash
Encoding: 63 92 63
Width: 500
VWidth: 500
Flags: W
LayerCount: 2
Fore
SplineSet
435 -95 m 0,0,-1
 0 687 l 0,1,-1
 65.5 687 l 0,2,-1
 500.5 -95 l 0,3,-1
 435 -95 l 0,0,-1
EndSplineSet
EndChar

StartChar: bracketright
Encoding: 64 93 64
Width: 431
VWidth: 500
Flags: W
LayerCount: 2
Fore
SplineSet
213 -135 m 0,0,-1
 -42 -135 l 0,1,-1
 -42 -86 l 0,2,-1
 126 -86 l 0,3,-1
 277.5 678 l 0,4,-1
 121 678 l 0,5,-1
 121 725 l 0,6,-1
 385 725 l 0,7,-1
 213 -135 l 0,0,-1
EndSplineSet
EndChar

StartChar: underscore
Encoding: 66 95 66
Width: 311
VWidth: 500
Flags: W
LayerCount: 2
Fore
SplineSet
231 -157.5 m 0,0,-1
 -80 -157.5 l 0,1,-1
 -65.5 -90 l 0,2,-1
 244 -90 l 0,3,-1
 231 -157.5 l 0,0,-1
EndSplineSet
EndChar

StartChar: a
Encoding: 68 97 68
Width: 533
VWidth: 500
Flags: W
LayerCount: 2
Fore
SplineSet
530.5 27.5 m 0,0,1
 524.5 25 524.5 25 508.5 18.25 c 0,2,3
 492.5 11.5 492.5 11.5 472.75 4.75 c 0,4,5
 453 -2 453 -2 432.75 -7.25 c 0,6,7
 412.5 -12.5 412.5 -12.5 397.5 -12.5 c 0,8,9
 379 -12.5 379 -12.5 366.25 -8 c 0,10,11
 353.5 -3.5 353.5 -3.5 345.25 5.5 c 0,12,13
 337 14.5 337 14.5 332.5 27.5 c 0,14,15
 328 40.5 328 40.5 326.5 57.5 c 0,16,17
 315 46.5 315 46.5 299.5 34.25 c 0,18,19
 284 22 284 22 265.25 11.5 c 0,20,21
 246.5 1 246.5 1 225.25 -5.75 c 0,22,23
 204 -12.5 204 -12.5 181 -12.5 c 0,24,25
 151 -12.5 151 -12.5 128.25 -4 c 0,26,27
 105.5 4.5 105.5 4.5 89 18.75 c 0,28,29
 72.5 33 72.5 33 61.75 51.75 c 0,30,31
 51 70.5 51 70.5 44.5 90.75 c 0,32,33
 38 111 38 111 35.5 131.75 c 0,34,35
 33 152.5 33 152.5 33 171 c 0,36,37
 33 210.5 33 210.5 41.5 250.75 c 0,38,39
 50 291 50 291 66.75 328.25 c 0,40,41
 83.5 365.5 83.5 365.5 108.5 398 c 0,42,43
 133.5 430.5 133.5 430.5 166.25 454.5 c 0,44,45
 199 478.5 199 478.5 239.25 492.25 c 0,46,47
 279.5 506 279.5 506 327.5 506 c 0,48,49
 341.5 506 341.5 506 355.25 502.75 c 0,50,51
 369 499.5 369 499.5 381 494.25 c 0,52,53
 393 489 393 489 403 482.5 c 0,54,55
 413 476 413 476 420 469 c 0,56,-1
 435 493.5 l 0,57,-1
 505 493.5 l 0,58,59
 502.5 487.5 502.5 487.5 499.5 479.25 c 0,60,61
 496.5 471 496.5 471 493.5 462.5 c 0,62,63
 490.5 454 490.5 454 488.25 446.5 c 0,64,65
 486 439 486 439 485.5 435 c 0,66,67
 482 421.5 482 421.5 475.5 394.25 c 0,68,69
 469 367 469 367 461.75 333 c 0,70,71
 454.5 299 454.5 299 446.75 261.75 c 0,72,73
 439 224.5 439 224.5 433 191.25 c 0,74,75
 427 158 427 158 423 132.25 c 0,76,77
 419 106.5 419 106.5 419 95 c 0,78,79
 419 68 419 68 430.5 58 c 0,80,81
 442 48 442 48 463 48 c 0,82,83
 468 48 468 48 477.75 50.25 c 0,84,85
 487.5 52.5 487.5 52.5 498 55.5 c 0,86,87
 508.5 58.5 508.5 58.5 517.5 61 c 0,88,89
 526.5 63.5 526.5 63.5 530.5 64.5 c 0,90,-1
 530.5 27.5 l 0,0,1
380 401.5 m 0,91,92
 380.5 404 380.5 404 376.25 413 c 0,93,94
 372 422 372 422 366 431.75 c 0,95,96
 360 441.5 360 441.5 353.25 449 c 0,97,98
 346.5 456.5 346.5 456.5 342 456.5 c 0,99,100
 303 456.5 303 456.5 272.25 443.75 c 0,101,102
 241.5 431 241.5 431 218.5 409.25 c 0,103,104
 195.5 387.5 195.5 387.5 179.25 359 c 0,105,106
 163 330.5 163 330.5 153 299.5 c 0,107,108
 143 268.5 143 268.5 138.5 237 c 0,109,110
 134 205.5 134 205.5 134 177 c 0,111,112
 134 155.5 134 155.5 137.5 134 c 0,113,114
 141 112.5 141 112.5 149.75 95 c 0,115,116
 158.5 77.5 158.5 77.5 173.75 66.5 c 0,117,118
 189 55.5 189 55.5 213 55.5 c 0,119,120
 231 55.5 231 55.5 249 63.5 c 0,121,122
 267 71.5 267 71.5 282.5 82 c 0,123,124
 298 92.5 298 92.5 309.5 103 c 0,125,126
 321 113.5 321 113.5 326.5 119 c 0,127,-1
 380 401.5 l 0,91,92
EndSplineSet
EndChar

StartChar: b
Encoding: 69 98 69
Width: 504
VWidth: 500
Flags: W
LayerCount: 2
Fore
SplineSet
471 317.5 m 0,0,1
 471 285.5 471 285.5 464 248.75 c 0,2,3
 457 212 457 212 442.25 175.5 c 0,4,5
 427.5 139 427.5 139 404.5 105 c 0,6,7
 381.5 71 381.5 71 349.5 45 c 0,8,9
 317.5 19 317.5 19 276 3.25 c 0,10,11
 234.5 -12.5 234.5 -12.5 182.5 -12.5 c 0,12,13
 139 -12.5 139 -12.5 96.75 -0.5 c 0,14,15
 54.5 11.5 54.5 11.5 18.5 35 c 0,16,-1
 139.5 684 l 0,17,-1
 48 693 l 0,18,-1
 48 724 l 0,19,-1
 208 754.5 l 0,20,-1
 248 754.5 l 0,21,-1
 189.5 444.5 l 0,22,23
 203.5 457 203.5 457 220.25 468.25 c 0,24,25
 237 479.5 237 479.5 255 487.75 c 0,26,27
 273 496 273 496 292 501 c 0,28,29
 311 506 311 506 329.5 506 c 0,30,31
 369 506 369 506 396 488.5 c 0,32,33
 423 471 423 471 439.75 443.5 c 0,34,35
 456.5 416 456.5 416 463.75 382.75 c 0,36,37
 471 349.5 471 349.5 471 317.5 c 0,0,1
369.5 313.5 m 0,38,39
 369.5 348 369.5 348 361.5 371.75 c 0,40,41
 353.5 395.5 353.5 395.5 342 410.5 c 0,42,43
 330.5 425.5 330.5 425.5 317.75 432 c 0,44,45
 305 438.5 305 438.5 296 438.5 c 0,46,47
 283.5 438.5 283.5 438.5 268.5 434.5 c 0,48,49
 253.5 430.5 253.5 430.5 237.75 423.25 c 0,50,51
 222 416 222 416 206.5 406.5 c 0,52,53
 191 397 191 397 178 386 c 0,54,-1
 121 76 l 0,55,56
 126 68.5 126 68.5 134.5 61.5 c 0,57,58
 143 54.5 143 54.5 154 48.75 c 0,59,60
 165 43 165 43 178 39.5 c 0,61,62
 191 36 191 36 205 36 c 0,63,64
 228.5 36 228.5 36 249.75 48 c 0,65,66
 271 60 271 60 289.25 80.5 c 0,67,68
 307.5 101 307.5 101 322.5 128.5 c 0,69,70
 337.5 156 337.5 156 347.75 186.75 c 0,71,72
 358 217.5 358 217.5 363.75 250.25 c 0,73,74
 369.5 283 369.5 283 369.5 313.5 c 0,38,39
EndSplineSet
EndChar

StartChar: c
Encoding: 70 99 70
Width: 445
VWidth: 500
Flags: W
LayerCount: 2
Fore
SplineSet
412.5 434 m 0,0,1
 412.5 424 412.5 424 409.5 413.5 c 0,2,3
 406.5 403 406.5 403 397.75 394 c 0,4,5
 389 385 389 385 373.75 377.75 c 0,6,7
 358.5 370.5 358.5 370.5 334 367.5 c 0,8,-1
 275.5 446.5 l 0,9,10
 248 445 248 445 226.5 431.25 c 0,11,12
 205 417.5 205 417.5 188.75 396 c 0,13,14
 172.5 374.5 172.5 374.5 161.25 347.25 c 0,15,16
 150 320 150 320 143 292 c 0,17,18
 136 264 136 264 133 237.5 c 0,19,20
 130 211 130 211 130 190.5 c 0,21,22
 130 165.5 130 165.5 134.75 141.25 c 0,23,24
 139.5 117 139.5 117 150.25 97.75 c 0,25,26
 161 78.5 161 78.5 178.25 66.5 c 0,27,28
 195.5 54.5 195.5 54.5 221 54.5 c 0,29,30
 241.5 54.5 241.5 54.5 262.5 61.75 c 0,31,32
 283.5 69 283.5 69 304.75 82 c 0,33,34
 326 95 326 95 347.5 113 c 0,35,36
 369 131 369 131 391 152.5 c 0,37,-1
 391 88 l 0,38,39
 375 72.5 375 72.5 354.5 55 c 0,40,41
 334 37.5 334 37.5 309 22.5 c 0,42,43
 284 7.5 284 7.5 254.25 -2.5 c 0,44,45
 224.5 -12.5 224.5 -12.5 190.5 -12.5 c 0,46,47
 154 -12.5 154 -12.5 124.75 0.25 c 0,48,49
 95.5 13 95.5 13 75.25 37.25 c 0,50,51
 55 61.5 55 61.5 44 97 c 0,52,53
 33 132.5 33 132.5 33 178 c 0,54,55
 33 224 33 224 43.75 266 c 0,56,57
 54.5 308 54.5 308 73.5 344.5 c 0,58,59
 92.5 381 92.5 381 118.5 410.75 c 0,60,61
 144.5 440.5 144.5 440.5 175 461.75 c 0,62,63
 205.5 483 205.5 483 239.25 494.5 c 0,64,65
 273 506 273 506 308 506 c 0,66,67
 335.5 506 335.5 506 355.5 499 c 0,68,69
 375.5 492 375.5 492 388 481.5 c 0,70,71
 400.5 471 400.5 471 406.5 458.25 c 0,72,73
 412.5 445.5 412.5 445.5 412.5 434 c 0,0,1
EndSplineSet
EndChar

StartChar: d
Encoding: 71 100 71
Width: 538
VWidth: 500
Flags: W
LayerCount: 2
Fore
SplineSet
385 403.5 m 0,0,1
 385.5 405.5 385.5 405.5 379.25 414.75 c 0,2,3
 373 424 373 424 363.25 434 c 0,4,5
 353.5 444 353.5 444 342 452 c 0,6,7
 330.5 460 330.5 460 320.5 460 c 0,8,9
 283 460 283 460 249 438.25 c 0,10,11
 215 416.5 215 416.5 189 378.5 c 0,12,13
 163 340.5 163 340.5 147.5 288.75 c 0,14,15
 132 237 132 237 132 177 c 0,16,17
 132 144 132 144 138.75 120 c 0,18,19
 145.5 96 145.5 96 156.75 80.5 c 0,20,21
 168 65 168 65 182.5 57.5 c 0,22,23
 197 50 197 50 212 50 c 0,24,25
 226 50 226 50 242.25 57 c 0,26,27
 258.5 64 258.5 64 275 75.75 c 0,28,29
 291.5 87.5 291.5 87.5 307.75 102.75 c 0,30,31
 324 118 324 118 338 134 c 0,32,-1
 385 403.5 l 0,0,1
425 88 m 0,33,34
 422.5 73.5 422.5 73.5 426.5 64.5 c 0,35,36
 430.5 55.5 430.5 55.5 437.25 50.25 c 0,37,38
 444 45 444 45 451.25 43 c 0,39,40
 458.5 41 458.5 41 462 41 c 0,41,42
 465.5 41 465.5 41 476.25 43.75 c 0,43,44
 487 46.5 487 46.5 499 50 c 0,45,46
 511 53.5 511 53.5 521.5 56.5 c 0,47,-1
 535.5 60.5 l 0,48,-1
 535.5 22.5 l 0,49,50
 529.5 20 529.5 20 513.5 14.25 c 0,51,52
 497.5 8.5 497.5 8.5 478 2.5 c 0,53,54
 458.5 -3.5 458.5 -3.5 437.75 -8 c 0,55,56
 417 -12.5 417 -12.5 401.5 -12.5 c 0,57,58
 378 -12.5 378 -12.5 363 -6.75 c 0,59,60
 348 -1 348 -1 339.5 9.25 c 0,61,62
 331 19.5 331 19.5 327.75 33.5 c 0,63,64
 324.5 47.5 324.5 47.5 324.5 64.5 c 0,65,66
 311 50 311 50 294.75 36.25 c 0,67,68
 278.5 22.5 278.5 22.5 260 11.75 c 0,69,70
 241.5 1 241.5 1 221 -5.75 c 0,71,72
 200.5 -12.5 200.5 -12.5 179 -12.5 c 0,73,74
 136 -12.5 136 -12.5 107.75 4 c 0,75,76
 79.5 20.5 79.5 20.5 63 47 c 0,77,78
 46.5 73.5 46.5 73.5 39.75 106 c 0,79,80
 33 138.5 33 138.5 33 171 c 0,81,82
 33 211.5 33 211.5 41.75 252.25 c 0,83,84
 50.5 293 50.5 293 67.75 330.25 c 0,85,86
 85 367.5 85 367.5 110 399.5 c 0,87,88
 135 431.5 135 431.5 167 455.25 c 0,89,90
 199 479 199 479 238.25 492.5 c 0,91,92
 277.5 506 277.5 506 322.5 506 c 0,93,94
 334 506 334 506 345 503.75 c 0,95,96
 356 501.5 356 501.5 366 498.5 c 0,97,98
 376 495.5 376 495.5 384.5 492 c 0,99,100
 393 488.5 393 488.5 399.5 486.5 c 0,101,-1
 434 684 l 0,102,-1
 341 693 l 0,103,-1
 341 724 l 0,104,-1
 499.5 754.5 l 0,105,-1
 541.5 754.5 l 0,106,-1
 425 88 l 0,33,34
EndSplineSet
EndChar

StartChar: e
Encoding: 72 101 72
Width: 444
VWidth: 500
Flags: W
LayerCount: 2
Fore
SplineSet
427 402.5 m 0,0,1
 427 374.5 427 374.5 414 351 c 0,2,3
 401 327.5 401 327.5 378.75 308.5 c 0,4,5
 356.5 289.5 356.5 289.5 327.25 274.75 c 0,6,7
 298 260 298 260 265.75 249.75 c 0,8,9
 233.5 239.5 233.5 239.5 200 233.25 c 0,10,11
 166.5 227 166.5 227 136 225.5 c 0,12,13
 134.5 215.5 134.5 215.5 133.25 201.5 c 0,14,15
 132 187.5 132 187.5 132 178 c 0,16,17
 132 150 132 150 138.75 126.5 c 0,18,19
 145.5 103 145.5 103 158.25 85.75 c 0,20,21
 171 68.5 171 68.5 189 58.75 c 0,22,23
 207 49 207 49 229.5 49 c 0,24,25
 264 49 264 49 305.5 74 c 0,26,27
 347 99 347 99 403.5 148.5 c 0,28,-1
 403.5 84 l 0,29,30
 389 70 389 70 368 53.25 c 0,31,32
 347 36.5 347 36.5 320.25 21.75 c 0,33,34
 293.5 7 293.5 7 262 -2.75 c 0,35,36
 230.5 -12.5 230.5 -12.5 195.5 -12.5 c 0,37,38
 180 -12.5 180 -12.5 161.75 -9.5 c 0,39,40
 143.5 -6.5 143.5 -6.5 125.5 1.25 c 0,41,42
 107.5 9 107.5 9 90.75 22.5 c 0,43,44
 74 36 74 36 61.25 56.75 c 0,45,46
 48.5 77.5 48.5 77.5 40.75 106.25 c 0,47,48
 33 135 33 135 33 174 c 0,49,50
 33 214.5 33 214.5 42.75 254.75 c 0,51,52
 52.5 295 52.5 295 70.25 331.75 c 0,53,54
 88 368.5 88 368.5 113 400.25 c 0,55,56
 138 432 138 432 168 455.25 c 0,57,58
 198 478.5 198 478.5 232.25 491.75 c 0,59,60
 266.5 505 266.5 505 303 505 c 0,61,62
 338.5 505 338.5 505 362.25 493.25 c 0,63,64
 386 481.5 386 481.5 400.5 465 c 0,65,66
 415 448.5 415 448.5 421 431 c 0,67,68
 427 413.5 427 413.5 427 402.5 c 0,0,1
336 403.5 m 0,69,70
 336 413.5 336 413.5 332 423.25 c 0,71,72
 328 433 328 433 321 440.5 c 0,73,74
 314 448 314 448 303.5 452.75 c 0,75,76
 293 457.5 293 457.5 280.5 457.5 c 0,77,78
 263.5 457.5 263.5 457.5 248 448.5 c 0,79,80
 232.5 439.5 232.5 439.5 218.25 424.5 c 0,81,82
 204 409.5 204 409.5 191.75 390 c 0,83,84
 179.5 370.5 179.5 370.5 169.75 349 c 0,85,86
 160 327.5 160 327.5 152.5 305.5 c 0,87,88
 145 283.5 145 283.5 140.5 264 c 0,89,90
 173 267 173 267 207.75 279 c 0,91,92
 242.5 291 242.5 291 271 309.75 c 0,93,94
 299.5 328.5 299.5 328.5 317.75 352.5 c 0,95,96
 336 376.5 336 376.5 336 403.5 c 0,69,70
EndSplineSet
EndChar

StartChar: f
Encoding: 73 102 73
Width: 329
VWidth: 500
Flags: W
LayerCount: 2
Fore
SplineSet
451.5 691 m 0,0,1
 451.5 666.5 451.5 666.5 433.5 653.25 c 0,2,3
 415.5 640 415.5 640 387 636 c 0,4,-1
 307 700.5 l 0,5,6
 296 691.5 296 691.5 286.5 674.5 c 0,7,8
 277 657.5 277 657.5 269 636 c 0,9,10
 261 614.5 261 614.5 254.25 590.25 c 0,11,12
 247.5 566 247.5 566 242.5 543.25 c 0,13,14
 237.5 520.5 237.5 520.5 234 500.75 c 0,15,16
 230.5 481 230.5 481 228.5 468 c 0,17,-1
 353.5 468 l 0,18,-1
 353.5 417 l 0,19,-1
 219 417 l 0,20,21
 217.5 405.5 217.5 405.5 213.75 377 c 0,22,23
 210 348.5 210 348.5 204.5 311 c 0,24,25
 199 273.5 199 273.5 192.75 230.75 c 0,26,27
 186.5 188 186.5 188 180.25 148.25 c 0,28,29
 174 108.5 174 108.5 168 75 c 0,30,31
 162 41.5 162 41.5 157.5 22.5 c 0,32,33
 150.5 -6 150.5 -6 138.25 -36.25 c 0,34,35
 126 -66.5 126 -66.5 109.25 -95 c 0,36,37
 92.5 -123.5 92.5 -123.5 72.25 -149 c 0,38,39
 52 -174.5 52 -174.5 29.25 -193.5 c 0,40,41
 6.5 -212.5 6.5 -212.5 -18.25 -223.5 c 0,42,43
 -43 -234.5 -43 -234.5 -68.5 -234.5 c 0,44,45
 -88 -234.5 -88 -234.5 -100.75 -228 c 0,46,47
 -113.5 -221.5 -113.5 -221.5 -120.5 -212.75 c 0,48,49
 -127.5 -204 -127.5 -204 -130.25 -195.75 c 0,50,51
 -133 -187.5 -133 -187.5 -133 -183.5 c 0,52,53
 -133 -164 -133 -164 -125.5 -153.25 c 0,54,55
 -118 -142.5 -118 -142.5 -106.5 -134 c 0,56,-1
 -2 -161 l 0,57,58
 11.5 -144.5 11.5 -144.5 22.75 -120.5 c 0,59,60
 34 -96.5 34 -96.5 43.25 -67.5 c 0,61,62
 52.5 -38.5 52.5 -38.5 60 -5.25 c 0,63,64
 67.5 28 67.5 28 73.5 63.5 c 0,65,66
 86.5 136 86.5 136 97.5 225.25 c 0,67,68
 108.5 314.5 108.5 314.5 124 415.5 c 0,69,-1
 45 407.5 l 0,70,-1
 46 447.5 l 0,71,-1
 135 477 l 0,72,73
 140 504 140 504 148.75 535.25 c 0,74,75
 157.5 566.5 157.5 566.5 170.5 597.25 c 0,76,77
 183.5 628 183.5 628 201.25 656.5 c 0,78,79
 219 685 219 685 242 706.75 c 0,80,81
 265 728.5 265 728.5 293.75 741.5 c 0,82,83
 322.5 754.5 322.5 754.5 357.5 754.5 c 0,84,85
 383.5 754.5 383.5 754.5 401.5 748 c 0,86,87
 419.5 741.5 419.5 741.5 430.5 731.75 c 0,88,89
 441.5 722 441.5 722 446.5 711 c 0,90,91
 451.5 700 451.5 700 451.5 691 c 0,0,1
EndSplineSet
EndChar

StartChar: g
Encoding: 74 103 74
Width: 450
VWidth: 500
Flags: W
LayerCount: 2
Fore
SplineSet
402.5 431 m 0,0,1
 407 419.5 407 419.5 411.25 401.5 c 0,2,3
 415.5 383.5 415.5 383.5 415.5 362.5 c 0,4,5
 415.5 313.5 415.5 313.5 397.5 277 c 0,6,7
 379.5 240.5 379.5 240.5 349 216 c 0,8,9
 318.5 191.5 318.5 191.5 278.25 179.25 c 0,10,11
 238 167 238 167 193.5 167 c 0,12,13
 190 159.5 190 159.5 187.5 150.5 c 0,14,15
 185 141.5 185 141.5 183.5 132.75 c 0,16,17
 182 124 182 124 181.5 116.75 c 0,18,19
 181 109.5 181 109.5 182.5 105.5 c 0,20,-1
 319.5 43 l 0,21,22
 343 32.5 343 32.5 362.25 21.75 c 0,23,24
 381.5 11 381.5 11 395.25 -1.75 c 0,25,26
 409 -14.5 409 -14.5 416.5 -30.75 c 0,27,28
 424 -47 424 -47 424 -69.5 c 0,29,30
 424 -91.5 424 -91.5 413.75 -112.25 c 0,31,32
 403.5 -133 403.5 -133 385.75 -151.25 c 0,33,34
 368 -169.5 368 -169.5 343.25 -185 c 0,35,36
 318.5 -200.5 318.5 -200.5 289.75 -211.5 c 0,37,38
 261 -222.5 261 -222.5 229.25 -228.5 c 0,39,40
 197.5 -234.5 197.5 -234.5 165 -234.5 c 0,41,42
 114.5 -234.5 114.5 -234.5 77.5 -222 c 0,43,44
 40.5 -209.5 40.5 -209.5 16.25 -189 c 0,45,46
 -8 -168.5 -8 -168.5 -19.75 -141.5 c 0,47,48
 -31.5 -114.5 -31.5 -114.5 -31.5 -85 c 0,49,50
 -31.5 -59 -31.5 -59 -20.75 -37 c 0,51,52
 -10 -15 -10 -15 8.5 2.5 c 0,53,54
 27 20 27 20 51.75 33.5 c 0,55,56
 76.5 47 76.5 47 104.5 56.5 c 0,57,58
 102 68.5 102 68.5 104.25 84.75 c 0,59,60
 106.5 101 106.5 101 111.75 117.75 c 0,61,62
 117 134.5 117 134.5 125.5 150 c 0,63,64
 134 165.5 134 165.5 144.5 176 c 0,65,66
 124 185 124 185 106.5 196.75 c 0,67,68
 89 208.5 89 208.5 76.25 223.75 c 0,69,70
 63.5 239 63.5 239 56.25 258.75 c 0,71,72
 49 278.5 49 278.5 49 303 c 0,73,74
 49 340.5 49 340.5 63 376.75 c 0,75,76
 77 413 77 413 103.75 441.75 c 0,77,78
 130.5 470.5 130.5 470.5 168.75 488.25 c 0,79,80
 207 506 207 506 256 506 c 0,81,82
 274.5 506 274.5 506 290.75 502.75 c 0,83,84
 307 499.5 307 499.5 320.25 495.25 c 0,85,86
 333.5 491 333.5 491 343.25 486.5 c 0,87,88
 353 482 353 482 357.5 479 c 0,89,-1
 496.5 479 l 0,90,-1
 496.5 431 l 0,91,-1
 402.5 431 l 0,0,1
317.5 367.5 m 0,92,93
 317.5 386.5 317.5 386.5 314 403.75 c 0,94,95
 310.5 421 310.5 421 303.25 434.25 c 0,96,97
 296 447.5 296 447.5 284.75 455.25 c 0,98,99
 273.5 463 273.5 463 258 463 c 0,100,101
 239.5 463 239.5 463 220 449.5 c 0,102,103
 200.5 436 200.5 436 184.25 412.5 c 0,104,105
 168 389 168 389 157.75 357.5 c 0,106,107
 147.5 326 147.5 326 147.5 290 c 0,108,109
 147.5 271.5 147.5 271.5 151.5 255.75 c 0,110,111
 155.5 240 155.5 240 163.25 228.75 c 0,112,113
 171 217.5 171 217.5 181.75 211.25 c 0,114,115
 192.5 205 192.5 205 206 205 c 0,116,117
 231.5 205 231.5 205 252.25 221.25 c 0,118,119
 273 237.5 273 237.5 287.5 262 c 0,120,121
 302 286.5 302 286.5 309.75 315 c 0,122,123
 317.5 343.5 317.5 343.5 317.5 367.5 c 0,92,93
328.5 -90 m 0,124,125
 328.5 -71.5 328.5 -71.5 317.5 -56 c 0,126,127
 306.5 -40.5 306.5 -40.5 276.5 -26.5 c 0,128,-1
 148.5 31.5 l 0,129,130
 124 25.5 124 25.5 107.75 15 c 0,131,132
 91.5 4.5 91.5 4.5 82 -8.75 c 0,133,134
 72.5 -22 72.5 -22 68.5 -37 c 0,135,136
 64.5 -52 64.5 -52 64.5 -67.5 c 0,137,138
 64.5 -85 64.5 -85 72 -106 c 0,139,140
 79.5 -127 79.5 -127 95.25 -145 c 0,141,142
 111 -163 111 -163 135 -175.25 c 0,143,144
 159 -187.5 159 -187.5 191.5 -187.5 c 0,145,146
 228.5 -187.5 228.5 -187.5 254.5 -177 c 0,147,148
 280.5 -166.5 280.5 -166.5 297 -151.5 c 0,149,150
 313.5 -136.5 313.5 -136.5 321 -119.75 c 0,151,152
 328.5 -103 328.5 -103 328.5 -90 c 0,124,125
EndSplineSet
EndChar

StartChar: h
Encoding: 75 104 75
Width: 536
VWidth: 500
Flags: W
LayerCount: 2
Fore
SplineSet
534.5 25.5 m 0,0,1
 528 23 528 23 511.75 17 c 0,2,3
 495.5 11 495.5 11 475.5 4.25 c 0,4,5
 455.5 -2.5 455.5 -2.5 434.5 -7.5 c 0,6,7
 413.5 -12.5 413.5 -12.5 397.5 -12.5 c 0,8,9
 388 -12.5 388 -12.5 373.5 -9.75 c 0,10,11
 359 -7 359 -7 346.25 0.25 c 0,12,13
 333.5 7.5 333.5 7.5 326 20.5 c 0,14,15
 318.5 33.5 318.5 33.5 322.5 54.5 c 0,16,-1
 385 356.5 l 0,17,18
 389.5 376.5 389.5 376.5 384.25 392 c 0,19,20
 379 407.5 379 407.5 369.5 417.75 c 0,21,22
 360 428 360 428 348.5 433.25 c 0,23,24
 337 438.5 337 438.5 328.5 438.5 c 0,25,26
 316.5 438.5 316.5 438.5 299.25 432.5 c 0,27,28
 282 426.5 282 426.5 262.75 416 c 0,29,30
 243.5 405.5 243.5 405.5 224 390.75 c 0,31,32
 204.5 376 204.5 376 187.5 358.5 c 0,33,-1
 112.5 0 l 0,34,-1
 18.5 0 l 0,35,-1
 159.5 684 l 0,36,-1
 68.5 693 l 0,37,-1
 68.5 724 l 0,38,-1
 228.5 754.5 l 0,39,-1
 269.5 754.5 l 0,40,-1
 200.5 424 l 0,41,42
 216 441 216 441 237.25 456 c 0,43,44
 258.5 471 258.5 471 282.75 482.25 c 0,45,46
 307 493.5 307 493.5 333.25 499.75 c 0,47,48
 359.5 506 359.5 506 385 506 c 0,49,50
 413 506 413 506 434.5 497.25 c 0,51,52
 456 488.5 456 488.5 469.25 471.25 c 0,53,54
 482.5 454 482.5 454 486.25 428 c 0,55,56
 490 402 490 402 482.5 367.5 c 0,57,-1
 426 92 l 0,58,59
 423 77.5 423 77.5 427.5 67.75 c 0,60,61
 432 58 432 58 439.75 52.25 c 0,62,63
 447.5 46.5 447.5 46.5 456 44.25 c 0,64,65
 464.5 42 464.5 42 469 42 c 0,66,67
 483 42 483 42 499.5 49 c 0,68,69
 516 56 516 56 533.5 61.5 c 0,70,-1
 534.5 25.5 l 0,0,1
EndSplineSet
EndChar

StartChar: i
Encoding: 76 105 76
Width: 272
VWidth: 500
Flags: W
LayerCount: 2
Fore
SplineSet
265 656.5 m 0,0,1
 265 645 265 645 260.75 634.75 c 0,2,3
 256.5 624.5 256.5 624.5 248.75 616.5 c 0,4,5
 241 608.5 241 608.5 229.5 603.75 c 0,6,7
 218 599 218 599 203 599 c 0,8,9
 171.5 599 171.5 599 155.5 615.75 c 0,10,11
 139.5 632.5 139.5 632.5 139.5 656.5 c 0,12,13
 139.5 666.5 139.5 666.5 143.75 676.5 c 0,14,15
 148 686.5 148 686.5 156.25 694.75 c 0,16,17
 164.5 703 164.5 703 176.5 708.25 c 0,18,19
 188.5 713.5 188.5 713.5 204 713.5 c 0,20,21
 218.5 713.5 218.5 713.5 229.75 708.5 c 0,22,23
 241 703.5 241 703.5 249 695.5 c 0,24,25
 257 687.5 257 687.5 261 677.25 c 0,26,27
 265 667 265 667 265 656.5 c 0,0,1
269.5 29.5 m 0,28,29
 263.5 27 263.5 27 247.5 20 c 0,30,31
 231.5 13 231.5 13 210 5.75 c 0,32,33
 188.5 -1.5 188.5 -1.5 164.75 -7 c 0,34,35
 141 -12.5 141 -12.5 120 -12.5 c 0,36,37
 93.5 -12.5 93.5 -12.5 78 -3.5 c 0,38,39
 62.5 5.5 62.5 5.5 55 20 c 0,40,41
 47.5 34.5 47.5 34.5 46.5 52.5 c 0,42,43
 45.5 70.5 45.5 70.5 49 88 c 0,44,-1
 114.5 435 l 0,45,-1
 26.5 444.5 l 0,46,-1
 26.5 474 l 0,47,-1
 181 506 l 0,48,-1
 223 506 l 0,49,-1
 145.5 96.5 l 0,50,51
 143.5 86 143.5 86 145.75 76.5 c 0,52,53
 148 67 148 67 153.25 59.75 c 0,54,55
 158.5 52.5 158.5 52.5 166.75 48.25 c 0,56,57
 175 44 175 44 185.5 44 c 0,58,59
 194.5 44 194.5 44 206.75 47.25 c 0,60,61
 219 50.5 219 50.5 231.25 54.75 c 0,62,63
 243.5 59 243.5 59 254 63 c 0,64,65
 264.5 67 264.5 67 269.5 68.5 c 0,66,-1
 269.5 29.5 l 0,28,29
EndSplineSet
EndChar

StartChar: j
Encoding: 77 106 77
Width: 279
VWidth: 500
Flags: W
LayerCount: 2
Fore
SplineSet
272.5 656.5 m 0,0,1
 272.5 647.5 272.5 647.5 268 637.25 c 0,2,3
 263.5 627 263.5 627 255 618.5 c 0,4,5
 246.5 610 246.5 610 234.75 604.5 c 0,6,7
 223 599 223 599 209 599 c 0,8,9
 181 599 181 599 163.25 615.25 c 0,10,11
 145.5 631.5 145.5 631.5 145.5 656.5 c 0,12,13
 145.5 668 145.5 668 149.25 678.5 c 0,14,15
 153 689 153 689 161 697.25 c 0,16,17
 169 705.5 169 705.5 181 710.25 c 0,18,19
 193 715 193 715 209 715 c 0,20,21
 224.5 715 224.5 715 236.25 710.25 c 0,22,23
 248 705.5 248 705.5 256 697.25 c 0,24,25
 264 689 264 689 268.25 678.5 c 0,26,27
 272.5 668 272.5 668 272.5 656.5 c 0,0,1
164 82 m 0,28,29
 159.5 56.5 159.5 56.5 150.5 23 c 0,30,31
 141.5 -10.5 141.5 -10.5 127.75 -45.75 c 0,32,33
 114 -81 114 -81 95.25 -114.75 c 0,34,35
 76.5 -148.5 76.5 -148.5 52.5 -175.25 c 0,36,37
 28.5 -202 28.5 -202 -0.5 -218.25 c 0,38,39
 -29.5 -234.5 -29.5 -234.5 -63.5 -234.5 c 0,40,41
 -96 -234.5 -96 -234.5 -114 -219 c 0,42,43
 -132 -203.5 -132 -203.5 -132 -180 c 0,44,45
 -132 -170.5 -132 -170.5 -129 -163 c 0,46,47
 -126 -155.5 -126 -155.5 -121.5 -150 c 0,48,49
 -117 -144.5 -117 -144.5 -112.25 -140.5 c 0,50,51
 -107.5 -136.5 -107.5 -136.5 -103.5 -134 c 0,52,-1
 -1 -162 l 0,53,54
 6.5 -154 6.5 -154 14.25 -137.5 c 0,55,56
 22 -121 22 -121 29.5 -100.25 c 0,57,58
 37 -79.5 37 -79.5 43 -56.5 c 0,59,60
 49 -33.5 49 -33.5 53 -12.5 c 0,61,-1
 130 435 l 0,62,-1
 44 444.5 l 0,63,-1
 44 474 l 0,64,-1
 198.5 506 l 0,65,-1
 236.5 506 l 0,66,-1
 164 82 l 0,28,29
EndSplineSet
EndChar

StartChar: k
Encoding: 78 107 78
Width: 521
VWidth: 500
Flags: W
LayerCount: 2
Fore
SplineSet
509 23.5 m 0,0,1
 496 17 496 17 479.25 10.5 c 0,2,3
 462.5 4 462.5 4 445 -1 c 0,4,5
 427.5 -6 427.5 -6 410.75 -9.25 c 0,6,7
 394 -12.5 394 -12.5 382 -12.5 c 0,8,9
 369.5 -12.5 369.5 -12.5 357.5 -8.25 c 0,10,11
 345.5 -4 345.5 -4 334.75 2.75 c 0,12,13
 324 9.5 324 9.5 315 18.25 c 0,14,15
 306 27 306 27 300 36 c 0,16,17
 293 46.5 293 46.5 284.25 63.25 c 0,18,19
 275.5 80 275.5 80 265.75 100 c 0,20,21
 256 120 256 120 246 141.75 c 0,22,23
 236 163.5 236 163.5 226.75 183.75 c 0,24,25
 217.5 204 217.5 204 209.75 221.5 c 0,26,27
 202 239 202 239 196.5 250 c 0,28,-1
 149.5 208 l 0,29,-1
 107.5 0 l 0,30,-1
 13.5 0 l 0,31,-1
 149.5 684 l 0,32,-1
 59.5 693 l 0,33,-1
 59.5 724 l 0,34,-1
 218 754.5 l 0,35,-1
 259 754.5 l 0,36,-1
 164 278.5 l 0,37,-1
 329.5 449.5 l 0,38,39
 344 464.5 344 464.5 356 475.25 c 0,40,41
 368 486 368 486 379.25 492.75 c 0,42,43
 390.5 499.5 390.5 499.5 402 502.75 c 0,44,45
 413.5 506 413.5 506 427 506 c 0,46,47
 444 506 444 506 456.75 501 c 0,48,49
 469.5 496 469.5 496 477.75 488 c 0,50,51
 486 480 486 480 490 470 c 0,52,53
 494 460 494 460 493.5 450.5 c 0,54,55
 493.5 433 493.5 433 477.25 414.25 c 0,56,57
 461 395.5 461 395.5 425 383 c 0,58,-1
 390 420 l 0,59,60
 376 409 376 409 359.75 395.5 c 0,61,62
 343.5 382 343.5 382 327 368 c 0,63,64
 310.5 354 310.5 354 295.5 340.5 c 0,65,66
 280.5 327 280.5 327 268.5 316.5 c 0,67,68
 275 303.5 275 303.5 282.75 284 c 0,69,70
 290.5 264.5 290.5 264.5 299.25 242.25 c 0,71,72
 308 220 308 220 318.25 196.75 c 0,73,74
 328.5 173.5 328.5 173.5 340 152.5 c 0,75,76
 351.5 131 351.5 131 364.25 111.25 c 0,77,78
 377 91.5 377 91.5 390.5 76.25 c 0,79,80
 404 61 404 61 418 52 c 0,81,82
 432 43 432 43 445.5 43 c 0,83,84
 451 43 451 43 459 44.25 c 0,85,86
 467 45.5 467 45.5 476 47.5 c 0,87,88
 485 49.5 485 49.5 493.75 52.5 c 0,89,90
 502.5 55.5 502.5 55.5 509 58.5 c 0,91,-1
 509 23.5 l 0,0,1
EndSplineSet
EndChar

StartChar: l
Encoding: 79 108 79
Width: 271
VWidth: 500
Flags: W
LayerCount: 2
Fore
SplineSet
269.5 26.5 m 0,0,1
 263.5 24 263.5 24 247 17.75 c 0,2,3
 230.5 11.5 230.5 11.5 210 4.75 c 0,4,5
 189.5 -2 189.5 -2 167.25 -7.25 c 0,6,7
 145 -12.5 145 -12.5 127 -12.5 c 0,8,9
 103.5 -12.5 103.5 -12.5 87 -7 c 0,10,11
 70.5 -1.5 70.5 -1.5 60 8.5 c 0,12,13
 49.5 18.5 49.5 18.5 44.75 32.25 c 0,14,15
 40 46 40 46 40 62.5 c 0,16,17
 40 78 40 78 43 98.5 c 0,18,-1
 155.5 684 l 0,19,-1
 64.5 693 l 0,20,-1
 64.5 724 l 0,21,-1
 224.5 754.5 l 0,22,-1
 264 754.5 l 0,23,-1
 139.5 101.5 l 0,24,25
 137.5 91 137.5 91 140.5 80.75 c 0,26,27
 143.5 70.5 143.5 70.5 150 62.75 c 0,28,29
 156.5 55 156.5 55 166 50 c 0,30,31
 175.5 45 175.5 45 186.5 45 c 0,32,33
 194 45 194 45 206.25 47.75 c 0,34,35
 218.5 50.5 218.5 50.5 231 54 c 0,36,37
 243.5 57.5 243.5 57.5 254.25 61 c 0,38,39
 265 64.5 265 64.5 269.5 65.5 c 0,40,-1
 269.5 26.5 l 0,0,1
EndSplineSet
EndChar

StartChar: m
Encoding: 80 109 80
Width: 794
VWidth: 500
Flags: W
LayerCount: 2
Fore
SplineSet
791.5 26.5 m 0,0,1
 778.5 21 778.5 21 762.25 14.25 c 0,2,3
 746 7.5 746 7.5 728.75 1.5 c 0,4,5
 711.5 -4.5 711.5 -4.5 694.5 -8.5 c 0,6,7
 677.5 -12.5 677.5 -12.5 662.5 -12.5 c 0,8,9
 641.5 -12.5 641.5 -12.5 624.75 -7.75 c 0,10,11
 608 -3 608 -3 596.75 6 c 0,12,13
 585.5 15 585.5 15 580.75 28.5 c 0,14,15
 576 42 576 42 579.5 59.5 c 0,16,-1
 636 333 l 0,17,18
 641 358.5 641 358.5 639.5 377.5 c 0,19,20
 638 396.5 638 396.5 631.75 409 c 0,21,22
 625.5 421.5 625.5 421.5 616.25 427.75 c 0,23,24
 607 434 607 434 597 434 c 0,25,26
 573.5 434 573.5 434 551.25 423.5 c 0,27,28
 529 413 529 413 510.5 398.75 c 0,29,30
 492 384.5 492 384.5 478.5 369.75 c 0,31,32
 465 355 465 355 460 346 c 0,33,-1
 388 0 l 0,34,-1
 293 0 l 0,35,-1
 361.5 334 l 0,36,37
 365 350.5 365 350.5 364.75 368.25 c 0,38,39
 364.5 386 364.5 386 359.75 400.5 c 0,40,41
 355 415 355 415 345 424.5 c 0,42,43
 335 434 335 434 318.5 434 c 0,44,45
 300.5 434 300.5 434 280.25 423.5 c 0,46,47
 260 413 260 413 241.25 398.5 c 0,48,49
 222.5 384 222.5 384 207.25 368.75 c 0,50,51
 192 353.5 192 353.5 184.5 344 c 0,52,-1
 112.5 0 l 0,53,-1
 18.5 0 l 0,54,-1
 106.5 435 l 0,55,-1
 21.5 444.5 l 0,56,-1
 21.5 474 l 0,57,-1
 175 506 l 0,58,-1
 217 506 l 0,59,-1
 197.5 411.5 l 0,60,61
 216.5 429.5 216.5 429.5 238 446.75 c 0,62,63
 259.5 464 259.5 464 282.5 477 c 0,64,65
 305.5 490 305.5 490 329 498 c 0,66,67
 352.5 506 352.5 506 375 506 c 0,68,69
 400.5 506 400.5 506 417.25 496.5 c 0,70,71
 434 487 434 487 444.25 472.75 c 0,72,73
 454.5 458.5 454.5 458.5 459.25 442 c 0,74,75
 464 425.5 464 425.5 466 411.5 c 0,76,77
 484.5 430 484.5 430 507 447 c 0,78,79
 529.5 464 529.5 464 554 477.25 c 0,80,81
 578.5 490.5 578.5 490.5 603.75 498.25 c 0,82,83
 629 506 629 506 652.5 506 c 0,84,85
 678 506 678 506 697.25 496.75 c 0,86,87
 716.5 487.5 716.5 487.5 728.25 470.5 c 0,88,89
 740 453.5 740 453.5 743.25 429.5 c 0,90,91
 746.5 405.5 746.5 405.5 740.5 376 c 0,92,-1
 683 99.5 l 0,93,94
 680.5 87 680.5 87 683.5 76.75 c 0,95,96
 686.5 66.5 686.5 66.5 692.75 59 c 0,97,98
 699 51.5 699 51.5 708 47.25 c 0,99,100
 717 43 717 43 727 43 c 0,101,102
 739.5 43 739.5 43 756 49 c 0,103,104
 772.5 55 772.5 55 791.5 61.5 c 0,105,-1
 791.5 26.5 l 0,0,1
EndSplineSet
EndChar

StartChar: n
Encoding: 81 110 81
Width: 542
VWidth: 500
Flags: W
LayerCount: 2
Fore
SplineSet
539.5 20.5 m 0,0,1
 533 18 533 18 516.75 12.75 c 0,2,3
 500.5 7.5 500.5 7.5 480.5 1.75 c 0,4,5
 460.5 -4 460.5 -4 439.5 -8.25 c 0,6,7
 418.5 -12.5 418.5 -12.5 402.5 -12.5 c 0,8,9
 393.5 -12.5 393.5 -12.5 377.75 -10.75 c 0,10,11
 362 -9 362 -9 347.5 -2.75 c 0,12,13
 333 3.5 333 3.5 324 15.5 c 0,14,15
 315 27.5 315 27.5 319.5 48 c 0,16,-1
 382 362.5 l 0,17,18
 385.5 383 385.5 383 382.25 396.5 c 0,19,20
 379 410 379 410 371.75 418.25 c 0,21,22
 364.5 426.5 364.5 426.5 355 429.75 c 0,23,24
 345.5 433 345.5 433 337 433 c 0,25,26
 324.5 433 324.5 433 306.25 425.75 c 0,27,28
 288 418.5 288 418.5 267.75 406.5 c 0,29,30
 247.5 394.5 247.5 394.5 227 378.25 c 0,31,32
 206.5 362 206.5 362 189.5 344 c 0,33,-1
 119 0 l 0,34,-1
 23.5 0 l 0,35,-1
 112.5 435 l 0,36,-1
 26.5 444.5 l 0,37,-1
 26.5 474 l 0,38,-1
 181 506 l 0,39,-1
 222 506 l 0,40,-1
 203 410.5 l 0,41,42
 220 427.5 220 427.5 242 444.75 c 0,43,44
 264 462 264 462 289 475.5 c 0,45,46
 314 489 314 489 340.75 497.5 c 0,47,48
 367.5 506 367.5 506 393 506 c 0,49,50
 449 506 449 506 472.75 475 c 0,51,52
 496.5 444 496.5 444 484.5 375 c 0,53,-1
 430 86 l 0,54,55
 427.5 71.5 427.5 71.5 432.25 63 c 0,56,57
 437 54.5 437 54.5 444.75 50 c 0,58,59
 452.5 45.5 452.5 45.5 461 44.25 c 0,60,61
 469.5 43 469.5 43 474 43 c 0,62,63
 488 43 488 43 504.5 47 c 0,64,65
 521 51 521 51 538.5 56.5 c 0,66,-1
 539.5 20.5 l 0,0,1
EndSplineSet
EndChar

StartChar: o
Encoding: 82 111 82
Width: 518
VWidth: 500
Flags: W
LayerCount: 2
Fore
SplineSet
486.5 307 m 0,0,1
 486.5 265.5 486.5 265.5 477.25 225.75 c 0,2,3
 468 186 468 186 450.75 150.5 c 0,4,5
 433.5 115 433.5 115 409.25 85.25 c 0,6,7
 385 55.5 385 55.5 354.75 33.75 c 0,8,9
 324.5 12 324.5 12 289 -0.25 c 0,10,11
 253.5 -12.5 253.5 -12.5 214 -12.5 c 0,12,13
 172 -12.5 172 -12.5 138 1 c 0,14,15
 104 14.5 104 14.5 80.5 39.75 c 0,16,17
 57 65 57 65 44.25 100.75 c 0,18,19
 31.5 136.5 31.5 136.5 31.5 181 c 0,20,21
 31.5 222.5 31.5 222.5 40.5 262.75 c 0,22,23
 49.5 303 49.5 303 66.25 339 c 0,24,25
 83 375 83 375 107 405.75 c 0,26,27
 131 436.5 131 436.5 161.25 458.75 c 0,28,29
 191.5 481 191.5 481 227.25 493.5 c 0,30,31
 263 506 263 506 303 506 c 0,32,33
 340 506 340 506 373.25 494.5 c 0,34,35
 406.5 483 406.5 483 431.75 458.5 c 0,36,37
 457 434 457 434 471.75 396.5 c 0,38,39
 486.5 359 486.5 359 486.5 307 c 0,0,1
383 311.5 m 0,40,41
 383 348 383 348 376 376 c 0,42,43
 369 404 369 404 357 423 c 0,44,45
 345 442 345 442 328.25 452 c 0,46,47
 311.5 462 311.5 462 292 462 c 0,48,49
 258.5 462 258.5 462 229.75 437.75 c 0,50,51
 201 413.5 201 413.5 180 374.25 c 0,52,53
 159 335 159 335 147 285.75 c 0,54,55
 135 236.5 135 236.5 135 186.5 c 0,56,57
 135 148.5 135 148.5 142 120 c 0,58,59
 149 91.5 149 91.5 161.5 72.25 c 0,60,61
 174 53 174 53 190.5 43.5 c 0,62,63
 207 34 207 34 226.5 34 c 0,64,65
 250.5 34 250.5 34 271.75 46.25 c 0,66,67
 293 58.5 293 58.5 310.25 79.25 c 0,68,69
 327.5 100 327.5 100 341 127.5 c 0,70,71
 354.5 155 354.5 155 364 185.75 c 0,72,73
 373.5 216.5 373.5 216.5 378.25 249 c 0,74,75
 383 281.5 383 281.5 383 311.5 c 0,40,41
EndSplineSet
EndChar

StartChar: p
Encoding: 83 112 83
Width: 506
VWidth: 500
Flags: W
LayerCount: 2
Fore
SplineSet
473 316.5 m 0,0,1
 473 274.5 473 274.5 463 233.75 c 0,2,3
 453 193 453 193 434.25 156.5 c 0,4,5
 415.5 120 415.5 120 389 89 c 0,6,7
 362.5 58 362.5 58 330 35.5 c 0,8,9
 297.5 13 297.5 13 259.5 0.25 c 0,10,11
 221.5 -12.5 221.5 -12.5 180 -12.5 c 0,12,13
 157 -12.5 157 -12.5 138.5 -6 c 0,14,15
 120 0.5 120 0.5 107.5 6 c 0,16,-1
 75 -158.5 l 0,17,18
 73 -167 73 -167 77.25 -172.25 c 0,19,20
 81.5 -177.5 81.5 -177.5 95 -179 c 0,21,-1
 159.5 -184.5 l 0,22,-1
 159.5 -223 l 0,23,-1
 -98.5 -223 l 0,24,-1
 -98.5 -184.5 l 0,25,-1
 -45 -179 l 0,26,27
 -23.5 -177.5 -23.5 -177.5 -20.5 -158.5 c 0,28,-1
 95 435 l 0,29,-1
 9 444.5 l 0,30,-1
 9 474 l 0,31,-1
 164 506 l 0,32,-1
 204 506 l 0,33,-1
 191.5 442.5 l 0,34,35
 204.5 451 204.5 451 221.25 462 c 0,36,37
 238 473 238 473 257 482.75 c 0,38,39
 276 492.5 276 492.5 296.75 499.25 c 0,40,41
 317.5 506 317.5 506 339 506 c 0,42,43
 378 506 378 506 403.75 489.25 c 0,44,45
 429.5 472.5 429.5 472.5 444.75 445.5 c 0,46,47
 460 418.5 460 418.5 466.5 384.5 c 0,48,49
 473 350.5 473 350.5 473 316.5 c 0,0,1
371.5 312.5 m 0,50,51
 371.5 335 371.5 335 366.75 358.25 c 0,52,53
 362 381.5 362 381.5 352.25 400.5 c 0,54,55
 342.5 419.5 342.5 419.5 327.5 431.5 c 0,56,57
 312.5 443.5 312.5 443.5 292 443.5 c 0,58,59
 273.5 443.5 273.5 443.5 255 435.25 c 0,60,61
 236.5 427 236.5 427 221.25 416.75 c 0,62,63
 206 406.5 206 406.5 195 396.75 c 0,64,65
 184 387 184 387 180 384 c 0,66,-1
 119 66.5 l 0,67,68
 123.5 64 123.5 64 131.75 58.75 c 0,69,70
 140 53.5 140 53.5 151 48.5 c 0,71,72
 162 43.5 162 43.5 174.5 39.75 c 0,73,74
 187 36 187 36 200.5 36 c 0,75,76
 228.5 36 228.5 36 252 48.5 c 0,77,78
 275.5 61 275.5 61 294.5 82.25 c 0,79,80
 313.5 103.5 313.5 103.5 328 131.5 c 0,81,82
 342.5 159.5 342.5 159.5 352 190.25 c 0,83,84
 361.5 221 361.5 221 366.5 252.5 c 0,85,86
 371.5 284 371.5 284 371.5 312.5 c 0,50,51
EndSplineSet
EndChar

StartChar: q
Encoding: 84 113 84
Width: 534
VWidth: 500
Flags: W
LayerCount: 2
Fore
SplineSet
371.5 -158.5 m 0,0,1
 370 -167 370 -167 374.25 -172.25 c 0,2,3
 378.5 -177.5 378.5 -177.5 392 -179 c 0,4,-1
 455.5 -184.5 l 0,5,-1
 455.5 -223 l 0,6,-1
 197.5 -223 l 0,7,-1
 197.5 -184.5 l 0,8,-1
 252 -179 l 0,9,10
 262 -178 262 -178 268.5 -173.25 c 0,11,12
 275 -168.5 275 -168.5 277.5 -158.5 c 0,13,-1
 319.5 54.5 l 0,14,15
 284 25 284 25 247 6.25 c 0,16,17
 210 -12.5 210 -12.5 174 -12.5 c 0,18,19
 143 -12.5 143 -12.5 117.25 -0.75 c 0,20,21
 91.5 11 91.5 11 72.75 34.5 c 0,22,23
 54 58 54 58 43.5 92.5 c 0,24,25
 33 127 33 127 33 173 c 0,26,27
 33 212.5 33 212.5 42.5 252.5 c 0,28,29
 52 292.5 52 292.5 69.5 329.5 c 0,30,31
 87 366.5 87 366.5 112.5 398.75 c 0,32,33
 138 431 138 431 170 454.75 c 0,34,35
 202 478.5 202 478.5 240 492.25 c 0,36,37
 278 506 278 506 320.5 506 c 0,38,39
 353 506 353 506 378 496.5 c 0,40,41
 403 487 403 487 417 476 c 0,42,-1
 441.5 506 l 0,43,-1
 503 506 l 0,44,-1
 371.5 -158.5 l 0,0,1
386 397.5 m 0,45,46
 387 403 387 403 381.25 413.25 c 0,47,48
 375.5 423.5 375.5 423.5 366.75 433.75 c 0,49,50
 358 444 358 444 348.75 451.5 c 0,51,52
 339.5 459 339.5 459 334 459 c 0,53,54
 292 459 292 459 255.25 437.5 c 0,55,56
 218.5 416 218.5 416 191 378 c 0,57,58
 163.5 340 163.5 340 147.75 288.5 c 0,59,60
 132 237 132 237 132 177 c 0,61,62
 132 148 132 148 137.75 124.5 c 0,63,64
 143.5 101 143.5 101 154.25 84.5 c 0,65,66
 165 68 165 68 180.5 59 c 0,67,68
 196 50 196 50 215 50 c 0,69,70
 230.5 50 230.5 50 245.75 55.75 c 0,71,72
 261 61.5 261 61.5 275.25 71 c 0,73,74
 289.5 80.5 289.5 80.5 303.5 92 c 0,75,76
 317.5 103.5 317.5 103.5 331 115.5 c 0,77,-1
 386 397.5 l 0,45,46
EndSplineSet
EndChar

StartChar: r
Encoding: 85 114 85
Width: 383
VWidth: 500
Flags: W
LayerCount: 2
Fore
SplineSet
419 437 m 0,0,1
 419 419 419 419 412.5 408.25 c 0,2,3
 406 397.5 406 397.5 394 392 c 0,4,5
 382 386.5 382 386.5 365.25 384.75 c 0,6,7
 348.5 383 348.5 383 327.5 383 c 0,8,-1
 303 432 l 0,9,10
 284 424 284 424 262.25 404.25 c 0,11,12
 240.5 384.5 240.5 384.5 221 359.25 c 0,13,14
 201.5 334 201.5 334 187 307.25 c 0,15,16
 172.5 280.5 172.5 280.5 168 258 c 0,17,-1
 114.5 0 l 0,18,-1
 19.5 0 l 0,19,-1
 107.5 435 l 0,20,-1
 21.5 444.5 l 0,21,-1
 21.5 474 l 0,22,-1
 176 506 l 0,23,-1
 217 506 l 0,24,-1
 195.5 402.5 l 0,25,26
 227 451 227 451 267 478.5 c 0,27,28
 307 506 307 506 353.5 506 c 0,29,30
 372 506 372 506 384.5 499.25 c 0,31,32
 397 492.5 397 492.5 404.75 482 c 0,33,34
 412.5 471.5 412.5 471.5 415.75 459.5 c 0,35,36
 419 447.5 419 447.5 419 437 c 0,0,1
EndSplineSet
EndChar

StartChar: s
Encoding: 86 115 86
Width: 379
VWidth: 500
Flags: W
LayerCount: 2
Fore
SplineSet
357.5 441.5 m 0,0,1
 357.5 423.5 357.5 423.5 349.5 412.75 c 0,2,3
 341.5 402 341.5 402 330 396 c 0,4,5
 318.5 390 318.5 390 305.75 387.75 c 0,6,7
 293 385.5 293 385.5 283.5 385 c 0,8,-1
 237.5 447.5 l 0,9,10
 234.5 450 234.5 450 228 452.75 c 0,11,12
 221.5 455.5 221.5 455.5 212 455.5 c 0,13,14
 195 455.5 195 455.5 183.5 448.25 c 0,15,16
 172 441 172 441 164.75 430.25 c 0,17,18
 157.5 419.5 157.5 419.5 154.5 407.25 c 0,19,20
 151.5 395 151.5 395 151.5 385 c 0,21,22
 151.5 371 151.5 371 159.5 356.75 c 0,23,24
 167.5 342.5 167.5 342.5 180.5 328.25 c 0,25,26
 193.5 314 193.5 314 209.75 300.25 c 0,27,28
 226 286.5 226 286.5 242.5 273.5 c 0,29,30
 259.5 260 259.5 260 275.25 245.75 c 0,31,32
 291 231.5 291 231.5 303.5 216.25 c 0,33,34
 316 201 316 201 323.5 184 c 0,35,36
 331 167 331 167 331 148.5 c 0,37,38
 331 117 331 117 318.25 88 c 0,39,40
 305.5 59 305.5 59 280.75 36.5 c 0,41,42
 256 14 256 14 219.25 0.75 c 0,43,44
 182.5 -12.5 182.5 -12.5 135 -12.5 c 0,45,46
 98 -12.5 98 -12.5 71 -4.25 c 0,47,48
 44 4 44 4 26.5 17.25 c 0,49,50
 9 30.5 9 30.5 0.5 47.5 c 0,51,52
 -8 64.5 -8 64.5 -8 82 c 0,53,54
 -8 106.5 -8 106.5 6.75 121.75 c 0,55,56
 21.5 137 21.5 137 53 137 c 0,57,58
 62.5 137 62.5 137 71 134.5 c 0,59,60
 79.5 132 79.5 132 86.5 128.75 c 0,61,62
 93.5 125.5 93.5 125.5 98.75 121.75 c 0,63,64
 104 118 104 118 106.5 115.5 c 0,65,-1
 87 65.5 l 0,66,67
 98 50 98 50 114.25 39.25 c 0,68,69
 130.5 28.5 130.5 28.5 156.5 28.5 c 0,70,71
 172 28.5 172 28.5 186.5 34.5 c 0,72,73
 201 40.5 201 40.5 212.25 51.5 c 0,74,75
 223.5 62.5 223.5 62.5 230 78.25 c 0,76,77
 236.5 94 236.5 94 236.5 113.5 c 0,78,79
 236.5 129 236.5 129 230.25 142.75 c 0,80,81
 224 156.5 224 156.5 212.75 169.5 c 0,82,83
 201.5 182.5 201.5 182.5 186.25 195.25 c 0,84,85
 171 208 171 208 152.5 222 c 0,86,87
 136.5 234.5 136.5 234.5 121.75 249 c 0,88,89
 107 263.5 107 263.5 95.25 279.75 c 0,90,91
 83.5 296 83.5 296 76.5 314 c 0,92,93
 69.5 332 69.5 332 69.5 351 c 0,94,95
 69.5 388.5 69.5 388.5 86.5 417.5 c 0,96,97
 103.5 446.5 103.5 446.5 130.25 466.25 c 0,98,99
 157 486 157 486 189.75 496 c 0,100,101
 222.5 506 222.5 506 254 506 c 0,102,103
 283 506 283 506 302.75 499.25 c 0,104,105
 322.5 492.5 322.5 492.5 334.75 482.75 c 0,106,107
 347 473 347 473 352.25 461.75 c 0,108,109
 357.5 450.5 357.5 450.5 357.5 441.5 c 0,0,1
EndSplineSet
EndChar

StartChar: t
Encoding: 87 116 87
Width: 307
VWidth: 500
Flags: W
LayerCount: 2
Fore
SplineSet
207 429 m 0,0,-1
 142.5 107.5 l 0,1,2
 139.5 94 139.5 94 143.5 83.25 c 0,3,4
 147.5 72.5 147.5 72.5 156.25 65.25 c 0,5,6
 165 58 165 58 176.75 54 c 0,7,8
 188.5 50 188.5 50 201.5 50 c 0,9,10
 216 50 216 50 231.5 52.75 c 0,11,12
 247 55.5 247 55.5 261.25 59.5 c 0,13,14
 275.5 63.5 275.5 63.5 287.75 67.75 c 0,15,16
 300 72 300 72 308 75 c 0,17,-1
 308 34 l 0,18,19
 301.5 31 301.5 31 283 23.5 c 0,20,21
 264.5 16 264.5 16 240.5 8 c 0,22,23
 216.5 0 216.5 0 190 -6.25 c 0,24,25
 163.5 -12.5 163.5 -12.5 141.5 -12.5 c 0,26,27
 113.5 -12.5 113.5 -12.5 95 -5.75 c 0,28,29
 76.5 1 76.5 1 65.5 12.75 c 0,30,31
 54.5 24.5 54.5 24.5 49.75 40.75 c 0,32,33
 45 57 45 57 45 76 c 0,34,35
 45 86 45 86 45.75 96.5 c 0,36,37
 46.5 107 46.5 107 49 118 c 0,38,-1
 111.5 429 l 0,39,-1
 47 423 l 0,40,-1
 47 456.5 l 0,41,-1
 124 490.5 l 0,42,-1
 174 593 l 0,43,-1
 236.5 593 l 0,44,-1
 216 476 l 0,45,-1
 357.5 476 l 0,46,-1
 357.5 429 l 0,47,-1
 207 429 l 0,0,-1
EndSplineSet
EndChar

StartChar: u
Encoding: 88 117 88
Width: 539
VWidth: 500
Flags: W
LayerCount: 2
Fore
SplineSet
536.5 24.5 m 0,0,1
 527 19 527 19 510.25 12.5 c 0,2,3
 493.5 6 493.5 6 474 0.5 c 0,4,5
 454.5 -5 454.5 -5 434.25 -8.75 c 0,6,7
 414 -12.5 414 -12.5 397.5 -12.5 c 0,8,9
 368.5 -12.5 368.5 -12.5 354.5 -2.75 c 0,10,11
 340.5 7 340.5 7 335.25 19.75 c 0,12,13
 330 32.5 330 32.5 330.5 45.5 c 0,14,15
 331 58.5 331 58.5 331 64.5 c 0,16,17
 290.5 26 290.5 26 246.25 6.75 c 0,18,19
 202 -12.5 202 -12.5 150.5 -12.5 c 0,20,21
 115 -12.5 115 -12.5 92.5 0 c 0,22,23
 70 12.5 70 12.5 58.5 31.5 c 0,24,25
 47 50.5 47 50.5 44.5 73 c 0,26,27
 42 95.5 42 95.5 46 115.5 c 0,28,-1
 112.5 435 l 0,29,-1
 26.5 444.5 l 0,30,-1
 26.5 474 l 0,31,-1
 181 506 l 0,32,-1
 223 506 l 0,33,-1
 141.5 115.5 l 0,34,35
 138.5 102.5 138.5 102.5 142.75 90.75 c 0,36,37
 147 79 147 79 155.25 70.25 c 0,38,39
 163.5 61.5 163.5 61.5 174 56.25 c 0,40,41
 184.5 51 184.5 51 194.5 51 c 0,42,43
 213 51 213 51 231.75 56.25 c 0,44,45
 250.5 61.5 250.5 61.5 269 70.5 c 0,46,47
 287.5 79.5 287.5 79.5 304.5 91.25 c 0,48,49
 321.5 103 321.5 103 336 116.5 c 0,50,-1
 413.5 493.5 l 0,51,-1
 509 493.5 l 0,52,-1
 427 99.5 l 0,53,54
 423.5 83.5 423.5 83.5 427 72.75 c 0,55,56
 430.5 62 430.5 62 437.75 55 c 0,57,58
 445 48 445 48 454.25 45 c 0,59,60
 463.5 42 463.5 42 472 42 c 0,61,62
 482 42 482 42 498.5 45 c 0,63,64
 515 48 515 48 536.5 60.5 c 0,65,-1
 536.5 24.5 l 0,0,1
EndSplineSet
EndChar

StartChar: v
Encoding: 89 118 89
Width: 473
VWidth: 500
Flags: W
LayerCount: 2
Fore
SplineSet
478 444.5 m 0,0,1
 478 431.5 478 431.5 475.5 420 c 0,2,3
 473 408.5 473 408.5 469.75 398.5 c 0,4,5
 466.5 388.5 466.5 388.5 462.75 380.5 c 0,6,7
 459 372.5 459 372.5 456.5 367.5 c 0,8,9
 422.5 304.5 422.5 304.5 383.5 247 c 0,10,11
 344.5 189.5 344.5 189.5 307 140.75 c 0,12,13
 269.5 92 269.5 92 236 52.75 c 0,14,15
 202.5 13.5 202.5 13.5 179 -12.5 c 0,16,-1
 120 -12.5 l 0,17,18
 130.5 10 130.5 10 136 29.25 c 0,19,20
 141.5 48.5 141.5 48.5 140.5 65.5 c 0,21,22
 140.5 67 140.5 67 139.5 80.75 c 0,23,24
 138.5 94.5 138.5 94.5 136.75 116.25 c 0,25,26
 135 138 135 138 132.5 166 c 0,27,28
 130 194 130 194 127 224 c 0,29,30
 124 254 124 254 120.75 284.25 c 0,31,32
 117.5 314.5 117.5 314.5 113.75 340.75 c 0,33,34
 110 367 110 367 106.25 387.25 c 0,35,36
 102.5 407.5 102.5 407.5 98.5 418 c 0,37,38
 93.5 428.5 93.5 428.5 88.5 433.5 c 0,39,40
 83.5 438.5 83.5 438.5 75 438.5 c 0,41,-1
 2 442.5 l 0,42,-1
 2 472 l 0,43,-1
 111.5 506 l 0,44,45
 153.5 505 153.5 505 172.5 487.25 c 0,46,47
 191.5 469.5 191.5 469.5 195.5 433 c 0,48,-1
 227.5 118 l 0,49,50
 253.5 152 253.5 152 275.5 182.75 c 0,51,52
 297.5 213.5 297.5 213.5 315.75 242.5 c 0,53,54
 334 271.5 334 271.5 349 300.25 c 0,55,56
 364 329 364 329 376 359.5 c 0,57,-1
 356.5 483.5 l 0,58,59
 366.5 493.5 366.5 493.5 381.5 499.75 c 0,60,61
 396.5 506 396.5 506 415.5 506 c 0,62,63
 448.5 506 448.5 506 463.25 489.25 c 0,64,65
 478 472.5 478 472.5 478 444.5 c 0,0,1
EndSplineSet
EndChar

StartChar: w
Encoding: 90 119 90
Width: 719
VWidth: 500
Flags: W
LayerCount: 2
Fore
SplineSet
723 445.5 m 0,0,1
 723 424 723 424 712 394 c 0,2,3
 701 364 701 364 683 329.25 c 0,4,5
 665 294.5 665 294.5 641.5 257 c 0,6,7
 618 219.5 618 219.5 593.25 183 c 0,8,9
 568.5 146.5 568.5 146.5 544.25 113.25 c 0,10,11
 520 80 520 80 500 53.5 c 0,12,13
 480 27 480 27 466.25 9.5 c 0,14,15
 452.5 -8 452.5 -8 448.5 -12.5 c 0,16,-1
 385 -12.5 l 0,17,-1
 362.5 337 l 0,18,19
 340 288.5 340 288.5 315.5 240.25 c 0,20,21
 291 192 291 192 266.5 147 c 0,22,23
 242 102 242 102 218.25 61.25 c 0,24,25
 194.5 20.5 194.5 20.5 173 -12.5 c 0,26,-1
 97.5 -12.5 l 0,27,-1
 107.5 11.5 l 0,28,-1
 79 434 l 0,29,-1
 2 442.5 l 0,30,-1
 2 471 l 0,31,-1
 126 506 l 0,32,-1
 172 503 l 0,33,-1
 194.5 120 l 0,34,35
 214.5 156.5 214.5 156.5 236.5 200.5 c 0,36,37
 258.5 244.5 258.5 244.5 281 291.25 c 0,38,39
 303.5 338 303.5 338 325.5 386.25 c 0,40,41
 347.5 434.5 347.5 434.5 367.5 480.5 c 0,42,-1
 444.5 489.5 l 0,43,-1
 470 99.5 l 0,44,45
 517.5 160.5 517.5 160.5 553.5 225 c 0,46,47
 589.5 289.5 589.5 289.5 620.5 360.5 c 0,48,-1
 600 480.5 l 0,49,50
 602 482.5 602 482.5 606.75 486.75 c 0,51,52
 611.5 491 611.5 491 619.5 495.25 c 0,53,54
 627.5 499.5 627.5 499.5 638 502.75 c 0,55,56
 648.5 506 648.5 506 661.5 506 c 0,57,58
 680 506 680 506 691.75 498.75 c 0,59,60
 703.5 491.5 703.5 491.5 710.5 481.75 c 0,61,62
 717.5 472 717.5 472 720.25 461.75 c 0,63,64
 723 451.5 723 451.5 723 445.5 c 0,0,1
EndSplineSet
EndChar

StartChar: x
Encoding: 91 120 91
Width: 540
VWidth: 500
Flags: W
LayerCount: 2
Fore
SplineSet
552 445.5 m 0,0,1
 552 425.5 552 425.5 538.75 407.25 c 0,2,3
 525.5 389 525.5 389 495.5 379 c 0,4,-1
 450.5 419 l 0,5,6
 437 413.5 437 413.5 420.5 399.25 c 0,7,8
 404 385 404 385 386.75 362.75 c 0,9,10
 369.5 340.5 369.5 340.5 352.5 311 c 0,11,12
 335.5 281.5 335.5 281.5 320.5 246 c 0,13,14
 323.5 236.5 323.5 236.5 327.75 222.25 c 0,15,16
 332 208 332 208 337.5 191.25 c 0,17,18
 343 174.5 343 174.5 349.25 156.75 c 0,19,20
 355.5 139 355.5 139 362.5 123 c 0,21,22
 370 106.5 370 106.5 378.25 92 c 0,23,24
 386.5 77.5 386.5 77.5 395.5 66.5 c 0,25,26
 404.5 55.5 404.5 55.5 413.75 49.25 c 0,27,28
 423 43 423 43 432 43 c 0,29,30
 443.5 43 443.5 43 456.75 45.25 c 0,31,32
 470 47.5 470 47.5 490.5 57.5 c 0,33,-1
 490.5 20.5 l 0,34,35
 461 5 461 5 432.25 -3.75 c 0,36,37
 403.5 -12.5 403.5 -12.5 370.5 -12.5 c 0,38,39
 353.5 -12.5 353.5 -12.5 339 -3.25 c 0,40,41
 324.5 6 324.5 6 312.25 21 c 0,42,43
 300 36 300 36 289.75 55.75 c 0,44,45
 279.5 75.5 279.5 75.5 271.5 96.5 c 0,46,47
 263.5 117.5 263.5 117.5 257.25 138.5 c 0,48,49
 251 159.5 251 159.5 247 177 c 0,50,51
 232.5 150 232.5 150 213.75 117.25 c 0,52,53
 195 84.5 195 84.5 171 55.5 c 0,54,55
 147 26.5 147 26.5 117.75 7 c 0,56,57
 88.5 -12.5 88.5 -12.5 53 -12.5 c 0,58,59
 21.5 -12.5 21.5 -12.5 1.5 2.25 c 0,60,61
 -18.5 17 -18.5 17 -18.5 44 c 0,62,63
 -18.5 69 -18.5 69 -2.25 84 c 0,64,65
 14 99 14 99 45 104.5 c 0,66,-1
 88 63.5 l 0,67,68
 103.5 73 103.5 73 120.75 89.5 c 0,69,70
 138 106 138 106 155.75 129.25 c 0,71,72
 173.5 152.5 173.5 152.5 190.25 182.5 c 0,73,74
 207 212.5 207 212.5 221 249 c 0,75,76
 218.5 259 218.5 259 213 276.5 c 0,77,78
 207.5 294 207.5 294 199.75 313.75 c 0,79,80
 192 333.5 192 333.5 183.5 354 c 0,81,82
 175 374.5 175 374.5 167 391.25 c 0,83,84
 159 408 159 408 152.5 418.75 c 0,85,86
 146 429.5 146 429.5 142.5 430 c 0,87,-1
 53 441.5 l 0,88,-1
 53 469 l 0,89,90
 57.5 470.5 57.5 470.5 67.5 473.75 c 0,91,92
 77.5 477 77.5 477 90.25 481.25 c 0,93,94
 103 485.5 103 485.5 116.75 489.75 c 0,95,96
 130.5 494 130.5 494 142.5 497.75 c 0,97,98
 154.5 501.5 154.5 501.5 163.5 503.75 c 0,99,100
 172.5 506 172.5 506 176 506 c 0,101,102
 194 506 194 506 210 493 c 0,103,104
 226 480 226 480 240.25 455 c 0,105,106
 254.5 430 254.5 430 267.25 394 c 0,107,108
 280 358 280 358 292 311.5 c 0,109,110
 307 340.5 307 340.5 327.75 374.5 c 0,111,112
 348.5 408.5 348.5 408.5 373.5 437.75 c 0,113,114
 398.5 467 398.5 467 427.75 486.5 c 0,115,116
 457 506 457 506 489.5 506 c 0,117,118
 517.5 506 517.5 506 534.75 489.25 c 0,119,120
 552 472.5 552 472.5 552 445.5 c 0,0,1
EndSplineSet
EndChar

StartChar: y
Encoding: 92 121 92
Width: 509
VWidth: 500
Flags: W
LayerCount: 2
Fore
SplineSet
485.5 423 m 0,0,1
 479.5 417 479.5 417 468 401 c 0,2,3
 456.5 385 456.5 385 444.25 365 c 0,4,5
 432 345 432 345 420.25 323.75 c 0,6,7
 408.5 302.5 408.5 302.5 401.5 286.5 c 0,8,9
 390.5 262 390.5 262 375.75 227 c 0,10,11
 361 192 361 192 342.75 151.75 c 0,12,13
 324.5 111.5 324.5 111.5 303 68.25 c 0,14,15
 281.5 25 281.5 25 257 -16.5 c 0,16,17
 233 -57 233 -57 205.75 -96.25 c 0,18,19
 178.5 -135.5 178.5 -135.5 148 -166.25 c 0,20,21
 117.5 -197 117.5 -197 83.75 -215.75 c 0,22,23
 50 -234.5 50 -234.5 13.5 -234.5 c 0,24,25
 -14.5 -234.5 -14.5 -234.5 -33 -227.5 c 0,26,27
 -51.5 -220.5 -51.5 -220.5 -62.5 -210.25 c 0,28,29
 -73.5 -200 -73.5 -200 -77.75 -188.25 c 0,30,31
 -82 -176.5 -82 -176.5 -82 -167 c 0,32,33
 -82 -155.5 -82 -155.5 -76.75 -144.75 c 0,34,35
 -71.5 -134 -71.5 -134 -62 -125.75 c 0,36,37
 -52.5 -117.5 -52.5 -117.5 -39.5 -112.5 c 0,38,39
 -26.5 -107.5 -26.5 -107.5 -11.5 -106.5 c 0,40,-1
 48 -166 l 0,41,42
 64 -164.5 64 -164.5 79.5 -153.25 c 0,43,44
 95 -142 95 -142 112.25 -119.5 c 0,45,46
 129.5 -97 129.5 -97 150 -63 c 0,47,48
 170.5 -29 170.5 -29 196.5 18.5 c 0,49,50
 195.5 24.5 195.5 24.5 191.5 45.25 c 0,51,52
 187.5 66 187.5 66 181.75 95.75 c 0,53,54
 176 125.5 176 125.5 168.75 161.5 c 0,55,56
 161.5 197.5 161.5 197.5 153.5 234.5 c 0,57,58
 145.5 270.5 145.5 270.5 136.75 306.75 c 0,59,60
 128 343 128 343 119.75 372 c 0,61,62
 111.5 401 111.5 401 105 419.5 c 0,63,64
 98.5 438 98.5 438 95 438.5 c 0,65,-1
 2 445.5 l 0,66,-1
 2 471 l 0,67,-1
 16 475.5 l 0,68,69
 26 479 26 479 38 482.75 c 0,70,71
 50 486.5 50 486.5 63.5 490.75 c 0,72,73
 77 495 77 495 89 498.25 c 0,74,75
 101 501.5 101 501.5 110.75 503.75 c 0,76,77
 120.5 506 120.5 506 125 506 c 0,78,79
 141.5 506 141.5 506 154 498.25 c 0,80,81
 166.5 490.5 166.5 490.5 176.25 476 c 0,82,83
 186 461.5 186 461.5 194.25 441.25 c 0,84,85
 202.5 421 202.5 421 210 395.5 c 0,86,87
 223 350 223 350 237 282.75 c 0,88,89
 251 215.5 251 215.5 266 133 c 0,90,-1
 422 506 l 0,91,-1
 451.5 506 l 0,92,-1
 536.5 478 l 0,93,-1
 536.5 454.5 l 0,94,-1
 485.5 423 l 0,0,1
EndSplineSet
EndChar

StartChar: z
Encoding: 93 122 93
Width: 455
VWidth: 500
Flags: W
LayerCount: 2
Fore
SplineSet
113.5 72.5 m 0,0,-1
 199.5 95 l 0,1,2
 210 91 210 91 223.5 85.25 c 0,3,4
 237 79.5 237 79.5 251.25 74 c 0,5,6
 265.5 68.5 265.5 68.5 279 64.5 c 0,7,8
 292.5 60.5 292.5 60.5 303 60.5 c 0,9,10
 314 60.5 314 60.5 322.25 63.75 c 0,11,12
 330.5 67 330.5 67 336.75 72 c 0,13,14
 343 77 343 77 348 82.75 c 0,15,16
 353 88.5 353 88.5 357.5 94 c 0,17,-1
 301 156.5 l 0,18,19
 306 165.5 306 165.5 313 172.75 c 0,20,21
 320 180 320 180 327.75 185 c 0,22,23
 335.5 190 335.5 190 343.5 192.75 c 0,24,25
 351.5 195.5 351.5 195.5 358.5 195.5 c 0,26,27
 372.5 195.5 372.5 195.5 383.25 189.75 c 0,28,29
 394 184 394 184 401.5 175 c 0,30,31
 409 166 409 166 413 154.5 c 0,32,33
 417 143 417 143 417 132 c 0,34,35
 417 101 417 101 403.25 74.5 c 0,36,37
 389.5 48 389.5 48 367.75 28.75 c 0,38,39
 346 9.5 346 9.5 319.75 -1.5 c 0,40,41
 293.5 -12.5 293.5 -12.5 268.5 -12.5 c 0,42,43
 245 -12.5 245 -12.5 223.75 -5.75 c 0,44,45
 202.5 1 202.5 1 182.75 9.25 c 0,46,47
 163 17.5 163 17.5 144 24.5 c 0,48,49
 125 31.5 125 31.5 106.5 31.5 c 0,50,51
 102.5 31.5 102.5 31.5 94.75 30 c 0,52,53
 87 28.5 87 28.5 80 21.5 c 0,54,-1
 54.5 -26.5 l 0,55,-1
 -16.5 11.5 l 0,56,-1
 331 418 l 0,57,-1
 240.5 398.5 l 0,58,59
 219.5 410 219.5 410 197 419 c 0,60,61
 174.5 428 174.5 428 153.5 428 c 0,62,63
 147 428 147 428 139 426 c 0,64,65
 131 424 131 424 123.5 420.25 c 0,66,67
 116 416.5 116 416.5 109.25 411 c 0,68,69
 102.5 405.5 102.5 405.5 98.5 398.5 c 0,70,-1
 152.5 333 l 0,71,72
 150.5 330 150.5 330 145.5 324.25 c 0,73,74
 140.5 318.5 140.5 318.5 133.25 312.75 c 0,75,76
 126 307 126 307 116.5 303 c 0,77,78
 107 299 107 299 96.5 299 c 0,79,80
 82 299 82 299 71.25 304.75 c 0,81,82
 60.5 310.5 60.5 310.5 53.5 319.5 c 0,83,84
 46.5 328.5 46.5 328.5 43.25 339.25 c 0,85,86
 40 350 40 350 40 359.5 c 0,87,88
 40 383 40 383 49.75 408.75 c 0,89,90
 59.5 434.5 59.5 434.5 78.25 456.25 c 0,91,92
 97 478 97 478 123.75 492 c 0,93,94
 150.5 506 150.5 506 184.5 506 c 0,95,96
 207.5 506 207.5 506 228.75 498 c 0,97,98
 250 490 250 490 269 480.25 c 0,99,100
 288 470.5 288 470.5 305.25 462.5 c 0,101,102
 322.5 454.5 322.5 454.5 338 454.5 c 0,103,104
 341 454.5 341 454.5 346.5 455.75 c 0,105,106
 352 457 352 457 361.5 462 c 0,107,-1
 384 519 l 0,108,-1
 461 479 l 0,109,-1
 113.5 72.5 l 0,0,-1
EndSplineSet
EndChar

StartChar: braceleft
Encoding: 94 123 94
Width: 497
VWidth: 500
Flags: W
LayerCount: 2
Fore
SplineSet
516 677 m 0,0,1
 474.5 677 474.5 677 447.5 667 c 0,2,3
 420.5 657 420.5 657 403.5 641 c 0,4,5
 386 624.5 386 624.5 376.25 602 c 0,6,7
 366.5 579.5 366.5 579.5 360.5 554 c 0,8,9
 354.5 528.5 354.5 528.5 350.25 501 c 0,10,11
 346 473.5 346 473.5 339.5 447 c 0,12,13
 333 420.5 333 420.5 322.25 396.25 c 0,14,15
 311.5 372 311.5 372 292 352.5 c 0,16,17
 275 336.5 275 336.5 249.25 322.25 c 0,18,19
 223.5 308 223.5 308 184.5 298 c 0,20,21
 207.5 290 207.5 290 224.5 281.25 c 0,22,23
 241.5 272.5 241.5 272.5 254 261 c 0,24,25
 270 246 270 246 276.75 226.5 c 0,26,27
 283.5 207 283.5 207 284 185 c 0,28,29
 284.5 163 284.5 163 280.75 139 c 0,30,31
 277 115 277 115 272 91.25 c 0,32,33
 267 67.5 267 67.5 262.5 44.5 c 0,34,35
 258 21.5 258 21.5 257 1.5 c 0,36,37
 256 -18.5 256 -18.5 260.25 -35 c 0,38,39
 264.5 -51.5 264.5 -51.5 277.5 -62.5 c 0,40,41
 285.5 -69.5 285.5 -69.5 296 -73.5 c 0,42,43
 306.5 -77.5 306.5 -77.5 318.25 -79.75 c 0,44,45
 330 -82 330 -82 342.75 -82.5 c 0,46,47
 355.5 -83 355.5 -83 367.5 -83 c 0,48,-1
 359.5 -126 l 0,49,50
 331.5 -126 331.5 -126 305.5 -124.75 c 0,51,52
 279.5 -123.5 279.5 -123.5 257.25 -119 c 0,53,54
 235 -114.5 235 -114.5 216.75 -106.25 c 0,55,56
 198.5 -98 198.5 -98 185.5 -84 c 0,57,58
 171 -68.5 171 -68.5 165.5 -48 c 0,59,60
 160 -27.5 160 -27.5 160.25 -4.5 c 0,61,62
 160.5 18.5 160.5 18.5 164.75 43.25 c 0,63,64
 169 68 169 68 174.25 93 c 0,65,66
 179.5 118 179.5 118 184.25 141.75 c 0,67,68
 189 165.5 189 165.5 189.75 186.5 c 0,69,70
 190.5 207.5 190.5 207.5 185.75 225 c 0,71,72
 181 242.5 181 242.5 168 254 c 0,73,74
 159 262.5 159 262.5 146.5 266.5 c 0,75,76
 134 270.5 134 270.5 119.75 272 c 0,77,78
 105.5 273.5 105.5 273.5 90 273.5 c 0,79,-1
 59.5 273.5 l 0,80,-1
 68.5 320.5 l 0,81,82
 89.5 320.5 89.5 320.5 108.25 321 c 0,83,84
 127 321.5 127 321.5 143 324.5 c 0,85,86
 159 327.5 159 327.5 172.75 333.75 c 0,87,88
 186.5 340 186.5 340 197.5 351 c 0,89,90
 216.5 369 216.5 369 226.75 395.75 c 0,91,92
 237 422.5 237 422.5 243.25 453 c 0,93,94
 249.5 483.5 249.5 483.5 255 516.25 c 0,95,96
 260.5 549 260.5 549 269.75 580 c 0,97,98
 279 611 279 611 295 637.75 c 0,99,100
 311 664.5 311 664.5 339 683 c 0,101,102
 370.5 704.5 370.5 704.5 415.75 712.25 c 0,103,104
 461 720 461 720 523.5 720 c 0,105,-1
 516 677 l 0,0,1
EndSplineSet
EndChar

StartChar: bar
Encoding: 95 124 95
Width: 362
VWidth: 500
Flags: W
LayerCount: 2
Fore
SplineSet
150 -264 m 0,0,-1
 150 815 l 0,1,-1
 212 815 l 0,2,-1
 212 -264 l 0,3,-1
 150 -264 l 0,0,-1
EndSplineSet
EndChar

StartChar: braceright
Encoding: 96 125 96
Width: 497
VWidth: 500
Flags: W
LayerCount: 2
Fore
SplineSet
439.5 273.5 m 0,0,1
 418.5 273.5 418.5 273.5 399.75 272.75 c 0,2,3
 381 272 381 272 364.75 269 c 0,4,5
 348.5 266 348.5 266 335 259.75 c 0,6,7
 321.5 253.5 321.5 253.5 310.5 242.5 c 0,8,9
 291.5 224.5 291.5 224.5 281.5 198 c 0,10,11
 271.5 171.5 271.5 171.5 265 141 c 0,12,13
 258.5 110.5 258.5 110.5 253.25 77.5 c 0,14,15
 248 44.5 248 44.5 238.75 13.75 c 0,16,17
 229.5 -17 229.5 -17 213.5 -43.75 c 0,18,19
 197.5 -70.5 197.5 -70.5 170 -89 c 0,20,21
 137.5 -111 137.5 -111 92.25 -118.5 c 0,22,23
 47 -126 47 -126 -15.5 -126 c 0,24,-1
 -8 -83 l 0,25,26
 33.5 -83 33.5 -83 60.75 -73 c 0,27,28
 88 -63 88 -63 105.5 -47 c 0,29,30
 123 -30.5 123 -30.5 132.5 -8 c 0,31,32
 142 14.5 142 14.5 147.75 40.25 c 0,33,34
 153.5 66 153.5 66 157.5 93.5 c 0,35,36
 161.5 121 161.5 121 168 147.5 c 0,37,38
 174.5 174 174.5 174 185.5 198.25 c 0,39,40
 196.5 222.5 196.5 222.5 216 241.5 c 0,41,42
 233 258.5 233 258.5 258.75 272.25 c 0,43,44
 284.5 286 284.5 286 323.5 297 c 0,45,46
 277.5 310.5 277.5 310.5 255 333 c 0,47,48
 233.5 353 233.5 353 228 380.75 c 0,49,50
 222.5 408.5 222.5 408.5 225.5 439.5 c 0,51,52
 228.5 470.5 228.5 470.5 236.25 503 c 0,53,54
 244 535.5 244 535.5 248.5 564.75 c 0,55,56
 253 594 253 594 250.75 618 c 0,57,58
 248.5 642 248.5 642 231.5 656.5 c 0,59,60
 223 663.5 223 663.5 212.25 667.5 c 0,61,62
 201.5 671.5 201.5 671.5 189.75 673.75 c 0,63,64
 178 676 178 676 165.25 676.5 c 0,65,66
 152.5 677 152.5 677 140.5 677 c 0,67,-1
 149.5 720 l 0,68,69
 177 720 177 720 202.5 718.75 c 0,70,71
 228 717.5 228 717.5 250.25 713 c 0,72,73
 272.5 708.5 272.5 708.5 291 700.25 c 0,74,75
 309.5 692 309.5 692 322.5 678 c 0,76,77
 341.5 657 341.5 657 345.5 628.25 c 0,78,79
 349.5 599.5 349.5 599.5 345.5 567 c 0,80,81
 341.5 534.5 341.5 534.5 333.5 501 c 0,82,83
 325.5 467.5 325.5 467.5 321.25 436.75 c 0,84,85
 317 406 317 406 319.75 380.75 c 0,86,87
 322.5 355.5 322.5 355.5 340 340 c 0,88,89
 349 331.5 349 331.5 361.5 327.5 c 0,90,91
 374 323.5 374 323.5 388.25 322 c 0,92,93
 402.5 320.5 402.5 320.5 418 320.5 c 0,94,-1
 448.5 320.5 l 0,95,-1
 439.5 273.5 l 0,0,1
EndSplineSet
EndChar

StartChar: quoteleft
Encoding: 98 8216 98
Width: 260
VWidth: 500
Flags: W
LayerCount: 2
Fore
SplineSet
291 723 m 0,0,1
 273.5 706.5 273.5 706.5 253.25 686.5 c 0,2,3
 233 666.5 233 666.5 215.75 643.75 c 0,4,5
 198.5 621 198.5 621 186.5 596.25 c 0,6,7
 174.5 571.5 174.5 571.5 174 546 c 0,8,-1
 236.5 546 l 0,9,10
 239.5 542 239.5 542 243.25 535 c 0,11,12
 247 528 247 528 247 514 c 0,13,14
 247 501.5 247 501.5 241.25 488.5 c 0,15,16
 235.5 475.5 235.5 475.5 225.25 464.75 c 0,17,18
 215 454 215 454 201 447.25 c 0,19,20
 187 440.5 187 440.5 170 440.5 c 0,21,22
 153 440.5 153 440.5 138.75 445 c 0,23,24
 124.5 449.5 124.5 449.5 114 458.75 c 0,25,26
 103.5 468 103.5 468 97.75 482.5 c 0,27,28
 92 497 92 497 92 517 c 0,29,30
 92 549 92 549 107.5 580.25 c 0,31,32
 123 611.5 123 611.5 145.25 639 c 0,33,34
 167.5 666.5 167.5 666.5 191.25 688.25 c 0,35,36
 215 710 215 710 231.5 723 c 0,37,-1
 291 723 l 0,0,1
EndSplineSet
EndChar

StartChar: quoteright
Encoding: 99 8217 99
Width: 260
VWidth: 500
Flags: W
LayerCount: 2
Fore
SplineSet
294 648 m 0,0,1
 294 615.5 294 615.5 278.75 583.75 c 0,2,3
 263.5 552 263.5 552 241.75 524.25 c 0,4,5
 220 496.5 220 496.5 196.5 474.75 c 0,6,7
 173 453 173 453 156.5 440.5 c 0,8,-1
 95 440.5 l 0,9,10
 112.5 457 112.5 457 133 477 c 0,11,12
 153.5 497 153.5 497 171 519.75 c 0,13,14
 188.5 542.5 188.5 542.5 200.25 567.5 c 0,15,16
 212 592.5 212 592.5 212 618.5 c 0,17,-1
 148.5 618.5 l 0,18,19
 146 622.5 146 622.5 142.75 629.75 c 0,20,21
 139.5 637 139.5 637 139.5 647 c 0,22,23
 139.5 659.5 139.5 659.5 145.5 673 c 0,24,25
 151.5 686.5 151.5 686.5 162 697.75 c 0,26,27
 172.5 709 172.5 709 187 716 c 0,28,29
 201.5 723 201.5 723 219 723 c 0,30,31
 231.5 723 231.5 723 244.75 719.75 c 0,32,33
 258 716.5 258 716.5 269 708 c 0,34,35
 280 699.5 280 699.5 287 685 c 0,36,37
 294 670.5 294 670.5 294 648 c 0,0,1
EndSplineSet
EndChar

StartChar: quotedblleft
Encoding: 100 8220 100
Width: 468
VWidth: 500
Flags: W
LayerCount: 2
Fore
SplineSet
497.5 723 m 0,0,1
 480.5 706.5 480.5 706.5 460.25 686.5 c 0,2,3
 440 666.5 440 666.5 422.25 643.75 c 0,4,5
 404.5 621 404.5 621 392.75 596.25 c 0,6,7
 381 571.5 381 571.5 381 546 c 0,8,-1
 444.5 546 l 0,9,10
 447 541 447 541 450.25 533.5 c 0,11,12
 453.5 526 453.5 526 453.5 516 c 0,13,14
 453.5 503.5 453.5 503.5 447.5 490 c 0,15,16
 441.5 476.5 441.5 476.5 431 465.5 c 0,17,18
 420.5 454.5 420.5 454.5 405.75 447.5 c 0,19,20
 391 440.5 391 440.5 374 440.5 c 0,21,22
 361.5 440.5 361.5 440.5 348.25 443.75 c 0,23,24
 335 447 335 447 324 455.5 c 0,25,26
 313 464 313 464 306 478.25 c 0,27,28
 299 492.5 299 492.5 299 515 c 0,29,30
 299 547.5 299 547.5 314.25 579.25 c 0,31,32
 329.5 611 329.5 611 351 638.75 c 0,33,34
 372.5 666.5 372.5 666.5 396 688.25 c 0,35,36
 419.5 710 419.5 710 436 723 c 0,37,-1
 497.5 723 l 0,0,1
291 723 m 0,38,39
 273.5 706.5 273.5 706.5 253.25 686.5 c 0,40,41
 233 666.5 233 666.5 215.75 643.75 c 0,42,43
 198.5 621 198.5 621 186.5 596.25 c 0,44,45
 174.5 571.5 174.5 571.5 174 546 c 0,46,-1
 236.5 546 l 0,47,48
 239.5 542 239.5 542 243.25 535 c 0,49,50
 247 528 247 528 247 514 c 0,51,52
 247 501.5 247 501.5 241.25 488.5 c 0,53,54
 235.5 475.5 235.5 475.5 225.25 464.75 c 0,55,56
 215 454 215 454 201 447.25 c 0,57,58
 187 440.5 187 440.5 170 440.5 c 0,59,60
 153 440.5 153 440.5 138.75 445 c 0,61,62
 124.5 449.5 124.5 449.5 114 458.75 c 0,63,64
 103.5 468 103.5 468 97.75 482.5 c 0,65,66
 92 497 92 497 92 517 c 0,67,68
 92 549 92 549 107.5 580.25 c 0,69,70
 123 611.5 123 611.5 145.25 639 c 0,71,72
 167.5 666.5 167.5 666.5 191.25 688.25 c 0,73,74
 215 710 215 710 231.5 723 c 0,75,-1
 291 723 l 0,38,39
EndSplineSet
EndChar

StartChar: quotedblright
Encoding: 101 8221 101
Width: 468
VWidth: 500
Flags: W
LayerCount: 2
Fore
SplineSet
500.5 646 m 0,0,1
 500.5 614 500.5 614 485 582.75 c 0,2,3
 469.5 551.5 469.5 551.5 447.5 524 c 0,4,5
 425.5 496.5 425.5 496.5 401.75 474.75 c 0,6,7
 378 453 378 453 361.5 440.5 c 0,8,-1
 302 440.5 l 0,9,10
 319 457 319 457 339.25 477 c 0,11,12
 359.5 497 359.5 497 377 519.75 c 0,13,14
 394.5 542.5 394.5 542.5 406.25 567.5 c 0,15,16
 418 592.5 418 592.5 419 618.5 c 0,17,-1
 356.5 618.5 l 0,18,19
 353.5 621.5 353.5 621.5 349.75 628.5 c 0,20,21
 346 635.5 346 635.5 346 649 c 0,22,23
 346 661.5 346 661.5 351.75 674.75 c 0,24,25
 357.5 688 357.5 688 367.75 698.75 c 0,26,27
 378 709.5 378 709.5 392.25 716.25 c 0,28,29
 406.5 723 406.5 723 424 723 c 0,30,31
 457 723 457 723 478.75 704.5 c 0,32,33
 500.5 686 500.5 686 500.5 646 c 0,0,1
294 648 m 0,34,35
 294 615.5 294 615.5 278.75 583.75 c 0,36,37
 263.5 552 263.5 552 241.75 524.25 c 0,38,39
 220 496.5 220 496.5 196.5 474.75 c 0,40,41
 173 453 173 453 156.5 440.5 c 0,42,-1
 95 440.5 l 0,43,44
 112.5 457 112.5 457 133 477 c 0,45,46
 153.5 497 153.5 497 171 519.75 c 0,47,48
 188.5 542.5 188.5 542.5 200.25 567.5 c 0,49,50
 212 592.5 212 592.5 212 618.5 c 0,51,-1
 148.5 618.5 l 0,52,53
 146 622.5 146 622.5 142.75 629.75 c 0,54,55
 139.5 637 139.5 637 139.5 647 c 0,56,57
 139.5 659.5 139.5 659.5 145.5 673 c 0,58,59
 151.5 686.5 151.5 686.5 162 697.75 c 0,60,61
 172.5 709 172.5 709 187 716 c 0,62,63
 201.5 723 201.5 723 219 723 c 0,64,65
 231.5 723 231.5 723 244.75 719.75 c 0,66,67
 258 716.5 258 716.5 269 708 c 0,68,69
 280 699.5 280 699.5 287 685 c 0,70,71
 294 670.5 294 670.5 294 648 c 0,34,35
EndSplineSet
EndChar

StartChar: inherent
Encoding: 103 -1 102
Width: 163
Flags: W
LayerCount: 2
Fore
SplineSet
320 737 m 1,0,1
 308 674 308 674 250 632 c 1,2,3
 194 588 194 588 126 588 c 1,4,-1
 147 683 l 1,5,6
 170 683 170 683 186 699 c 1,7,8
 207 715 207 715 211 736 c 2,9,-1
 225 804 l 1,10,-1
 334 804 l 1,11,-1
 320 737 l 1,0,1
EndSplineSet
EndChar

StartChar: makewide
Encoding: 104 -1 103
Width: 330
Flags: W
LayerCount: 2
Fore
SplineSet
454 131 m 2,0,1
 442 78 442 78 403 39 c 128,-1,2
 364 0 364 0 318 0 c 2,3,-1
 176 0 l 2,4,5
 130 0 130 0 91 28 c 128,-1,6
 52 56 52 56 27 103 c 1,7,-1
 60 259 l 1,8,9
 79 184 79 184 121 140 c 1,10,11
 165 96 165 96 214 96 c 2,12,-1
 303 96 l 2,13,14
 318 96 318 96 330 112 c 0,15,16
 337 120 337 120 340.5 127.5 c 128,-1,17
 344 135 344 135 348 149 c 1,18,-1
 422 499 l 2,19,20
 424 513 424 513 424 520 c 0,21,22
 424 543 424 543 409 564.5 c 128,-1,23
 394 586 394 586 358 586 c 2,24,-1
 263 586 l 1,25,-1
 284 681 l 1,26,-1
 502 681 l 1,27,-1
 507 586 l 1,28,29
 533 558 533 558 533 521 c 0,30,31
 533 510 533 510 532 505 c 2,32,-1
 454 131 l 2,0,1
EndSplineSet
EndChar

StartChar: shortrr
Encoding: 105 -1 104
Width: 782
Flags: W
LayerCount: 2
Fore
SplineSet
916 588 m 1,0,-1
 460 588 l 2,1,2
 442 588 442 588 424.5 576.5 c 128,-1,3
 407 565 407 565 403 549 c 2,4,-1
 387 467 l 2,5,6
 383 444 383 444 398 430 c 1,7,8
 413 414 413 414 436 414 c 2,9,-1
 605 414 l 1,10,-1
 586 319 l 1,11,-1
 417 319 l 2,12,13
 391 319 391 319 370 303 c 1,14,15
 348 289 348 289 344 266 c 2,16,-1
 322 164 l 1,17,18
 321 153 321 153 321 148 c 0,19,20
 321 139 321 139 328 123 c 128,-1,21
 335 107 335 107 349 103 c 1,22,-1
 431 103 l 1,23,-1
 412 8 l 1,24,-1
 289 8 l 2,25,26
 247 8 247 8 220 40 c 0,27,28
 202 62 202 62 202 92 c 0,29,30
 202 99 202 99 204 115 c 1,31,-1
 237 273 l 1,32,33
 242 308 242 308 273 335 c 128,-1,34
 304 362 304 362 344 369 c 1,35,36
 307 378 307 378 290.5 400 c 128,-1,37
 274 422 274 422 274 444 c 0,38,39
 274 451 274 451 276 462 c 2,40,-1
 301 585 l 1,41,42
 312 631 312 631 351 656 c 1,43,44
 390 685 390 685 440 685 c 2,45,-1
 936 685 l 1,46,-1
 916 588 l 1,0,-1
EndSplineSet
EndChar

StartChar: anusvara
Encoding: 107 3202 106
Width: 749
Flags: W
LayerCount: 2
Fore
SplineSet
781 149 m 2,0,1
 769 91 769 91 722.5 45.5 c 128,-1,2
 676 0 676 0 627 0 c 2,3,-1
 326 0 l 2,4,5
 268 0 268 0 232 49 c 1,6,7
 209 84 209 84 209 125 c 0,8,9
 209 143 209 143 213 162 c 2,10,-1
 292 540 l 2,11,12
 304 598 304 598 356.5 639 c 128,-1,13
 409 680 409 680 472 680 c 2,14,-1
 746 680 l 2,15,16
 806 680 806 680 842 636 c 1,17,18
 865 601 865 601 865 562 c 0,19,20
 865 546 865 546 861 527 c 2,21,-1
 781 149 l 2,0,1
677 172 m 1,22,-1
 751 519 l 2,23,24
 752 526 752 526 752 537 c 0,25,26
 752 555 752 555 744 567 c 1,27,28
 729 586 729 586 706 586 c 2,29,-1
 488 586 l 2,30,31
 459 586 459 586 431 568 c 1,32,33
 403 547 403 547 399 526 c 2,34,-1
 324 171 l 2,35,36
 323 166 323 166 323 157 c 0,37,38
 323 138 323 138 338 119 c 1,39,40
 360 97 360 97 389 97 c 2,41,-1
 601 97 l 2,42,43
 626 97 626 97 649 120 c 128,-1,44
 672 143 672 143 677 172 c 1,22,-1
EndSplineSet
EndChar

StartChar: u0C83
Encoding: 108 3203 107
Width: 484
Flags: W
LayerCount: 2
Fore
SplineSet
610 464 m 2,0,1
 602 425 602 425 568.5 397 c 128,-1,2
 535 369 535 369 495 369 c 2,3,-1
 344 369 l 2,4,5
 300 369 300 369 275 399 c 0,6,7
 257 421 257 421 257 451 c 0,8,9
 257 463 257 463 258 470 c 2,10,-1
 280 579 l 1,11,12
 291 623 291 623 328 651 c 128,-1,13
 365 679 365 679 411 679 c 2,14,-1
 548 679 l 2,15,16
 576 679 576 679 598 664 c 1,17,18
 619 653 619 653 630 624 c 0,19,20
 635 613 635 613 635 595 c 0,21,22
 635 588 635 588 633 572 c 1,23,-1
 610 464 l 2,0,1
535 108 m 2,24,25
 526 64 526 64 494 32 c 128,-1,26
 462 0 462 0 426 0 c 2,27,-1
 267 0 l 2,28,29
 223 0 223 0 198 30 c 0,30,31
 179 53 179 53 179 82 c 0,32,33
 179 87 179 87 181 101 c 2,34,-1
 203 210 l 2,35,36
 212 253 212 253 251 282 c 128,-1,37
 290 311 290 311 333 311 c 2,38,-1
 470 311 l 2,39,40
 516 311 516 311 539 278 c 1,41,42
 555 253 555 253 555 223 c 0,43,44
 555 215 555 215 553 199 c 1,45,-1
 535 108 l 2,24,25
507 491 m 2,46,-1
 519 552 l 1,47,48
 523 566 523 566 517 575.5 c 128,-1,49
 511 585 511 585 495 585 c 2,50,-1
 432 585 l 2,51,52
 418 585 418 585 403 576 c 128,-1,53
 388 567 388 567 384 552 c 2,54,-1
 373 498 l 1,55,56
 371 483 371 483 380 473.5 c 128,-1,57
 389 464 389 464 403 464 c 2,58,-1
 471 464 l 2,59,60
 480 464 480 464 492.5 472 c 128,-1,61
 505 480 505 480 507 491 c 2,46,-1
430 122 m 2,62,-1
 442 185 l 1,63,64
 446 200 446 200 442 208 c 256,65,66
 438 216 438 216 430 216 c 2,67,-1
 349 216 l 2,68,69
 334 216 334 216 322.5 208.5 c 128,-1,70
 311 201 311 201 309 190 c 2,71,-1
 297 130 l 1,72,73
 296 116 296 116 300 105 c 1,74,75
 307 94 307 94 316 94 c 2,76,-1
 398 94 l 2,77,78
 409 94 409 94 418.5 101.5 c 128,-1,79
 428 109 428 109 430 122 c 2,62,-1
EndSplineSet
EndChar

StartChar: avowel
Encoding: 109 3205 108
Width: 972
Flags: W
LayerCount: 2
Fore
SplineSet
1033 137 m 2,0,1
 1021 81 1021 81 973 40.5 c 128,-1,2
 925 0 925 0 868 0 c 2,3,-1
 341 0 l 2,4,5
 278 0 278 0 241 42 c 1,6,7
 215 70 215 70 215 109 c 0,8,9
 215 127 215 127 217 136 c 2,10,-1
 303 546 l 2,11,12
 315 603 315 603 363 642 c 128,-1,13
 411 681 411 681 467 681 c 2,14,-1
 643 681 l 1,15,-1
 597 463 l 1,16,-1
 490 463 l 1,17,-1
 515 586 l 1,18,-1
 473 586 l 2,19,20
 451 586 451 586 432 563 c 1,21,22
 410 541 410 541 403 505 c 2,23,-1
 332 172 l 2,24,25
 331 167 331 167 331 158 c 0,26,27
 331 137 331 137 345 119 c 1,28,29
 370 97 370 97 398 97 c 2,30,-1
 840 97 l 2,31,32
 861 97 861 97 882 110 c 128,-1,33
 903 123 903 123 918 145 c 1,34,35
 926 159 926 159 930 168 c 128,-1,36
 934 177 934 177 936 192 c 1,37,-1
 1008 533 l 2,38,39
 1012 554 1012 554 1001 572 c 1,40,41
 986 587 986 587 965 587 c 2,42,-1
 923 587 l 1,43,-1
 908 513 l 2,44,45
 906 499 906 499 906 494 c 0,46,47
 906 452 906 452 955 410 c 1,48,-1
 936 315 l 1,49,-1
 526 315 l 1,50,-1
 545 410 l 1,51,-1
 832 410 l 1,52,53
 797 454 797 454 797 490 c 0,54,55
 797 499 797 499 798 503 c 2,56,-1
 835 680 l 1,57,-1
 998 680 l 2,58,59
 1041 680 1041 680 1069 662 c 1,60,61
 1101 646 1101 646 1115 617 c 1,62,63
 1123 598 1123 598 1123 579 c 0,64,65
 1123 563 1123 563 1121 555 c 2,66,-1
 1033 137 l 2,0,1
EndSplineSet
EndChar

StartChar: aavowel
Encoding: 110 3206 109
Width: 1041
Flags: W
LayerCount: 2
Fore
SplineSet
1178 489 m 1,0,1
 1169 434 1169 434 1123 393.5 c 128,-1,2
 1077 353 1077 353 1028 353 c 2,3,-1
 986 353 l 1,4,5
 1016 309 1016 309 1012 286 c 2,6,-1
 975 104 l 2,7,8
 966 61 966 61 924 30.5 c 128,-1,9
 882 0 882 0 831 0 c 2,10,-1
 318 2 l 2,11,12
 265 2 265 2 236 42 c 0,13,14
 215 70 215 70 215 106 c 0,15,16
 215 121 215 121 219 137 c 2,17,-1
 305 547 l 2,18,19
 317 604 317 604 373.5 643 c 128,-1,20
 430 682 430 682 497 682 c 2,21,-1
 634 682 l 1,22,-1
 588 464 l 1,23,-1
 479 464 l 1,24,-1
 504 587 l 1,25,-1
 482 587 l 2,26,27
 459 587 459 587 437 568.5 c 128,-1,28
 415 550 415 550 411 528 c 2,29,-1
 336 173 l 2,30,31
 335 166 335 166 335 155 c 0,32,33
 335 134 335 134 344 119 c 1,34,35
 362 97 362 97 387 97 c 2,36,-1
 797 97 l 2,37,38
 825 97 825 97 850.5 120 c 128,-1,39
 876 143 876 143 881 173 c 1,40,-1
 906 287 l 1,41,42
 911 315 911 315 884 355 c 1,43,-1
 606 355 l 1,44,-1
 625 450 l 1,45,-1
 871 450 l 1,46,47
 853 487 853 487 854 501 c 1,48,-1
 872 583 l 2,49,50
 880 623 880 623 921 650 c 128,-1,51
 962 677 962 677 1013 677 c 2,52,-1
 1101 677 l 2,53,54
 1151 677 1151 677 1176 644 c 1,55,56
 1197 619 1197 619 1197 589 c 0,57,58
 1197 581 1197 581 1195 565 c 1,59,-1
 1178 489 l 1,0,1
1069 497 m 1,60,-1
 1080 544 l 2,61,62
 1081 551 1081 551 1081 562 c 0,63,64
 1081 584 1081 584 1062 584 c 2,65,-1
 1022 584 l 2,66,67
 1006 584 1006 584 990 571.5 c 128,-1,68
 974 559 974 559 973 544 c 1,69,-1
 966 511 l 2,70,71
 964 500 964 500 964 495 c 0,72,73
 964 483 964 483 967.5 475 c 128,-1,74
 971 467 971 467 980 452 c 1,75,-1
 1026 452 l 2,76,77
 1041 452 1041 452 1053.5 464.5 c 128,-1,78
 1066 477 1066 477 1069 497 c 1,60,-1
EndSplineSet
EndChar

StartChar: ivowel
Encoding: 111 3207 110
Width: 785
Flags: W
LayerCount: 2
Fore
SplineSet
812 0 m 1,0,-1
 744 0 l 2,1,2
 694 0 694 0 665 32 c 0,3,4
 643 57 643 57 643 86 c 0,5,6
 643 91 643 91 645 107 c 1,7,-1
 659 175 l 1,8,-1
 550 175 l 2,9,10
 504 175 504 175 479 201 c 0,11,12
 460 220 460 220 460 247 c 0,13,14
 460 256 460 256 461 261 c 2,15,-1
 476 335 l 2,16,17
 481 361 481 361 514 383 c 1,18,19
 550 402 550 402 589 402 c 2,20,-1
 706 402 l 2,21,22
 732 402 732 402 753 386 c 1,23,24
 771 368 771 368 775 343 c 1,25,-1
 815 534 l 2,26,27
 819 556 819 556 804 567 c 1,28,29
 792 579 792 579 763 579 c 2,30,-1
 689 579 l 2,31,32
 661 579 661 579 637.5 561.5 c 128,-1,33
 614 544 614 544 610 525 c 2,34,-1
 596 457 l 1,35,-1
 489 457 l 1,36,-1
 501 520 l 2,37,38
 506 542 506 542 489.5 560.5 c 128,-1,39
 473 579 473 579 445 579 c 2,40,-1
 354 579 l 2,41,42
 329 579 329 579 308 562.5 c 128,-1,43
 287 546 287 546 283 525 c 2,44,-1
 269 457 l 2,45,46
 268 453 268 453 268 448.5 c 128,-1,47
 268 444 268 444 268 443 c 0,48,49
 268 429 268 429 276 421 c 1,50,51
 284 405 284 405 302 405 c 2,52,-1
 324 405 l 1,53,-1
 305 310 l 1,54,-1
 256 310 l 2,55,56
 205 310 205 310 175 349 c 0,57,58
 154 377 154 377 154 413 c 0,59,60
 154 429 154 429 156 438 c 2,61,-1
 177 540 l 2,62,63
 185 577 185 577 211.5 608.5 c 128,-1,64
 238 640 238 640 273.5 657.5 c 128,-1,65
 309 675 309 675 348 675 c 2,66,-1
 478 675 l 2,67,68
 517 675 517 675 544 656.5 c 128,-1,69
 571 638 571 638 571 608 c 1,70,71
 590 640 590 640 620 656 c 1,72,73
 648 675 648 675 681 675 c 2,74,-1
 804 675 l 2,75,76
 869 675 869 675 901 635 c 1,77,78
 926 607 926 607 926 568 c 0,79,80
 926 552 926 552 922 536 c 2,81,-1
 886 364 l 2,82,83
 867 276 867 276 768 195 c 1,84,-1
 754 127 l 1,85,86
 750 115 750 115 758 103 c 1,87,88
 769 92 769 92 778 92 c 2,89,-1
 827 92 l 1,90,-1
 812 0 l 1,0,-1
673 269 m 1,91,-1
 677 283 l 1,92,93
 682 311 682 311 656 311 c 2,94,-1
 593 311 l 2,95,96
 585 311 585 311 579 306.5 c 128,-1,97
 573 302 573 302 571 293 c 0,98,99
 570 285 570 285 574 278 c 128,-1,100
 578 271 578 271 585 271 c 2,101,-1
 673 269 l 1,91,-1
EndSplineSet
EndChar

StartChar: iivowel
Encoding: 112 3208 111
Width: 1219
Flags: W
LayerCount: 2
Fore
SplineSet
1335 404 m 2,0,1
 1327 364 1327 364 1290 324 c 1,2,3
 1250 287 1250 287 1199 269 c 1,4,5
 1260 176 1260 176 1255 148 c 2,6,-1
 1241 80 l 1,7,8
 1233 48 1233 48 1211 26 c 128,-1,9
 1189 4 1189 4 1163 4 c 2,10,-1
 940 4 l 1,11,-1
 959 99 l 1,12,-1
 1101 99 l 2,13,14
 1113 99 1113 99 1128 110 c 1,15,16
 1142 124 1142 124 1143 135 c 1,17,-1
 1144 140 l 1,18,19
 1148 166 1148 166 1126 188 c 1,20,-1
 1076 262 l 1,21,-1
 857 262 l 1,22,-1
 829 134 l 2,23,24
 817 81 817 81 772.5 42 c 128,-1,25
 728 3 728 3 672 3 c 2,26,-1
 329 3 l 2,27,28
 285 3 285 3 257 38 c 0,29,30
 238 61 238 61 238 96 c 0,31,32
 238 103 238 103 240 119 c 1,33,-1
 270 261 l 1,34,-1
 163 261 l 1,35,-1
 182 356 l 1,36,-1
 289 356 l 1,37,-1
 308 445 l 1,38,39
 322 517 322 517 420 587 c 1,40,-1
 325 587 l 1,41,-1
 346 682 l 1,42,-1
 837 682 l 2,43,44
 856 682 856 682 868.5 694.5 c 128,-1,45
 881 707 881 707 885 723 c 2,46,-1
 896 777 l 1,47,-1
 1006 777 l 1,48,-1
 995 723 l 1,49,50
 986 673 986 673 942 633 c 1,51,52
 902 593 902 593 844 582 c 1,53,54
 877 556 877 556 892 527 c 0,55,56
 899 515 899 515 901.5 501 c 128,-1,57
 904 487 904 487 902 475 c 2,58,-1
 877 358 l 1,59,-1
 1019 358 l 1,60,61
 1000 380 1000 380 1000 410 c 0,62,63
 1000 422 1000 422 1004 438 c 2,64,-1
 1019 513 l 1,65,66
 1030 560 1030 560 1067 593 c 1,67,68
 1109 626 1109 626 1152 626 c 2,69,-1
 1266 626 l 2,70,71
 1316 626 1316 626 1341 590 c 1,72,73
 1360 567 1360 567 1360 531 c 0,74,75
 1360 522 1360 522 1358 506 c 1,76,-1
 1335 404 l 2,0,1
1230 420 m 2,77,-1
 1245 494 l 2,78,79
 1249 510 1249 510 1242 521.5 c 128,-1,80
 1235 533 1235 533 1219 533 c 2,81,-1
 1165 533 l 2,82,83
 1151 533 1151 533 1139.5 522 c 128,-1,84
 1128 511 1128 511 1127 500 c 1,85,-1
 1111 419 l 2,86,87
 1107 401 1107 401 1115 386 c 1,88,-1
 1151 360 l 1,89,90
 1179 356 1179 356 1202.5 376 c 128,-1,91
 1226 396 1226 396 1230 420 c 2,77,-1
767 360 m 1,92,-1
 793 483 l 1,93,94
 795 499 795 499 795 507 c 0,95,96
 795 561 795 561 748 591 c 1,97,-1
 536 591 l 1,98,99
 437 530 437 530 421 453 c 2,100,-1
 400 358 l 1,101,-1
 767 360 l 1,92,-1
730 175 m 1,102,-1
 748 263 l 1,103,-1
 380 263 l 1,104,-1
 358 161 l 2,105,106
 354 138 354 138 366.5 118.5 c 128,-1,107
 379 99 379 99 400 99 c 2,108,-1
 644 99 l 2,109,110
 670 99 670 99 695 120.5 c 128,-1,111
 720 142 720 142 730 175 c 1,102,-1
EndSplineSet
EndChar

StartChar: uvowel
Encoding: 113 3209 112
Width: 1463
Flags: W
LayerCount: 2
Fore
SplineSet
1526 145 m 2,0,1
 1518 106 1518 106 1493 73 c 1,2,3
 1471 40 1471 40 1434 20.5 c 128,-1,4
 1397 1 1397 1 1361 1 c 2,5,-1
 1175 1 l 2,6,7
 1133 1 1133 1 1102.5 19.5 c 128,-1,8
 1072 38 1072 38 1057 73 c 1,9,10
 1049 96 1049 96 1049 121 c 0,11,12
 1049 127 1049 127 1051 143 c 1,13,-1
 1135 539 l 2,14,15
 1139 560 1139 560 1127.5 572.5 c 128,-1,16
 1116 585 1116 585 1095 585 c 2,17,-1
 918 585 l 2,18,19
 903 585 903 585 884 573 c 1,20,21
 868 558 868 558 864 540 c 2,22,-1
 779 136 l 2,23,24
 770 97 770 97 745.5 67 c 128,-1,25
 721 37 721 37 682 18.5 c 128,-1,26
 643 0 643 0 601 0 c 2,27,-1
 355 0 l 2,28,29
 288 0 288 0 251 46 c 1,30,31
 223 78 223 78 223 121 c 0,32,33
 223 137 223 137 227 156 c 2,34,-1
 306 531 l 2,35,36
 314 571 314 571 337 606 c 1,37,38
 349 622 349 622 365.5 636 c 128,-1,39
 382 650 382 650 398 659 c 1,40,41
 437 678 437 678 470 678 c 2,42,-1
 674 678 l 1,43,-1
 632 483 l 2,44,45
 620 427 620 427 578 389.5 c 128,-1,46
 536 352 536 352 487 352 c 2,47,-1
 413 352 l 1,48,-1
 432 447 l 1,49,-1
 478 447 l 2,50,51
 483 447 483 447 490.5 449.5 c 128,-1,52
 498 452 498 452 505 456 c 1,53,54
 517 465 517 465 521 481 c 2,55,-1
 542 581 l 1,56,-1
 474 581 l 2,57,58
 451 581 451 581 435 565 c 1,59,60
 414 549 414 549 410 528 c 2,61,-1
 331 153 l 2,62,63
 330 149 330 149 330 140 c 0,64,65
 330 122 330 122 339 111 c 0,66,67
 355 92 355 92 376 92 c 2,68,-1
 608 92 l 2,69,70
 630 92 630 92 646 107 c 128,-1,71
 662 122 662 122 669 145 c 1,72,-1
 751 537 l 2,73,74
 763 597 763 597 809 636 c 1,75,76
 855 678 855 678 909 678 c 2,77,-1
 1127 678 l 2,78,79
 1169 678 1169 678 1198 659.5 c 128,-1,80
 1227 641 1227 641 1238 612 c 1,81,82
 1242 598 1242 598 1243 591 c 128,-1,83
 1244 584 1244 584 1244 569 c 0,84,85
 1244 561 1244 561 1242 545 c 1,86,-1
 1160 156 l 2,87,88
 1159 151 1159 151 1159 142 c 0,89,90
 1159 128 1159 128 1166 115 c 1,91,92
 1182 96 1182 96 1200 96 c 2,93,-1
 1355 96 l 2,94,95
 1377 96 1377 96 1393 111 c 128,-1,96
 1409 126 1409 126 1416 149 c 1,97,-1
 1497 532 l 2,98,99
 1501 550 1501 550 1489 561 c 1,100,101
 1481 572 1481 572 1458 572 c 2,102,-1
 1439 572 l 1,103,-1
 1462 681 l 1,104,-1
 1522 681 l 2,105,106
 1573 681 1573 681 1596 645 c 1,107,108
 1614 622 1614 622 1614 589 c 0,109,110
 1614 570 1614 570 1612 561 c 2,111,-1
 1526 145 l 2,0,1
EndSplineSet
EndChar

StartChar: uuvowel
Encoding: 114 3210 113
Width: 1752
Flags: W
LayerCount: 2
Fore
SplineSet
1811 137 m 2,0,1
 1799 79 1799 79 1756 43 c 1,2,3
 1710 1 1710 1 1661 1 c 2,4,-1
 1605 1 l 2,5,6
 1556 1 1556 1 1527 37 c 0,7,8
 1508 60 1508 60 1508 93 c 0,9,10
 1508 112 1508 112 1510 121 c 2,11,-1
 1529 216 l 1,12,-1
 1638 216 l 1,13,-1
 1619 121 l 2,14,15
 1617 113 1617 113 1622 102 c 1,16,17
 1630 94 1630 94 1638 94 c 2,18,-1
 1671 94 l 2,19,20
 1680 94 1680 94 1687 103.5 c 128,-1,21
 1694 113 1694 113 1699 129 c 1,22,-1
 1781 516 l 2,23,24
 1783 530 1783 530 1783 537 c 0,25,26
 1783 552 1783 552 1775 564 c 0,27,28
 1763 583 1763 583 1741 583 c 2,29,-1
 1606 583 l 2,30,31
 1577 583 1577 583 1554 563 c 128,-1,32
 1531 543 1531 543 1524 515 c 1,33,-1
 1447 154 l 2,34,35
 1439 112 1439 112 1413 75 c 0,36,37
 1402 60 1402 60 1385.5 45 c 128,-1,38
 1369 30 1369 30 1353 21 c 0,39,40
 1317 -1 1317 -1 1280 -1 c 2,41,-1
 1082 -1 l 2,42,43
 1026 -1 1026 -1 1001 43 c 1,44,45
 982 73 982 73 982 109 c 0,46,47
 982 127 982 127 986 146 c 2,48,-1
 1067 529 l 2,49,50
 1071 551 1071 551 1058.5 567 c 128,-1,51
 1046 583 1046 583 1024 583 c 2,52,-1
 887 583 l 2,53,54
 865 583 865 583 845 563.5 c 128,-1,55
 825 544 825 544 821 523 c 2,56,-1
 744 159 l 2,57,58
 729 91 729 91 673 43.5 c 128,-1,59
 617 -4 617 -4 552 -4 c 2,60,-1
 369 -4 l 2,61,62
 295 -4 295 -4 253 42 c 0,63,64
 223 74 223 74 223 120 c 0,65,66
 223 136 223 136 227 152 c 2,67,-1
 308 535 l 2,68,69
 320 595 320 595 373.5 635.5 c 128,-1,70
 427 676 427 676 491 676 c 2,71,-1
 677 676 l 1,72,-1
 640 499 l 2,73,74
 628 443 628 443 581 404 c 1,75,76
 537 364 537 364 481 364 c 2,77,-1
 435 364 l 1,78,-1
 456 459 l 1,79,-1
 488 459 l 2,80,81
 499 459 499 459 514 468 c 1,82,83
 529 480 529 480 530 492 c 1,84,-1
 548 580 l 1,85,-1
 485 580 l 2,86,87
 460 580 460 580 439 563.5 c 128,-1,88
 418 547 418 547 414 526 c 2,89,-1
 336 157 l 2,90,91
 331 131 331 131 347 109 c 1,92,93
 366 90 366 90 394 90 c 2,94,-1
 566 90 l 2,95,96
 589 90 589 90 608 109 c 0,97,98
 617 117 617 117 624 130 c 128,-1,99
 631 143 631 143 633 157 c 2,100,-1
 711 526 l 2,101,102
 719 568 719 568 748 603 c 128,-1,103
 777 638 777 638 817.5 656.5 c 128,-1,104
 858 675 858 675 897 675 c 2,105,-1
 1048 675 l 2,106,107
 1091 675 1091 675 1122.5 656.5 c 128,-1,108
 1154 638 1154 638 1168 602 c 0,109,110
 1177 581 1177 581 1177 553 c 0,111,112
 1177 546 1177 546 1175 527 c 1,113,-1
 1094 144 l 2,114,115
 1092 133 1092 133 1092 128 c 0,116,117
 1092 116 1092 116 1100 108 c 1,118,119
 1112 92 1112 92 1134 92 c 2,120,-1
 1262 92 l 2,121,122
 1288 92 1288 92 1310 112 c 128,-1,123
 1332 132 1332 132 1339 160 c 1,124,-1
 1414 515 l 2,125,126
 1418 537 1418 537 1427 556.5 c 128,-1,127
 1436 576 1436 576 1451 597 c 1,128,129
 1480 634 1480 634 1520.5 655.5 c 128,-1,130
 1561 677 1561 677 1603 677 c 2,131,-1
 1761 677 l 2,132,133
 1805 677 1805 677 1838 656 c 1,134,135
 1870 633 1870 633 1882 597 c 1,136,137
 1891 576 1891 576 1891 550 c 0,138,139
 1891 535 1891 535 1887 516 c 2,140,-1
 1811 137 l 2,0,1
EndSplineSet
EndChar

StartChar: rvocalicvowel.part
Encoding: 116 -1 115
Width: 1000
Flags: W
LayerCount: 2
Fore
SplineSet
1058 145 m 2,0,1
 1046 87 1046 87 1010 44 c 1,2,3
 968 1 968 1 928 1 c 2,4,-1
 724 1 l 2,5,6
 682 1 682 1 649.5 21 c 128,-1,7
 617 41 617 41 605 77 c 1,8,9
 579 40 579 40 551 20.5 c 128,-1,10
 523 1 523 1 500 1 c 2,11,-1
 268 1 l 2,12,13
 222 1 222 1 197 30 c 0,14,15
 178 53 178 53 178 82 c 0,16,17
 178 89 178 89 180 103 c 2,18,-1
 219 286 l 1,19,-1
 384 286 l 2,20,21
 434 286 434 286 462 257 c 0,22,23
 485 234 485 234 485 206 c 0,24,25
 485 201 485 201 483 187 c 2,26,-1
 474 138 l 1,27,-1
 365 138 l 1,28,-1
 372 173 l 2,29,30
 376 192 376 192 351 192 c 2,31,-1
 309 192 l 1,32,-1
 298 138 l 1,33,34
 297 122 297 122 302 110 c 1,35,36
 313 98 313 98 329 98 c 2,37,-1
 477 98 l 2,38,39
 506 98 506 98 528 113 c 128,-1,40
 550 128 550 128 557 151 c 1,41,-1
 641 548 l 2,42,43
 645 567 645 567 630.5 577.5 c 128,-1,44
 616 588 616 588 590 588 c 2,45,-1
 446 588 l 2,46,47
 438 588 438 588 429 586 c 128,-1,48
 420 584 420 584 405 577 c 128,-1,49
 390 570 390 570 386 555 c 2,50,-1
 371 480 l 1,51,-1
 413 480 l 2,52,53
 428 480 428 480 442 491 c 128,-1,54
 456 502 456 502 460 520 c 2,55,-1
 465 548 l 1,56,-1
 574 548 l 1,57,-1
 567 515 l 2,58,59
 555 462 555 462 514.5 423 c 128,-1,60
 474 384 474 384 426 384 c 2,61,-1
 240 384 l 1,62,-1
 280 575 l 1,63,64
 291 619 291 619 332 651 c 128,-1,65
 373 683 373 683 426 683 c 2,66,-1
 645 683 l 2,67,68
 701 683 701 683 733 646 c 0,69,70
 755 620 755 620 755 584 c 0,71,72
 755 566 755 566 753 557 c 2,73,-1
 674 181 l 1,74,75
 683 146 683 146 707.5 122.5 c 128,-1,76
 732 99 732 99 758 99 c 2,77,-1
 886 99 l 2,78,79
 909 99 909 99 928 118 c 0,80,81
 937 126 937 126 944 139 c 128,-1,82
 951 152 951 152 953 166 c 2,83,-1
 1025 507 l 1,84,85
 1027 523 1027 523 1027 530 c 0,86,87
 1027 549 1027 549 1016 564 c 0,88,89
 1000 587 1000 587 970 587 c 2,90,-1
 825 587 l 1,91,-1
 846 682 l 1,92,-1
 1004 682 l 2,93,94
 1027 682 1027 682 1050 701 c 1,95,96
 1069 720 1069 720 1076 749 c 1,97,-1
 1087 803 l 1,98,-1
 1196 803 l 1,99,-1
 1182 735 l 2,100,101
 1174 699 1174 699 1151 671 c 1,102,103
 1130 642 1130 642 1093 627 c 1,104,105
 1123 609 1123 609 1131 585.5 c 128,-1,106
 1139 562 1139 562 1139 556.5 c 128,-1,107
 1139 551 1139 551 1139 544 c 0,108,109
 1139 536 1139 536 1137 520 c 1,110,-1
 1058 145 l 2,0,1
EndSplineSet
EndChar

StartChar: lvocalicvowel.part
Encoding: 118 -1 117
Width: 785
Flags: W
LayerCount: 2
Fore
SplineSet
728 145 m 1,0,1
 724 123 724 123 739 114 c 0,2,3
 746 110 746 110 754 110 c 0,4,5
 777 110 777 110 792 128 c 1,6,-1
 919 266 l 1,7,-1
 990 210 l 1,8,-1
 839 54 l 1,9,10
 810 17 810 17 773 9 c 0,11,12
 750 4 750 4 713 15.5 c 128,-1,13
 676 27 676 27 653 53 c 1,14,15
 638 72 638 72 633 79 c 0,16,17
 618 101 618 101 618 126 c 0,18,19
 618 131 618 131 620 143.5 c 128,-1,20
 622 156 622 156 696 247 c 0,21,22
 719 276 719 276 769 336 c 1,23,24
 795 385 795 385 809 467 c 0,25,26
 813 493 813 493 817 539 c 1,27,28
 821 561 821 561 806 572 c 1,29,30
 794 584 794 584 765 584 c 2,31,-1
 691 584 l 2,32,33
 663 584 663 584 639.5 566.5 c 128,-1,34
 616 549 616 549 612 530 c 2,35,-1
 598 462 l 1,36,-1
 491 462 l 1,37,-1
 503 525 l 2,38,39
 508 547 508 547 491.5 565.5 c 128,-1,40
 475 584 475 584 447 584 c 2,41,-1
 356 584 l 2,42,43
 331 584 331 584 310 567.5 c 128,-1,44
 289 551 289 551 285 530 c 2,45,-1
 271 462 l 2,46,47
 270 458 270 458 270 453.5 c 128,-1,48
 270 449 270 449 270 448 c 0,49,50
 270 434 270 434 278 426 c 1,51,52
 286 410 286 410 304 410 c 2,53,-1
 326 410 l 1,54,-1
 307 315 l 1,55,-1
 258 315 l 2,56,57
 207 315 207 315 177 354 c 0,58,59
 156 382 156 382 156 418 c 0,60,61
 156 434 156 434 158 443 c 2,62,-1
 179 545 l 2,63,64
 187 582 187 582 213.5 613.5 c 128,-1,65
 240 645 240 645 275.5 662.5 c 128,-1,66
 311 680 311 680 350 680 c 2,67,-1
 480 680 l 2,68,69
 519 680 519 680 546 661.5 c 128,-1,70
 573 643 573 643 573 613 c 1,71,72
 592 645 592 645 622 661 c 1,73,74
 650 680 650 680 683 680 c 2,75,-1
 806 680 l 2,76,77
 871 680 871 680 903 640 c 1,78,79
 928 612 928 612 928 573 c 0,80,81
 928 557 928 557 924 541 c 2,82,-1
 888 369 l 2,83,84
 881 337 881 337 860 307 c 1,85,86
 858 302 858 302 770 202 c 0,87,88
 756 187 756 187 749 180 c 0,89,90
 728 157 728 157 728 145 c 1,0,1
EndSplineSet
EndChar

StartChar: evowel
Encoding: 119 3214 118
Width: 949
Flags: W
LayerCount: 2
Fore
SplineSet
1009 145 m 2,0,1
 997 87 997 87 952.5 44 c 128,-1,2
 908 1 908 1 857 1 c 2,3,-1
 650 1 l 2,4,5
 614 1 614 1 591 20 c 0,6,7
 580 29 580 29 576 40.5 c 128,-1,8
 572 52 572 52 572 67 c 1,9,10
 557 37 557 37 529 18.5 c 128,-1,11
 501 0 501 0 472 0 c 2,12,-1
 314 0 l 2,13,14
 253 0 253 0 217 40 c 0,15,16
 191 68 191 68 191 108 c 0,17,18
 191 116 191 116 193 135 c 1,19,-1
 250 408 l 1,20,-1
 413 408 l 2,21,22
 441 408 441 408 462.5 386.5 c 128,-1,23
 484 365 484 365 492 329 c 1,24,25
 501 301 501 301 501 268 c 0,26,27
 501 253 501 253 500 246 c 1,28,-1
 394 218 l 1,29,30
 394 247 394 247 392 258 c 128,-1,31
 390 269 390 269 382 287 c 1,32,33
 368 313 368 313 339 313 c 1,34,-1
 307 162 l 1,35,36
 303 134 303 134 317 114 c 1,37,38
 333 95 333 95 359 95 c 2,39,-1
 462 95 l 2,40,41
 488 95 488 95 507 114 c 0,42,43
 519 125 519 125 525 136 c 128,-1,44
 531 147 531 147 535 162 c 2,45,-1
 549 230 l 1,46,-1
 659 230 l 1,47,-1
 647 170 l 2,48,49
 646 165 646 165 646 153 c 0,50,51
 646 135 646 135 658 119 c 0,52,53
 677 96 677 96 705 96 c 2,54,-1
 819 96 l 2,55,56
 848 96 848 96 872.5 118 c 128,-1,57
 897 140 897 140 904 172 c 2,58,-1
 974 499 l 2,59,60
 976 513 976 513 976 520 c 0,61,62
 976 543 976 543 961 561 c 1,63,64
 942 586 942 586 906 586 c 2,65,-1
 815 586 l 1,66,-1
 836 681 l 1,67,-1
 941 681 l 2,68,69
 991 681 991 681 1027 659 c 128,-1,70
 1063 637 1063 637 1079 598 c 0,71,72
 1088 575 1088 575 1088 545 c 0,73,74
 1088 532 1088 532 1084 516 c 2,75,-1
 1009 145 l 2,0,1
EndSplineSet
EndChar

StartChar: eevowel
Encoding: 120 3215 119
Width: 946
Flags: W
LayerCount: 2
Fore
SplineSet
1009 161 m 2,0,1
 1001 121 1001 121 969 79 c 1,2,3
 955 63 955 63 936.5 47 c 128,-1,4
 918 31 918 31 896 20 c 1,5,6
 847 -1 847 -1 805 -1 c 2,7,-1
 650 1 l 2,8,9
 617 1 617 1 596 22 c 1,10,11
 587 33 587 33 580 47.5 c 128,-1,12
 573 62 573 62 573 77 c 1,13,14
 520 0 520 0 446 0 c 2,15,-1
 325 0 l 2,16,17
 256 0 256 0 220 44 c 1,18,19
 191 77 191 77 191 119 c 0,20,21
 191 128 191 128 193 147 c 1,22,-1
 247 407 l 1,23,-1
 412 407 l 2,24,25
 438 407 438 407 458 387 c 128,-1,26
 478 367 478 367 489 328 c 0,27,28
 494 313 494 313 495 293 c 128,-1,29
 496 273 496 273 496 245 c 1,30,-1
 387 217 l 1,31,32
 387 245 387 245 385 258 c 128,-1,33
 383 271 383 271 375 285 c 0,34,35
 361 313 361 313 335 313 c 1,36,-1
 303 162 l 1,37,38
 299 134 299 134 313 114 c 1,39,40
 329 95 329 95 355 95 c 2,41,-1
 457 95 l 2,42,43
 485 95 485 95 504 114 c 0,44,45
 516 125 516 125 522 136 c 128,-1,46
 528 147 528 147 532 162 c 2,47,-1
 546 230 l 1,48,-1
 656 230 l 1,49,-1
 644 170 l 2,50,51
 643 165 643 165 643 154 c 0,52,53
 643 136 643 136 654 117 c 1,54,55
 673 95 673 95 699 95 c 2,56,-1
 816 95 l 2,57,58
 844 95 844 95 869.5 118 c 128,-1,59
 895 141 895 141 900 171 c 1,60,-1
 970 498 l 2,61,62
 972 512 972 512 972 519 c 0,63,64
 972 542 972 542 957 560 c 0,65,66
 936 585 936 585 899 585 c 2,67,-1
 797 585 l 1,68,-1
 790 552 l 2,69,70
 783 516 783 516 743.5 489.5 c 128,-1,71
 704 463 704 463 655 463 c 2,72,-1
 528 463 l 2,73,74
 471 463 471 463 439 499 c 0,75,76
 414 526 414 526 414 563 c 0,77,78
 414 570 414 570 416 584 c 1,79,-1
 437 679 l 1,80,-1
 546 679 l 1,81,-1
 528 598 l 1,82,83
 526 580 526 580 536.5 568.5 c 128,-1,84
 547 557 547 557 561 557 c 2,85,-1
 649 557 l 2,86,87
 664 557 664 557 676 572 c 1,88,89
 690 583 690 583 694 606 c 2,90,-1
 709 678 l 1,91,-1
 933 678 l 2,92,93
 986 678 986 678 1023.5 655 c 128,-1,94
 1061 632 1061 632 1073.5 600 c 128,-1,95
 1086 568 1086 568 1086 542 c 0,96,97
 1086 527 1086 527 1082 511 c 2,98,-1
 1009 161 l 2,0,1
EndSplineSet
EndChar

StartChar: aivowel
Encoding: 121 3216 120
Width: 1003
Flags: W
LayerCount: 2
Fore
SplineSet
1061 147 m 2,0,1
 1049 86 1049 86 996 42 c 128,-1,2
 943 -2 943 -2 882 -2 c 2,3,-1
 727 0 l 2,4,5
 687 0 687 0 657 22 c 1,6,7
 627 47 627 47 619 82 c 1,8,9
 590 45 590 45 554.5 23 c 128,-1,10
 519 1 519 1 487 1 c 2,11,-1
 315 1 l 2,12,13
 254 1 254 1 218 41 c 0,14,15
 192 69 192 69 192 109 c 0,16,17
 192 117 192 117 194 136 c 1,18,-1
 226 285 l 1,19,20
 238 348 238 348 291 392 c 128,-1,21
 344 436 344 436 408 436 c 2,22,-1
 598 436 l 1,23,-1
 568 294 l 1,24,25
 563 265 563 265 547 240 c 128,-1,26
 531 215 531 215 506 194 c 0,27,28
 453 151 453 151 388 146 c 1,29,-1
 381 241 l 1,30,31
 393 241 393 241 407 245.5 c 128,-1,32
 421 250 421 250 432 258 c 0,33,34
 455 274 455 274 459 296 c 2,35,-1
 467 336 l 1,36,-1
 421 336 l 2,37,38
 389 336 389 336 366 318 c 1,39,40
 340 303 340 303 333 277 c 1,41,-1
 312 174 l 1,42,43
 310 158 310 158 310 153 c 0,44,45
 310 137 310 137 321 119 c 1,46,47
 333 94 333 94 362 94 c 2,48,-1
 479 94 l 2,49,50
 514 94 514 94 545 119 c 128,-1,51
 576 144 576 144 584 176 c 1,52,-1
 592 216 l 1,53,-1
 702 216 l 1,54,-1
 694 176 l 2,55,56
 692 162 692 162 692 155 c 0,57,58
 692 134 692 134 706 119 c 1,59,60
 722 94 722 94 755 94 c 2,61,-1
 886 94 l 2,62,63
 909 94 909 94 932 117 c 1,64,65
 954 143 954 143 962 175 c 1,66,-1
 1033 516 l 2,67,68
 1035 530 1035 530 1035 536 c 0,69,70
 1035 551 1035 551 1025.5 567 c 128,-1,71
 1016 583 1016 583 988 583 c 2,72,-1
 871 583 l 2,73,74
 848 583 848 583 828.5 565.5 c 128,-1,75
 809 548 809 548 805 523 c 1,76,-1
 797 488 l 1,77,-1
 688 488 l 1,78,-1
 697 528 l 1,79,80
 701 551 701 551 682 566 c 0,81,82
 673 573 673 573 659 577 c 128,-1,83
 645 581 645 581 627 581 c 2,84,-1
 458 581 l 2,85,86
 435 581 435 581 412 562 c 1,87,88
 389 547 389 547 370 514 c 1,89,-1
 300 568 l 1,90,91
 332 619 332 619 375 647.5 c 128,-1,92
 418 676 418 676 458 676 c 2,93,-1
 670 676 l 2,94,95
 713 676 713 676 738.5 655 c 128,-1,96
 764 634 764 634 768 604 c 1,97,98
 791 637 791 637 823 656 c 1,99,100
 839 667 839 667 854 671 c 128,-1,101
 869 675 869 675 887 675 c 2,102,-1
 1024 675 l 2,103,104
 1066 675 1066 675 1096.5 657.5 c 128,-1,105
 1127 640 1127 640 1139 608 c 0,106,107
 1147 587 1147 587 1147 564 c 0,108,109
 1147 557 1147 557 1145 541 c 1,110,-1
 1061 147 l 2,0,1
EndSplineSet
EndChar

StartChar: ovowel
Encoding: 122 3218 121
Width: 918
Flags: W
LayerCount: 2
Fore
SplineSet
968 117 m 2,0,1
 957 66 957 66 922 36 c 1,2,3
 889 1 889 1 847 1 c 2,4,-1
 637 1 l 2,5,6
 605 1 605 1 586 19 c 1,7,8
 567 34 567 34 563 63 c 1,9,10
 551 36 551 36 526 18.5 c 128,-1,11
 501 1 501 1 476 1 c 2,12,-1
 285 1 l 2,13,14
 232 1 232 1 200 33 c 1,15,16
 175 56 175 56 175 86 c 0,17,18
 175 91 175 91 177 107 c 1,19,-1
 209 258 l 1,20,-1
 344 337 l 2,21,22
 426 384 426 384 457.5 407 c 128,-1,23
 489 430 489 430 496 455 c 1,24,-1
 514 543 l 2,25,26
 518 562 518 562 508.5 572.5 c 128,-1,27
 499 583 499 583 483 583 c 2,28,-1
 388 583 l 1,29,-1
 377 529 l 1,30,31
 375 514 375 514 383 501.5 c 128,-1,32
 391 489 391 489 409 489 c 2,33,-1
 423 489 l 1,34,-1
 402 393 l 1,35,-1
 355 393 l 2,36,37
 308 393 308 393 283 433 c 0,38,39
 264 463 264 463 264 498 c 0,40,41
 264 512 264 512 268 528 c 2,42,-1
 300 677 l 1,43,-1
 532 677 l 2,44,45
 565 677 565 677 590.5 663 c 128,-1,46
 616 649 616 649 625 630.5 c 128,-1,47
 634 612 634 612 634 597 c 0,48,49
 634 592 634 592 632 578 c 2,50,-1
 599 420 l 1,51,52
 595 395 595 395 565 372 c 0,53,54
 547 358 547 358 532 349 c 0,55,56
 495 326 495 326 425 284 c 2,57,-1
 313 217 l 1,58,-1
 299 149 l 2,59,60
 298 144 298 144 298 136 c 0,61,62
 298 124 298 124 308.5 110 c 128,-1,63
 319 96 319 96 341 96 c 2,64,-1
 464 96 l 2,65,66
 485 96 485 96 506 114 c 1,67,68
 528 136 528 136 532 158 c 2,69,-1
 541 204 l 1,70,-1
 650 204 l 1,71,-1
 642 164 l 2,72,73
 641 159 641 159 641 150 c 0,74,75
 641 134 641 134 650 118 c 1,76,77
 669 99 669 99 694 99 c 2,78,-1
 803 99 l 2,79,80
 824 99 824 99 845 117 c 1,81,82
 867 139 867 139 871 161 c 2,83,-1
 892 257 l 2,84,85
 896 277 896 277 885.5 289.5 c 128,-1,86
 875 302 875 302 856 302 c 2,87,-1
 820 302 l 1,88,-1
 839 397 l 1,89,-1
 934 397 l 2,90,91
 978 397 978 397 996 371 c 1,92,93
 1012 352 1012 352 1012 326 c 0,94,95
 1012 321 1012 321 1010 305 c 1,96,-1
 968 117 l 2,0,1
EndSplineSet
EndChar

StartChar: oovowel
Encoding: 123 3219 122
Width: 918
Flags: W
LayerCount: 2
Fore
SplineSet
971 131 m 1,0,1
 963 94 963 94 941.5 65 c 128,-1,2
 920 36 920 36 893 18.5 c 128,-1,3
 866 1 866 1 836 1 c 2,4,-1
 639 1 l 2,5,6
 607 1 607 1 588 19 c 1,7,8
 569 34 569 34 565 63 c 1,9,10
 557 50 557 50 545.5 39.5 c 128,-1,11
 534 29 534 29 520 18 c 1,12,13
 491 2 491 2 465 2 c 2,14,-1
 288 2 l 2,15,16
 235 2 235 2 203 34 c 1,17,18
 178 57 178 57 178 87 c 0,19,20
 178 92 178 92 180 108 c 1,21,-1
 212 259 l 1,22,-1
 347 338 l 2,23,24
 429 385 429 385 460.5 408 c 128,-1,25
 492 431 492 431 499 456 c 1,26,-1
 514 530 l 2,27,28
 518 551 518 551 507 569 c 1,29,30
 495 584 495 584 472 584 c 2,31,-1
 391 584 l 1,32,-1
 380 530 l 1,33,34
 378 515 378 515 386 502.5 c 128,-1,35
 394 490 394 490 412 490 c 2,36,-1
 426 490 l 1,37,-1
 405 394 l 1,38,-1
 358 394 l 2,39,40
 311 394 311 394 286 434 c 0,41,42
 267 464 267 464 267 499 c 0,43,44
 267 513 267 513 271 529 c 2,45,-1
 303 678 l 1,46,-1
 408 678 l 1,47,48
 317 742 317 742 325 782 c 2,49,-1
 343 868 l 1,50,51
 348 901 348 901 388 926 c 1,52,53
 421 949 421 949 468 949 c 2,54,-1
 589 949 l 1,55,-1
 570 853 l 1,56,-1
 484 853 l 2,57,58
 469 853 469 853 457.5 845 c 128,-1,59
 446 837 446 837 445 828 c 2,60,-1
 436 786 l 2,61,62
 428 744 428 744 523 677 c 1,63,-1
 535 677 l 2,64,65
 568 677 568 677 593.5 663 c 128,-1,66
 619 649 619 649 628 630.5 c 128,-1,67
 637 612 637 612 637 597 c 0,68,69
 637 592 637 592 635 578 c 2,70,-1
 602 420 l 1,71,72
 598 395 598 395 568 372 c 0,73,74
 550 358 550 358 535 349 c 0,75,76
 498 326 498 326 428 284 c 2,77,-1
 316 217 l 1,78,-1
 302 149 l 2,79,80
 301 144 301 144 301 136 c 0,81,82
 301 124 301 124 311.5 110 c 128,-1,83
 322 96 322 96 344 96 c 2,84,-1
 467 96 l 2,85,86
 488 96 488 96 509 114 c 1,87,88
 531 136 531 136 535 158 c 2,89,-1
 544 204 l 1,90,-1
 653 204 l 1,91,-1
 642 150 l 2,92,93
 637 129 637 129 653.5 112.5 c 128,-1,94
 670 96 670 96 698 96 c 2,95,-1
 807 96 l 2,96,97
 828 96 828 96 849 114 c 1,98,99
 871 136 871 136 875 158 c 2,100,-1
 896 254 l 2,101,102
 900 274 900 274 889.5 286.5 c 128,-1,103
 879 299 879 299 860 299 c 2,104,-1
 824 299 l 1,105,-1
 843 394 l 1,106,-1
 925 394 l 2,107,108
 969 394 969 394 994 358 c 1,109,110
 1010 333 1010 333 1010 301 c 0,111,112
 1010 289 1010 289 1006 273 c 2,113,-1
 971 131 l 1,0,1
EndSplineSet
EndChar

StartChar: auvowel
Encoding: 124 3220 123
Width: 914
Flags: W
LayerCount: 2
Fore
SplineSet
1078 519 m 1,0,-1
 783 519 l 2,1,2
 737 519 737 519 712 558 c 1,3,4
 694 584 694 584 694 619 c 0,5,6
 694 640 694 640 696 651 c 2,7,-1
 719 764 l 1,8,-1
 965 764 l 1,9,-1
 946 669 l 1,10,-1
 797 669 l 1,11,-1
 793 651 l 1,12,13
 791 636 791 636 799 625 c 1,14,15
 810 614 810 614 825 614 c 2,16,-1
 988 614 l 1,17,-1
 1028 800 l 1,18,19
 1032 828 1032 828 1017.5 844 c 128,-1,20
 1003 860 1003 860 980 860 c 2,21,-1
 692 860 l 1,22,23
 711 845 711 845 707 829 c 1,24,-1
 702 801 l 1,25,26
 694 769 694 769 673 748 c 1,27,28
 647 726 647 726 624 726 c 2,29,-1
 318 726 l 1,30,-1
 339 821 l 1,31,-1
 599 821 l 2,32,33
 611 821 611 821 620.5 830.5 c 128,-1,34
 630 840 630 840 631 847 c 1,35,36
 630 848 630 848 629 848 c 0,37,38
 618 856 618 856 607 860 c 1,39,-1
 347 860 l 1,40,-1
 366 956 l 1,41,-1
 1014 956 l 2,42,43
 1058 956 1058 956 1091.5 938 c 128,-1,44
 1125 920 1125 920 1136 897 c 128,-1,45
 1147 874 1147 874 1147 852 c 0,46,47
 1147 845 1147 845 1145 829 c 1,48,-1
 1078 519 l 1,0,-1
968 118 m 1,49,50
 959 71 959 71 925 36 c 128,-1,51
 891 1 891 1 849 1 c 2,52,-1
 635 1 l 2,53,54
 606 1 606 1 588 19 c 1,55,56
 567 32 567 32 563 62 c 1,57,58
 554 47 554 47 546 39 c 128,-1,59
 538 31 538 31 522 17 c 1,60,61
 497 1 497 1 475 1 c 2,62,-1
 298 1 l 2,63,64
 243 1 243 1 207 43 c 0,65,66
 184 71 184 71 184 110 c 0,67,68
 184 128 184 128 186 137 c 2,69,-1
 212 260 l 1,70,-1
 349 339 l 2,71,72
 441 393 441 393 466.5 412.5 c 128,-1,73
 492 432 492 432 499 457 c 1,74,-1
 520 557 l 2,75,76
 525 585 525 585 485 585 c 2,77,-1
 390 585 l 1,78,-1
 379 531 l 1,79,80
 377 516 377 516 385 503.5 c 128,-1,81
 393 491 393 491 411 491 c 2,82,-1
 437 491 l 1,83,-1
 416 395 l 1,84,-1
 355 395 l 2,85,86
 308 395 308 395 283 435 c 1,87,88
 265 467 265 467 265 500 c 0,89,90
 265 514 265 514 269 530 c 2,91,-1
 301 679 l 1,92,-1
 533 679 l 2,93,94
 566 679 566 679 591 667 c 1,95,96
 616 652 616 652 625.5 633.5 c 128,-1,97
 635 615 635 615 635 600 c 0,98,99
 635 595 635 595 633 581 c 2,100,-1
 600 423 l 2,101,102
 596 402 596 402 577 386 c 1,103,104
 558 367 558 367 525 346 c 2,105,-1
 418 281 l 1,106,-1
 315 220 l 1,107,-1
 301 152 l 2,108,109
 300 147 300 147 300 139 c 0,110,111
 300 127 300 127 309.5 113 c 128,-1,112
 319 99 319 99 342 99 c 2,113,-1
 479 99 l 2,114,115
 497 99 497 99 512 118.5 c 128,-1,116
 527 138 527 138 532 161 c 2,117,-1
 541 207 l 1,118,-1
 650 207 l 1,119,-1
 639 153 l 2,120,121
 635 132 635 132 646.5 115.5 c 128,-1,122
 658 99 658 99 680 99 c 2,123,-1
 789 99 l 2,124,125
 818 99 818 99 842.5 119 c 128,-1,126
 867 139 867 139 871 161 c 2,127,-1
 892 257 l 2,128,129
 896 279 896 279 884.5 290.5 c 128,-1,130
 873 302 873 302 854 302 c 2,131,-1
 821 302 l 1,132,-1
 840 397 l 1,133,-1
 936 397 l 2,134,135
 978 397 978 397 999 371 c 0,136,137
 1014 352 1014 352 1014 326 c 0,138,139
 1014 321 1014 321 1012 305 c 1,140,-1
 968 118 l 1,49,50
EndSplineSet
EndChar

StartChar: ka.base
Encoding: 126 -1 125
Width: 527
Flags: W
AnchorPoint: "s" 278 -62 basechar 0
LayerCount: 2
Fore
SplineSet
800 396 m 1,0,-1
 603 396 l 1,1,2
 654 359 654 359 679 312 c 0,3,4
 698 277 698 277 698 251 c 0,5,6
 698 244 698 244 698 239 c 1,7,8
 696 234 696 234 696 233 c 2,9,-1
 674 130 l 1,10,11
 665 79 665 79 622.5 43.5 c 128,-1,12
 580 8 580 8 534 8 c 2,13,-1
 288 6 l 2,14,15
 245 6 245 6 222 34 c 0,16,17
 214 43 214 43 210 56 c 128,-1,18
 206 69 206 69 206 81 c 0,19,20
 206 92 206 92 207 99 c 2,21,-1
 233 222 l 2,22,23
 247 290 247 290 401 399 c 1,24,-1
 189 399 l 1,25,-1
 210 495 l 1,26,-1
 469 495 l 1,27,-1
 488 590 l 1,28,-1
 229 590 l 1,29,-1
 250 685 l 1,30,-1
 702 685 l 1,31,-1
 681 590 l 1,32,-1
 597 590 l 1,33,-1
 578 495 l 1,34,-1
 824 495 l 1,35,-1
 800 396 l 1,0,-1
574 155 m 1,36,-1
 588 218 l 2,37,38
 590 229 590 229 590 237 c 0,39,40
 590 263 590 263 571 293 c 1,41,42
 548 337 548 337 498 366 c 1,43,44
 360 296 360 296 345 224 c 2,45,-1
 330 150 l 2,46,47
 329 145 329 145 329 137 c 0,48,49
 329 130 329 130 334 117 c 1,50,51
 345 105 345 105 360 105 c 1,52,-1
 359 101 l 1,53,-1
 531 101 l 2,54,55
 546 101 546 101 559 118.5 c 128,-1,56
 572 136 572 136 574 155 c 1,36,-1
EndSplineSet
EndChar

StartChar: ka.imathra
Encoding: 127 -1 126
Width: 620
Flags: W
AnchorPoint: "s" 270 -80 basechar 0
LayerCount: 2
Fore
SplineSet
736 396 m 1,0,-1
 584 396 l 1,1,2
 640 354 640 354 666 303 c 0,3,4
 684 268 684 268 684 236 c 0,5,6
 684 228 684 228 682 214 c 2,7,-1
 657 97 l 2,8,9
 649 58 649 58 615.5 30 c 128,-1,10
 582 2 582 2 543 2 c 2,11,-1
 283 2 l 2,12,13
 237 2 237 2 215 27.5 c 128,-1,14
 193 53 193 53 193 81 c 0,15,16
 193 90 193 90 194 95 c 2,17,-1
 222 226 l 1,18,19
 230 252 230 252 260 281 c 0,20,21
 269 290 269 290 309 323 c 0,22,23
 360 366 360 366 392 392 c 1,24,-1
 229 392 l 1,25,-1
 250 488 l 1,26,-1
 494 488 l 1,27,-1
 598 591 l 1,28,-1
 628 740 l 2,29,30
 632 759 632 759 618 759 c 2,31,-1
 550 759 l 1,32,-1
 538 699 l 2,33,34
 537 694 537 694 544 686 c 128,-1,35
 551 678 551 678 562 678 c 2,36,-1
 576 678 l 1,37,-1
 555 583 l 1,38,-1
 501 583 l 2,39,40
 464 583 464 583 439 608 c 1,41,42
 423 627 423 627 423 649 c 0,43,44
 423 658 423 658 424 663 c 2,45,-1
 464 853 l 1,46,-1
 669 853 l 2,47,48
 708 853 708 853 731 827 c 1,49,50
 745 809 745 809 745 783 c 0,51,52
 745 768 745 768 743 760 c 2,53,-1
 704 577 l 1,54,-1
 612 488 l 1,55,-1
 756 488 l 1,56,-1
 736 396 l 1,0,-1
556 133 m 1,57,-1
 572 214 l 2,58,59
 581 257 581 257 479 359 c 1,60,61
 335 254 335 254 324 208 c 1,62,-1
 306 119 l 2,63,64
 304 110 304 110 313 101 c 128,-1,65
 322 92 322 92 336 92 c 2,66,-1
 518 92 l 2,67,68
 530 92 530 92 540.5 104.5 c 128,-1,69
 551 117 551 117 556 133 c 1,57,-1
EndSplineSet
LCarets2: 1 0
EndChar

StartChar: ka.sub
Encoding: 128 -1 127
Width: 163
Flags: W
AnchorPoint: "Sub" -128 264 mark 0
AnchorPoint: "Sub" 198 -412 basemark 0
LayerCount: 2
Fore
SplineSet
299 -145 m 1,0,-1
 176 -145 l 1,1,2
 240 -194 240 -194 229 -240 c 1,3,-1
 213 -321 l 2,4,5
 205 -357 205 -357 167.5 -384 c 128,-1,6
 130 -411 130 -411 86 -411 c 2,7,-1
 -69 -411 l 1,8,9
 -118 -407 -118 -407 -142 -381.5 c 128,-1,10
 -166 -356 -166 -356 -166 -324 c 0,11,12
 -166 -312 -166 -312 -165 -307 c 2,13,-1
 -156 -261 l 1,14,15
 -141 -211 -141 -211 -55 -144 c 1,16,-1
 -190 -144 l 1,17,-1
 -172 -62 l 1,18,-1
 38 -62 l 1,19,-1
 117 9 l 1,20,-1
 175 63 l 2,21,22
 189 77 189 77 191 92 c 1,23,-1
 219 223 l 2,24,25
 227 258 227 258 177 280 c 1,26,-1
 251 334 l 1,27,28
 325 273 325 273 317 234 c 2,29,-1
 284 76 l 2,30,31
 280 54 280 54 254 31 c 2,32,-1
 140 -65 l 1,33,-1
 317 -65 l 1,34,-1
 299 -145 l 1,0,-1
126 -291 m 1,35,-1
 135 -243 l 2,36,37
 140 -218 140 -218 118.5 -191 c 128,-1,38
 97 -164 97 -164 55 -149 c 1,39,40
 12 -161 12 -161 -21 -191 c 1,41,42
 -50 -223 -50 -223 -58 -256 c 1,43,-1
 -66 -296 l 2,44,45
 -70 -312 -70 -312 -57.5 -323.5 c 128,-1,46
 -45 -335 -45 -335 -26 -335 c 2,47,-1
 83 -335 l 2,48,49
 99 -335 99 -335 108 -321 c 1,50,51
 120 -309 120 -309 126 -291 c 1,35,-1
EndSplineSet
LCarets2: 1 0
EndChar

StartChar: ka_rvocalicmatra.sub
Encoding: 129 -1 128
Width: 324
Flags: W
LayerCount: 2
Fore
SplineSet
595 -275 m 2,0,1
 583 -332 583 -332 540 -371 c 1,2,3
 500 -411 500 -411 450 -411 c 2,4,-1
 63 -409 l 2,5,6
 19 -409 19 -409 -7 -379 c 0,7,8
 -16 -370 -16 -370 -20 -357 c 128,-1,9
 -24 -344 -24 -344 -24 -329 c 0,10,11
 -24 -315 -24 -315 -23 -308 c 2,12,-1
 16 -125 l 1,13,-1
 167 -125 l 1,14,15
 131 -110 131 -110 105 -87 c 1,16,17
 86 -61 86 -61 90 -46 c 1,18,-1
 109 50 l 2,19,20
 118 94 118 94 197 144 c 1,21,-1
 88 144 l 1,22,-1
 104 226 l 1,23,-1
 297 226 l 1,24,-1
 320 335 l 1,25,-1
 427 335 l 1,26,-1
 404 226 l 1,27,-1
 595 226 l 1,28,-1
 579 144 l 1,29,-1
 434 144 l 1,30,31
 473 129 473 129 491 106 c 1,32,33
 505 84 505 84 505 65 c 0,34,35
 505 56 505 56 504 52 c 2,36,-1
 492 -8 l 1,37,38
 481 -56 481 -56 440 -90 c 128,-1,39
 399 -124 399 -124 350 -124 c 2,40,-1
 262 -124 l 1,41,-1
 246 -205 l 1,42,-1
 97 -205 l 1,43,-1
 79 -293 l 2,44,45
 75 -308 75 -308 87 -316 c 1,46,47
 98 -327 98 -327 116 -327 c 2,48,-1
 443 -327 l 2,49,50
 458 -327 458 -327 473 -306 c 128,-1,51
 488 -285 488 -285 495 -252 c 2,52,-1
 552 22 l 1,53,54
 557 51 557 51 525 65 c 1,55,-1
 607 133 l 1,56,57
 636 120 636 120 654 90 c 1,58,59
 662 67 662 67 662 46 c 0,60,61
 662 34 662 34 661 28 c 2,62,-1
 595 -275 l 2,0,1
397 9 m 2,63,-1
 406 55 l 2,64,65
 408 69 408 69 408 76 c 0,66,67
 408 90 408 90 399 109 c 1,68,69
 390 135 390 135 358 147 c 1,70,-1
 283 147 l 1,71,72
 254 132 254 132 232 107 c 128,-1,73
 210 82 210 82 206 60 c 2,74,-1
 191 -8 l 1,75,76
 190 -23 190 -23 199 -32.5 c 128,-1,77
 208 -42 208 -42 224 -42 c 2,78,-1
 361 -40 l 2,79,80
 372 -40 372 -40 384 -26 c 1,81,82
 393 -11 393 -11 397 9 c 2,63,-1
EndSplineSet
EndChar

StartChar: kha
Encoding: 130 3222 129
Width: 935
Flags: W
LayerCount: 2
Fore
SplineSet
982 106 m 2,0,1
 973 62 973 62 944.5 30 c 128,-1,2
 916 -2 916 -2 887 -2 c 2,3,-1
 742 -2 l 2,4,5
 703 -2 703 -2 668 32 c 1,6,-1
 597 87 l 1,7,8
 578 47 578 47 539.5 22 c 128,-1,9
 501 -3 501 -3 457 -3 c 2,10,-1
 234 -3 l 1,11,12
 211 -1 211 -1 196 3.5 c 128,-1,13
 181 8 181 8 167 20 c 0,14,15
 142 42 142 42 149 74 c 2,16,-1
 177 209 l 2,17,18
 185 246 185 246 217 271 c 128,-1,19
 249 296 249 296 285 296 c 2,20,-1
 482 296 l 2,21,22
 531 296 531 296 543 268 c 1,23,-1
 599 528 l 2,24,25
 601 542 601 542 601 547 c 256,26,27
 601 552 601 552 601 559 c 1,28,29
 599 564 599 564 599 565 c 0,30,31
 588 580 588 580 579 580 c 2,32,-1
 455 580 l 2,33,34
 450 580 450 580 439 568 c 1,35,36
 431 553 431 553 427 535 c 2,37,-1
 406 432 l 1,38,-1
 296 432 l 1,39,-1
 325 576 l 1,40,41
 336 620 336 620 372 646 c 1,42,43
 407 675 407 675 457 675 c 2,44,-1
 627 675 l 2,45,46
 674 675 674 675 699 638 c 0,47,48
 718 610 718 610 718 577 c 0,49,50
 718 563 718 563 714 548 c 2,51,-1
 640 197 l 1,52,-1
 715 115 l 1,53,54
 745 87 745 87 777 87 c 2,55,-1
 840 87 l 2,56,57
 855 87 855 87 866.5 103 c 128,-1,58
 878 119 878 119 882 141 c 2,59,-1
 967 538 l 2,60,61
 971 556 971 556 960 567 c 128,-1,62
 949 578 949 578 930 578 c 2,63,-1
 813 578 l 1,64,-1
 832 673 l 1,65,-1
 995 673 l 2,66,67
 1042 673 1042 673 1064 641 c 1,68,69
 1083 620 1083 620 1083 587 c 0,70,71
 1083 572 1083 572 1082 565 c 2,72,-1
 982 106 l 2,0,1
510 129 m 1,73,-1
 518 164 l 1,74,75
 495 197 495 197 444 197 c 2,76,-1
 321 197 l 2,77,78
 306 197 306 197 293 191.5 c 128,-1,79
 280 186 280 186 278 179 c 2,80,-1
 264 115 l 2,81,82
 262 104 262 104 273 97 c 1,83,84
 278 88 278 88 293 88 c 2,85,-1
 458 88 l 2,86,87
 477 88 477 88 493 101 c 128,-1,88
 509 114 509 114 510 129 c 1,73,-1
EndSplineSet
LCarets2: 1 0
EndChar

StartChar: kha.base
Encoding: 131 -1 130
Width: 772
Flags: W
LayerCount: 2
Fore
SplineSet
985 106 m 2,0,1
 980 81 980 81 971 63 c 128,-1,2
 962 45 962 45 947 30 c 1,3,4
 919 -2 919 -2 890 -2 c 1,5,-1
 888 0 l 1,6,-1
 743 0 l 2,7,8
 706 0 706 0 670 35 c 1,9,-1
 607 82 l 1,10,11
 591 46 591 46 550.5 23 c 128,-1,12
 510 0 510 0 461 0 c 2,13,-1
 237 0 l 2,14,15
 193 0 193 0 168.5 22 c 128,-1,16
 144 44 144 44 151 76 c 2,17,-1
 179 211 l 2,18,19
 187 248 187 248 219.5 273 c 128,-1,20
 252 298 252 298 292 298 c 2,21,-1
 483 298 l 2,22,23
 529 298 529 298 544 270 c 1,24,-1
 602 544 l 2,25,26
 603 549 603 549 603 558 c 0,27,28
 603 565 603 565 597.5 574 c 128,-1,29
 592 583 592 583 577 583 c 2,30,-1
 468 583 l 2,31,32
 456 583 456 583 441 571 c 1,33,34
 429 556 429 556 425 538 c 2,35,-1
 404 435 l 1,36,-1
 295 435 l 1,37,-1
 324 579 l 1,38,39
 335 623 335 623 371 649 c 1,40,41
 406 678 406 678 455 678 c 2,42,-1
 627 678 l 2,43,44
 674 678 674 678 699 641 c 1,45,46
 717 612 717 612 717 582 c 0,47,48
 717 568 717 568 713 552 c 2,49,-1
 639 201 l 1,50,-1
 718 133 l 1,51,52
 755 92 755 92 777 92 c 2,53,-1
 854 92 l 2,54,55
 872 92 872 92 876 114 c 2,56,-1
 951 469 l 2,57,58
 953 478 953 478 953 497 c 0,59,60
 953 529 953 529 935 548 c 1,61,62
 907 581 907 581 861 581 c 2,63,-1
 812 581 l 1,64,-1
 831 676 l 1,65,-1
 942 676 l 1,66,67
 986 671 986 671 1017.5 639.5 c 128,-1,68
 1049 608 1049 608 1058 565 c 0,69,70
 1063 543 1063 543 1063.5 535.5 c 128,-1,71
 1064 528 1064 528 1064 519 c 0,72,73
 1064 497 1064 497 1057 469 c 1,74,-1
 985 106 l 2,0,1
507 133 m 1,75,-1
 512 159 l 1,76,77
 476 201 476 201 420 201 c 2,78,-1
 303 201 l 2,79,80
 295 201 295 201 290.5 198.5 c 128,-1,81
 286 196 286 196 285 196 c 0,82,83
 277 191 277 191 275 184 c 2,84,-1
 261 120 l 2,85,86
 259 109 259 109 270 102 c 1,87,88
 275 93 275 93 290 93 c 2,89,-1
 455 93 l 2,90,91
 473 93 473 93 489.5 105.5 c 128,-1,92
 506 118 506 118 507 133 c 1,75,-1
EndSplineSet
EndChar

StartChar: kha.imathra
Encoding: 132 -1 131
Width: 935
Flags: W
LayerCount: 2
Fore
SplineSet
985 106 m 2,0,1
 980 81 980 81 971 63 c 128,-1,2
 962 45 962 45 947 30 c 1,3,4
 919 -2 919 -2 890 -2 c 1,5,-1
 888 0 l 1,6,-1
 743 0 l 2,7,8
 706 0 706 0 670 35 c 1,9,-1
 600 89 l 1,10,11
 582 52 582 52 545 26.5 c 128,-1,12
 508 1 508 1 469 1 c 2,13,-1
 237 1 l 2,14,15
 193 1 193 1 168.5 23 c 128,-1,16
 144 45 144 45 151 77 c 2,17,-1
 179 212 l 2,18,19
 187 249 187 249 219.5 274 c 128,-1,20
 252 299 252 299 292 299 c 2,21,-1
 483 299 l 2,22,23
 515 299 515 299 543 259 c 1,24,-1
 600 532 l 2,25,26
 601 537 601 537 601 548 c 0,27,28
 601 560 601 560 596 569 c 1,29,30
 584 584 584 584 566 584 c 2,31,-1
 470 584 l 2,32,33
 458 584 458 584 443 572 c 1,34,35
 431 557 431 557 427 539 c 2,36,-1
 406 436 l 1,37,-1
 297 436 l 1,38,-1
 326 580 l 1,39,40
 337 624 337 624 373 650 c 1,41,42
 408 679 408 679 457 679 c 2,43,-1
 629 679 l 2,44,45
 676 679 676 679 701 642 c 1,46,47
 719 613 719 613 719 583 c 0,48,49
 719 569 719 569 715 553 c 2,50,-1
 641 202 l 1,51,-1
 706 134 l 1,52,53
 756 93 756 93 807 93 c 2,54,-1
 842 93 l 2,55,56
 857 93 857 93 867.5 103.5 c 128,-1,57
 878 114 878 114 882 129 c 2,58,-1
 988 634 l 2,59,60
 989 641 989 641 989 652 c 256,61,62
 989 663 989 663 985.5 671 c 128,-1,63
 982 679 982 679 966 679 c 2,64,-1
 931 679 l 1,65,-1
 912 675 l 1,66,67
 908 673 908 673 905.5 669.5 c 128,-1,68
 903 666 903 666 902 662 c 2,69,-1
 897 640 l 1,70,71
 895 621 895 621 902 610.5 c 128,-1,72
 909 600 909 600 917 600 c 2,73,-1
 957 600 l 1,74,-1
 936 504 l 1,75,-1
 848 504 l 2,76,77
 813 504 813 504 792 533 c 0,78,79
 777 555 777 555 777 580 c 0,80,81
 777 585 777 585 779 599 c 2,82,-1
 798 694 l 2,83,84
 806 730 806 730 842 753 c 128,-1,85
 878 776 878 776 918 776 c 2,86,-1
 1027 776 l 2,87,88
 1069 776 1069 776 1092 743 c 1,89,90
 1107 717 1107 717 1107 688 c 0,91,92
 1107 680 1107 680 1105 664 c 1,93,-1
 985 106 l 2,0,1
513 137 m 2,94,-1
 518 158 l 1,95,96
 472 205 472 205 433 205 c 2,97,-1
 317 205 l 2,98,99
 310 205 310 205 304.5 204 c 128,-1,100
 299 203 299 203 290 199 c 128,-1,101
 281 195 281 195 279 188 c 2,102,-1
 268 132 l 1,103,104
 264 120 264 120 269 108 c 1,105,106
 270 97 270 97 281 97 c 2,107,-1
 458 97 l 2,108,109
 476 97 476 97 492.5 109.5 c 128,-1,110
 509 122 509 122 513 137 c 2,94,-1
EndSplineSet
LCarets2: 1 0
EndChar

StartChar: kha.sub
Encoding: 133 -1 132
Width: 155
Flags: W
AnchorPoint: "Sub" -300 251 mark 0
AnchorPoint: "Sub" 202 -419 basemark 0
LayerCount: 2
Fore
SplineSet
256 -237 m 2,0,1
 244 -295 244 -295 194.5 -337.5 c 128,-1,2
 145 -380 145 -380 89 -380 c 2,3,-1
 22 -380 l 2,4,5
 7 -380 7 -380 -50 -359 c 1,6,7
 -124 -408 -124 -408 -161 -408 c 2,8,-1
 -310 -408 l 1,9,-1
 -305 -408 l 2,10,11
 -340 -408 -340 -408 -365 -386 c 1,12,13
 -381 -370 -381 -370 -381 -348 c 0,14,15
 -381 -339 -381 -339 -380 -334 c 2,16,-1
 -366 -274 l 1,17,18
 -361 -241 -361 -241 -329 -214 c 128,-1,19
 -297 -187 -297 -187 -258 -187 c 2,20,-1
 -149 -187 l 2,21,22
 -133 -187 -133 -187 -127 -194 c 1,23,-1
 -70 -240 l 1,24,-1
 -54 -158 l 2,25,26
 -53 -154 -53 -154 -53 -149.5 c 128,-1,27
 -53 -145 -53 -145 -53 -144 c 0,28,29
 -53 -128 -53 -128 -58 -119 c 1,30,31
 -71 -101 -71 -101 -87 -101 c 2,32,-1
 -101 -101 l 1,33,-1
 -113 -155 l 1,34,-1
 -208 -155 l 1,35,-1
 -180 -25 l 1,36,-1
 -49 -25 l 2,37,38
 4 -25 4 -25 30 -64 c 0,39,40
 48 -90 48 -90 48 -125 c 0,41,42
 48 -140 48 -140 44 -159 c 2,43,-1
 16 -296 l 1,44,45
 35 -310 35 -310 49 -310 c 2,46,-1
 103 -310 l 2,47,48
 122 -310 122 -310 137 -290 c 128,-1,49
 152 -270 152 -270 159 -237 c 2,50,-1
 248 187 l 2,51,52
 252 208 252 208 237 222 c 1,53,54
 225 236 225 236 197 236 c 2,55,-1
 143 236 l 1,56,-1
 161 322 l 1,57,-1
 224 322 l 2,58,59
 287 322 287 322 323 286 c 1,60,61
 349 258 349 258 349 221 c 0,62,63
 349 205 349 205 347 197 c 2,64,-1
 256 -237 l 2,0,1
-117 -318 m 1,65,66
 -154 -276 -154 -276 -197 -276 c 2,67,-1
 -257 -276 l 2,68,69
 -278 -276 -278 -276 -282 -290 c 1,70,-1
 -289 -323 l 1,71,72
 -287 -331 -287 -331 -285 -331 c 0,73,74
 -278 -335 -278 -335 -273 -335 c 2,75,-1
 -163 -335 l 2,76,77
 -154 -335 -154 -335 -117 -318 c 1,65,66
EndSplineSet
LCarets2: 1 0
EndChar

StartChar: ga.base
Encoding: 135 -1 134
Width: 550
Flags: W
LayerCount: 2
Fore
SplineSet
740 0 m 1,0,-1
 631 0 l 1,1,-1
 734 487 l 2,2,3
 735 492 735 492 735 504 c 0,4,5
 735 523 735 523 730 535 c 0,6,7
 718 560 718 560 695 572.5 c 128,-1,8
 672 585 672 585 642 585 c 2,9,-1
 539 585 l 2,10,11
 495 585 495 585 457.5 556 c 128,-1,12
 420 527 420 527 412 486 c 2,13,-1
 309 -1 l 1,14,-1
 199 -1 l 1,15,-1
 303 491 l 2,16,17
 315 547 315 547 376 586 c 1,18,-1
 322 586 l 1,19,-1
 343 681 l 1,20,-1
 725 681 l 1,21,22
 792 665 792 665 828 609 c 0,23,24
 850 573 850 573 850 524 c 0,25,26
 850 506 850 506 846 487 c 2,27,-1
 740 0 l 1,0,-1
EndSplineSet
EndChar

StartChar: ga.imathra
Encoding: 136 -1 135
Width: 729
Flags: W
LayerCount: 2
Fore
SplineSet
754 0 m 1,0,-1
 645 0 l 1,1,-1
 748 487 l 2,2,3
 750 498 750 498 750 517 c 0,4,5
 750 542 750 542 739 557 c 1,6,7
 723 586 723 586 687 586 c 2,8,-1
 510 586 l 2,9,10
 475 586 475 586 447 558 c 1,11,12
 419 533 419 533 411 491 c 2,13,-1
 306 -1 l 1,14,-1
 196 -1 l 1,15,-1
 299 486 l 1,16,17
 308 534 308 534 339.5 573.5 c 128,-1,18
 371 613 371 613 411 634 c 1,19,20
 379 646 379 646 360 671 c 0,21,22
 349 687 349 687 349 710 c 0,23,24
 349 721 349 721 350 726 c 2,25,-1
 365 794 l 1,26,27
 370 827 370 827 407 856 c 1,28,29
 444 881 444 881 484 881 c 2,30,-1
 667 881 l 2,31,32
 741 881 741 881 794.5 839 c 128,-1,33
 848 797 848 797 869 725 c 0,34,35
 874 709 874 709 876.5 687 c 128,-1,36
 879 665 879 665 879 643 c 0,37,38
 879 607 879 607 871 570 c 2,39,-1
 754 0 l 1,0,-1
776 633 m 1,40,41
 776 703 776 703 732 745.5 c 128,-1,42
 688 788 688 788 613 788 c 2,43,-1
 517 788 l 2,44,45
 470 788 470 788 465 762 c 2,46,-1
 458 729 l 2,47,48
 457 724 457 724 457 719.5 c 128,-1,49
 457 715 457 715 457 714 c 0,50,51
 457 703 457 703 459.5 694 c 128,-1,52
 462 685 462 685 473 683 c 1,53,-1
 705 683 l 2,54,55
 748 683 748 683 776 633 c 1,40,41
EndSplineSet
LCarets2: 1 0
EndChar

StartChar: ga.sub
Encoding: 137 -1 136
Width: 95
Flags: W
AnchorPoint: "Sub" -216 -60 mark 0
AnchorPoint: "Sub" 104 -428 basemark 0
LayerCount: 2
Fore
SplineSet
107 -410 m 1,0,-1
 11 -410 l 1,1,-1
 57 -192 l 2,2,3
 61 -171 61 -171 50 -153 c 1,4,5
 35 -138 35 -138 14 -138 c 2,6,-1
 -67 -138 l 2,7,8
 -90 -138 -90 -138 -108.5 -153 c 128,-1,9
 -127 -168 -127 -168 -131 -191 c 2,10,-1
 -177 -409 l 1,11,-1
 -273 -409 l 1,12,-1
 -227 -191 l 2,13,14
 -215 -134 -215 -134 -169.5 -94.5 c 128,-1,15
 -124 -55 -124 -55 -70 -55 c 2,16,-1
 47 -55 l 2,17,18
 104 -55 104 -55 136 -90 c 1,19,20
 159 -113 159 -113 159 -150 c 0,21,22
 159 -159 159 -159 157 -175 c 1,23,-1
 107 -410 l 1,0,-1
EndSplineSet
LCarets2: 1 0
EndChar

StartChar: gha.base
Encoding: 139 -1 138
Width: 970
Flags: W
LayerCount: 2
Fore
SplineSet
1297 588 m 1,0,-1
 982 588 l 1,1,2
 1018 560 1018 560 1018 509 c 0,3,4
 1018 495 1018 495 1017 488 c 1,5,6
 1045 411 1045 411 1089 411 c 1,7,8
 1111 413 1111 413 1126 424.5 c 128,-1,9
 1141 436 1141 436 1142 450 c 1,10,-1
 1163 546 l 1,11,-1
 1272 546 l 1,12,-1
 1256 464 l 2,13,14
 1248 427 1248 427 1226 391.5 c 128,-1,15
 1204 356 1204 356 1174 336 c 128,-1,16
 1144 316 1144 316 1116 316 c 2,17,-1
 1062 316 l 2,18,19
 1018 316 1018 316 990 356 c 1,20,-1
 944 138 l 1,21,22
 929 80 929 80 889.5 41 c 128,-1,23
 850 2 850 2 806 2 c 2,24,-1
 643 2 l 2,25,26
 606 2 606 2 584 28 c 0,27,28
 570 44 570 44 563 61 c 128,-1,29
 556 78 556 78 555 94 c 1,30,31
 533 51 533 51 500 26 c 0,32,33
 485 14 485 14 467.5 7 c 128,-1,34
 450 0 450 0 436 0 c 2,35,-1
 264 0 l 2,36,37
 227 0 227 0 204 35 c 1,38,39
 192 60 192 60 192 89 c 0,40,41
 192 107 192 107 194 116 c 2,42,-1
 255 408 l 1,43,-1
 406 408 l 2,44,45
 459 408 459 408 485 373 c 1,46,47
 506 348 506 348 506 312 c 0,48,49
 506 303 506 303 504 287 c 1,50,-1
 499 261 l 1,51,-1
 389 261 l 1,52,-1
 393 282 l 1,53,54
 394 296 394 296 390 307 c 1,55,56
 379 315 379 315 368 315 c 2,57,-1
 346 315 l 1,58,-1
 310 146 l 2,59,60
 309 141 309 141 309 132 c 0,61,62
 309 124 309 124 311.5 119.5 c 128,-1,63
 314 115 314 115 314 114 c 0,64,65
 321 99 321 99 335 99 c 2,66,-1
 444 99 l 2,67,68
 469 99 469 99 493.5 129.5 c 128,-1,69
 518 160 518 160 526 203 c 2,70,-1
 541 275 l 1,71,-1
 650 275 l 1,72,-1
 635 203 l 2,73,74
 634 196 634 196 634 184 c 0,75,76
 634 175 634 175 636.5 163.5 c 128,-1,77
 639 152 639 152 643 137 c 1,78,79
 659 101 659 101 680 101 c 2,80,-1
 789 101 l 2,81,82
 805 101 805 101 823 115 c 1,83,84
 835 129 835 129 839 151 c 2,85,-1
 909 478 l 1,86,87
 911 494 911 494 911 501 c 0,88,89
 911 531 911 531 888 557 c 0,90,91
 859 590 859 590 805 590 c 2,92,-1
 292 590 l 1,93,-1
 313 685 l 1,94,-1
 1325 685 l 1,95,-1
 1297 588 l 1,0,-1
679 413 m 1,96,-1
 570 413 l 1,97,-1
 593 522 l 1,98,-1
 702 522 l 1,99,-1
 679 413 l 1,96,-1
561 -140 m 1,100,-1
 452 -140 l 1,101,-1
 481 -3 l 1,102,-1
 590 -3 l 1,103,-1
 561 -140 l 1,100,-1
EndSplineSet
EndChar

StartChar: gha.imathra
Encoding: 140 -1 139
Width: 1156
Flags: W
LayerCount: 2
Fore
SplineSet
715 602 m 1,0,1
 707 553 707 553 671 524 c 1,2,3
 641 494 641 494 599 494 c 2,4,-1
 422 494 l 1,5,-1
 441 589 l 1,6,-1
 576 589 l 1,7,8
 590 591 590 591 600.5 602.5 c 128,-1,9
 611 614 611 614 612 628 c 1,10,-1
 637 745 l 2,11,12
 639 759 639 759 639 764 c 256,13,14
 639 769 639 769 637 777 c 1,15,16
 630 789 630 789 619 789 c 2,17,-1
 570 789 l 2,18,19
 551 789 551 789 549 771 c 1,20,-1
 542 743 l 2,21,22
 541 736 541 736 545 729 c 128,-1,23
 549 722 549 722 557 722 c 2,24,-1
 606 722 l 1,25,-1
 585 626 l 1,26,-1
 496 626 l 2,27,28
 464 626 464 626 441 651 c 0,29,30
 434 660 434 660 430 671 c 128,-1,31
 426 682 426 682 426 693 c 0,32,33
 426 702 426 702 427 707 c 2,34,-1
 443 782 l 1,35,36
 451 826 451 826 488 852 c 1,37,38
 521 881 521 881 564 881 c 2,39,-1
 694 881 l 2,40,41
 727 881 727 881 746 853 c 0,42,43
 757 837 757 837 757 811 c 0,44,45
 757 795 757 795 755 787 c 2,46,-1
 715 602 l 1,0,1
1285 460 m 2,47,48
 1278 432 1278 432 1267 411 c 128,-1,49
 1256 390 1256 390 1238 372 c 0,50,51
 1205 337 1205 337 1163 337 c 2,52,-1
 1068 337 l 2,53,54
 1025 337 1025 337 996 377 c 1,55,-1
 945 132 l 1,56,57
 930 74 930 74 890.5 35 c 128,-1,58
 851 -4 851 -4 807 -4 c 2,59,-1
 646 -4 l 2,60,61
 609 -4 609 -4 586 19 c 1,62,63
 557 44 557 44 557 77 c 1,64,65
 537 41 537 41 504.5 18 c 128,-1,66
 472 -5 472 -5 437 -5 c 2,67,-1
 268 -5 l 2,68,69
 228 -5 228 -5 207 25 c 0,70,71
 192 48 192 48 192 74 c 0,72,73
 192 82 192 82 194 96 c 2,74,-1
 258 402 l 1,75,-1
 409 402 l 2,76,77
 460 402 460 402 488 370 c 1,78,79
 510 348 510 348 510 316 c 0,80,81
 510 301 510 301 509 294 c 2,82,-1
 501 254 l 1,83,-1
 391 254 l 1,84,-1
 398 289 l 2,85,86
 400 298 400 298 391 302 c 1,87,88
 384 307 384 307 368 307 c 2,89,-1
 349 307 l 1,90,-1
 313 138 l 2,91,92
 312 133 312 133 312 124 c 0,93,94
 312 113 312 113 318 101.5 c 128,-1,95
 324 90 324 90 335 90 c 2,96,-1
 444 90 l 2,97,98
 472 90 472 90 496.5 120.5 c 128,-1,99
 521 151 521 151 529 194 c 2,100,-1
 544 266 l 1,101,-1
 653 266 l 1,102,-1
 638 194 l 1,103,104
 637 183 637 183 637 178 c 0,105,106
 637 156 637 156 650 123.5 c 128,-1,107
 663 91 663 91 684 91 c 2,108,-1
 793 91 l 2,109,110
 808 91 808 91 824 105.5 c 128,-1,111
 840 120 840 120 844 141 c 2,112,-1
 926 528 l 2,113,114
 930 549 930 549 919 567 c 1,115,116
 904 582 904 582 883 582 c 2,117,-1
 806 582 l 1,118,-1
 827 677 l 1,119,-1
 937 677 l 2,120,121
 973 677 973 677 998 656 c 1,122,123
 1021 633 1021 633 1030 597 c 0,124,125
 1034 581 1034 581 1034 560 c 256,126,127
 1034 539 1034 539 1030 516 c 1,128,129
 1065 435 1065 435 1098 435 c 2,130,-1
 1147 435 l 2,131,132
 1158 435 1158 435 1170 450 c 0,133,134
 1174 455 1174 455 1177.5 464 c 128,-1,135
 1181 473 1181 473 1185 488 c 2,136,-1
 1225 678 l 1,137,-1
 1334 678 l 1,138,-1
 1285 460 l 2,47,48
555 -168 m 1,139,-1
 446 -168 l 1,140,-1
 475 -33 l 1,141,-1
 584 -33 l 1,142,-1
 555 -168 l 1,139,-1
EndSplineSet
LCarets2: 1 0
EndChar

StartChar: gha.sub
Encoding: 141 -1 140
Width: 200
Flags: W
AnchorPoint: "Sub" -345 115 mark 0
AnchorPoint: "Sub" 254 -405 basemark 0
LayerCount: 2
Fore
SplineSet
392 -32 m 1,0,1
 377 -106 377 -106 299 -149 c 1,2,-1
 281 -237 l 2,3,4
 272 -280 272 -280 239.5 -312.5 c 128,-1,5
 207 -345 207 -345 164 -345 c 2,6,-1
 19 -345 l 2,7,8
 -17 -345 -17 -345 -39 -323 c 1,9,10
 -66 -300 -66 -300 -75 -264 c 1,11,12
 -108 -306 -108 -306 -148.5 -330.5 c 128,-1,13
 -189 -355 -189 -355 -223 -355 c 2,14,-1
 -365 -355 l 2,15,16
 -407 -355 -407 -355 -425 -329 c 1,17,18
 -443 -307 -443 -307 -443 -284 c 0,19,20
 -443 -280 -443 -280 -441 -266 c 2,21,-1
 -422 -171 l 1,22,23
 -411 -127 -411 -127 -378.5 -99 c 128,-1,24
 -346 -71 -346 -71 -306 -71 c 2,25,-1
 -169 -71 l 1,26,-1
 -187 -152 l 1,27,-1
 -290 -152 l 2,28,29
 -304 -152 -304 -152 -315.5 -163 c 128,-1,30
 -327 -174 -327 -174 -329 -186 c 2,31,-1
 -341 -247 l 2,32,33
 -342 -256 -342 -256 -337 -265 c 1,34,35
 -328 -272 -328 -272 -320 -272 c 2,36,-1
 -197 -272 l 2,37,38
 -176 -272 -176 -272 -143 -239 c 1,39,40
 -113 -206 -113 -206 -107 -178 c 2,41,-1
 -99 -138 l 1,42,-1
 -3 -138 l 1,43,-1
 -12 -185 l 2,44,45
 -16 -210 -16 -210 2 -235 c 1,46,47
 23 -260 23 -260 46 -260 c 2,48,-1
 160 -260 l 2,49,50
 182 -260 182 -260 189 -232 c 1,51,-1
 200 -178 l 1,52,-1
 91 -178 l 1,53,-1
 109 -96 l 1,54,-1
 232 -96 l 2,55,56
 254 -96 254 -96 275 -77 c 1,57,58
 282 -69 282 -69 290 -56.5 c 128,-1,59
 298 -44 298 -44 300 -30 c 2,60,-1
 315 47 l 1,61,62
 319 60 319 60 275 92 c 1,63,-1
 345 160 l 1,64,65
 422 103 422 103 411 52 c 2,66,-1
 392 -32 l 1,0,1
-63 -412 m 1,67,-1
 -159 -412 l 1,68,-1
 -147 -349 l 1,69,-1
 -86 -289 l 1,70,-1
 -51 -349 l 1,71,-1
 -63 -412 l 1,67,-1
EndSplineSet
LCarets2: 1 0
EndChar

StartChar: nga
Encoding: 142 3225 141
Width: 872
Flags: W
LayerCount: 2
Fore
SplineSet
926 109 m 2,0,1
 917 65 917 65 882.5 33 c 128,-1,2
 848 1 848 1 808 1 c 2,3,-1
 617 1 l 2,4,5
 585 1 585 1 562 22.5 c 128,-1,6
 539 44 539 44 539 77 c 1,7,8
 523 42 523 42 496 21 c 128,-1,9
 469 0 469 0 443 0 c 2,10,-1
 260 0 l 2,11,12
 217 0 217 0 192 28 c 0,13,14
 174 47 174 47 174 76 c 0,15,16
 174 87 174 87 175 94 c 2,17,-1
 207 239 l 1,18,-1
 442 408 l 1,19,20
 463 419 463 419 474 462 c 1,21,-1
 490 544 l 1,22,23
 494 559 494 559 480 573 c 1,24,25
 466 584 466 584 444 584 c 2,26,-1
 390 584 l 1,27,-1
 382 544 l 2,28,29
 378 529 378 529 385 515 c 1,30,31
 389 503 389 503 400 503 c 2,32,-1
 414 503 l 1,33,-1
 393 408 l 1,34,-1
 325 408 l 2,35,36
 293 408 293 408 275 438 c 0,37,38
 263 457 263 457 263 483 c 0,39,40
 263 490 263 490 265 509 c 1,41,-1
 301 678 l 1,42,-1
 487 678 l 2,43,44
 533 678 533 678 563.5 658.5 c 128,-1,45
 594 639 594 639 594 606 c 1,46,47
 672 678 672 678 746 678 c 2,48,-1
 950 678 l 2,49,50
 983 678 983 678 995.5 658 c 128,-1,51
 1008 638 1008 638 1008 619 c 0,52,53
 1008 615 1008 615 1006 599 c 1,54,-1
 990 517 l 1,55,-1
 881 517 l 1,56,-1
 888 552 l 1,57,58
 892 566 892 566 885 577 c 1,59,60
 877 585 877 585 862 585 c 2,61,-1
 759 585 l 2,62,63
 710 585 710 585 660 559.5 c 128,-1,64
 610 534 610 534 577 491 c 1,65,-1
 565 431 l 1,66,67
 550 364 550 364 504 335 c 1,68,-1
 308 186 l 1,69,-1
 297 132 l 1,70,71
 293 120 293 120 304.5 108.5 c 128,-1,72
 316 97 316 97 337 97 c 2,73,-1
 423 97 l 2,74,75
 452 97 452 97 474 112 c 128,-1,76
 496 127 496 127 503 150 c 1,77,-1
 514 204 l 1,78,-1
 623 204 l 1,79,-1
 612 150 l 2,80,81
 608 129 608 129 624 112.5 c 128,-1,82
 640 96 640 96 668 96 c 2,83,-1
 791 96 l 2,84,85
 805 96 805 96 812.5 103.5 c 128,-1,86
 820 111 820 111 824 123 c 1,87,-1
 853 260 l 1,88,89
 855 276 855 276 855 280 c 0,90,91
 855 299 855 299 843 299 c 2,92,-1
 766 299 l 1,93,-1
 785 394 l 1,94,-1
 894 394 l 2,95,96
 924 394 924 394 939 380 c 1,97,98
 958 366 958 366 966 345 c 1,99,100
 970 329 970 329 970 314 c 0,101,102
 970 309 970 309 968 295 c 1,103,-1
 926 109 l 2,0,1
633 260 m 1,104,-1
 524 260 l 1,105,-1
 546 369 l 1,106,-1
 655 369 l 1,107,-1
 633 260 l 1,104,-1
EndSplineSet
LCarets2: 1 0
EndChar

StartChar: nga.sub
Encoding: 143 -1 142
Width: 186
Flags: W
AnchorPoint: "Sub" -388 -32 mark 0
AnchorPoint: "Sub" 284 -408 basemark 0
LayerCount: 2
Fore
SplineSet
16 -218 m 1,0,-1
 -79 -218 l 1,1,-1
 -65 -150 l 1,2,-1
 30 -150 l 1,3,-1
 16 -218 l 1,0,-1
302 -320 m 1,4,5
 294 -356 294 -356 266 -382 c 1,6,7
 233 -408 233 -408 203 -408 c 2,8,-1
 12 -408 l 2,9,10
 -13 -408 -13 -408 -31 -392 c 128,-1,11
 -49 -376 -49 -376 -56 -346 c 1,12,13
 -67 -371 -67 -371 -96 -390 c 0,14,15
 -105 -397 -105 -397 -121 -402.5 c 128,-1,16
 -137 -408 -137 -408 -149 -408 c 2,17,-1
 -353 -408 l 2,18,19
 -389 -408 -389 -408 -415 -385 c 1,20,21
 -433 -366 -433 -366 -433 -340 c 0,22,23
 -433 -332 -433 -332 -432 -328 c 2,24,-1
 -416 -253 l 1,25,26
 -411 -223 -411 -223 -380.5 -201.5 c 128,-1,27
 -350 -180 -350 -180 -320 -180 c 2,28,-1
 -252 -180 l 2,29,30
 -238 -180 -238 -180 -237 -166 c 1,31,-1
 -232 -140 l 1,32,33
 -231 -126 -231 -126 -242 -126 c 2,34,-1
 -379 -126 l 1,35,-1
 -361 -45 l 1,36,-1
 -184 -45 l 2,37,38
 -159 -45 -159 -45 -147 -56 c 1,39,40
 -133 -72 -133 -72 -134 -90 c 1,41,42
 -102 -44 -102 -44 -48 -44 c 2,43,-1
 115 -44 l 2,44,45
 157 -44 157 -44 178 -66 c 0,46,47
 194 -82 194 -82 194 -105 c 0,48,49
 194 -109 194 -109 192 -123 c 2,50,-1
 181 -177 l 1,51,-1
 86 -177 l 1,52,-1
 94 -137 l 2,53,54
 98 -115 98 -115 63 -115 c 2,55,-1
 -46 -115 l 2,56,57
 -72 -115 -72 -115 -99.5 -133.5 c 128,-1,58
 -127 -152 -127 -152 -146 -184 c 1,59,-1
 -153 -217 l 2,60,61
 -157 -233 -157 -233 -178 -245.5 c 128,-1,62
 -199 -258 -199 -258 -225 -258 c 2,63,-1
 -300 -258 l 2,64,65
 -325 -258 -325 -258 -327 -276 c 1,66,-1
 -334 -304 l 1,67,68
 -334 -313 -334 -313 -329 -317 c 1,69,70
 -325 -324 -325 -324 -314 -324 c 2,71,-1
 -158 -324 l 2,72,73
 -135 -324 -135 -324 -115.5 -311.5 c 128,-1,74
 -96 -299 -96 -299 -95 -284 c 1,75,-1
 -86 -244 l 1,76,-1
 9 -244 l 1,77,-1
 2 -276 l 2,78,79
 1 -281 1 -281 1 -289 c 0,80,81
 1 -301 1 -301 11 -315 c 128,-1,82
 21 -329 21 -329 43 -329 c 2,83,-1
 174 -329 l 2,84,85
 189 -329 189 -329 200 -319.5 c 128,-1,86
 211 -310 211 -310 212 -298 c 1,87,-1
 227 -230 l 1,88,-1
 318 -230 l 1,89,-1
 302 -320 l 1,4,5
EndSplineSet
LCarets2: 1 0
EndChar

